<?xml version="1.0" standalone="no"?>
<!DOCTYPE svg PUBLIC "-//W3C//DTD SVG 1.1//EN" "http://www.w3.org/Graphics/SVG/1.1/DTD/svg11.dtd" >
<svg xmlns="http://www.w3.org/2000/svg" xmlns:xlink="http://www.w3.org/1999/xlink" version="1.1">
<metadata>
Created by FontForge 20170731 at Tue Mar 20 17:22:45 2018
 By Aleksey,,,
Digitized data copyright 2012-2018 for FiraGO, bBox Type GmbH and HERE Europe B.V. All rights reserved, with Reserved Font Name "Fira" / Digitized data copyright 2012-2018 for Fira Sans The Mozilla Foundation, Telefonica S.A., Carrois Corporate GbR and bBox Type GmbH, with Reserved Font Name "Fira"
</metadata>
<defs>
<font id="FiraGO-Thin" horiz-adv-x="0" >
  <font-face 
    font-family="FiraGO Thin"
    font-weight="100"
    font-stretch="normal"
    units-per-em="1000"
    panose-1="2 11 3 3 5 0 0 2 0 4"
    ascent="800"
    descent="-200"
    x-height="519"
    cap-height="681"
    bbox="-707 -698 2411 1253"
    underline-thickness="50"
    underline-position="-150"
    unicode-range="U+000D-FEFF"
  />
<missing-glyph horiz-adv-x="666" 
d="M543 -350h-420v1400h420v-1400zM163 1012v-1324h341v1324h-341zM409.5 419q25.5 -32 25.5 -83q0 -53 -22.5 -82t-72.5 -36v-45q0 -11 -7.5 -17.5t-17.5 -6.5t-17.5 6.5t-7.5 17.5v84q53 3 72 19.5t19 57.5q0 33 -13 51t-48 18q-29 0 -52 -11q-8 -3 -13 -3
q-11 0 -17.5 6.5t-6.5 16.5q0 19 29.5 29t63.5 10q60 0 85.5 -32zM340 110q10 -10 10 -25q0 -16 -10 -26.5t-25 -10.5t-25 10.5t-10 26.5q0 15 10 25t25 10t25 -10z" />
    <glyph glyph-name="fi" unicode="fi" horiz-adv-x="549" 
d="M389 699l-9 -18q-33 16 -64.5 25.5t-67.5 9.5q-52 0 -78.5 -24t-26.5 -81v-92h288v-519h-22v499h-266v-499h-22v499h-90v20h90v97q0 60 33 90.5t93 30.5q71 0 142 -38z" />
    <glyph glyph-name="fl" unicode="fl" horiz-adv-x="582" 
d="M529 0q-24 -10 -46 -10q-35 0 -54 21t-19 63v615q-41 14 -77 20.5t-76 6.5q-56 0 -85 -24.5t-29 -77.5v-95h147l-4 -20h-143v-499h-22v499h-90v20h90v98q0 58 35 89t99 31q41 0 77 -7t78 -21l22 3v-639q0 -31 12.5 -46.5t40.5 -15.5q19 0 38 8z" />
    <glyph glyph-name="uniFDF2" unicode="&#x627;&#xfedf;&#xfee0;&#xfeea;" horiz-adv-x="1066" arabic-form="isolated" 
d="M558 744h-17v150l17 2v-152zM973 734v-734h-21v732zM454.5 601q-15.5 17 -15.5 52q0 30 10 57l14 -4q-8 -20 -8 -51q0 -53 42 -53q21 0 33 16t12 40v45h15v-46q0 -23 11 -38.5t32 -15.5q44 0 44 55q0 31 -16 69l14 6q19 -41 19 -79q0 -34 -16 -51.5t-43 -17.5
q-21 0 -34 11t-19 29q-6 -18 -19.5 -29.5t-34.5 -11.5q-25 0 -40.5 17zM755 619l21 2v-498q0 -123 -117 -123q-91 0 -109 75q-7 -37 -35 -56t-73 -19q-57 0 -85.5 30t-32.5 93q-22 -36 -61.5 -59.5t-91.5 -23.5q-68 0 -105 34.5t-37 88.5q0 75 75 124t217 59v98l21 2v-292
q0 -72 23.5 -102t76.5 -30q48 0 73 24.5t25 77.5v403l20 2v-405q0 -52 25 -77t74 -25q96 0 96 102v495zM321 327q-134 -7 -203 -51t-69 -113q0 -45 32 -74t91 -29q53 0 91 25.5t58 63.5v178z" />
    <glyph glyph-name="uniFEF5" unicode="&#xfedf;&#xfe82;" horiz-adv-x="614" arabic-form="isolated" 
d="M503 204q23 -42 23 -84q0 -120 -193 -120h-229l1 20q114 70 187.5 136t115.5 140l-24 24l-301 295l24 4l292 -288q16 -16 18 -19q61 115 61 279v142l21 2v-146q0 -169 -67 -291q48 -52 71 -94zM464 45q43 24 43 75q0 37 -21 75t-64 86q-43 -72 -113 -135t-171 -125h193
q90 0 133 24zM-3 701q11 25 27.5 42t36.5 17q14 0 24 -4t24 -13q12 -8 21.5 -12t22.5 -4q10 0 21.5 5t28.5 18l7 -13q-33 -27 -60 -27q-14 0 -24 4t-23 12q-23 15 -42 15q-27 0 -49 -45z" />
    <glyph glyph-name="uniFEF6" unicode="&#xfee0;&#xfe82;" horiz-adv-x="641" arabic-form="final" 
d="M655 11l-14 -11q-53 0 -84 25t-37 85q-15 -61 -65.5 -85.5t-148.5 -24.5h-221l-2 22h226q81 0 127 18l-287 496l22 3l167 -289q68 -117 114 -202q32 18 46.5 50.5t14.5 83.5v551l20 3v-577q0 -76 27 -106.5t82 -30.5zM61 636q11 25 27.5 42t36.5 17q14 0 24 -4t24 -13
q12 -8 21.5 -12t22.5 -4q10 0 21.5 5t28.5 18l7 -13q-33 -27 -60 -27q-14 0 -24 4t-23 12q-23 15 -42 15q-27 0 -49 -45z" />
    <glyph glyph-name="uniFEF7" unicode="&#xfedf;&#xfe84;" horiz-adv-x="614" arabic-form="isolated" 
d="M503 204q23 -42 23 -84q0 -120 -193 -120h-229l1 20q114 70 187.5 136t115.5 140l-24 24l-301 295l24 4l292 -288q16 -16 18 -19q61 115 61 279v142l21 2v-146q0 -169 -67 -291q48 -52 71 -94zM464 45q43 24 43 75q0 37 -21 75t-64 86q-43 -72 -113 -135t-171 -125h193
q90 0 133 24zM193 713l-181 -29l-2 16l76 12q-58 35 -58 81q0 30 22.5 50t63.5 20q31 0 58 -15l-7 -13q-25 13 -51 13q-35 0 -52.5 -16t-17.5 -39q0 -22 16.5 -42t45.5 -36l85 14z" />
    <glyph glyph-name="uniFEF8" unicode="&#xfee0;&#xfe84;" horiz-adv-x="641" arabic-form="final" 
d="M655 11l-14 -11q-53 0 -84 25t-37 85q-15 -61 -65.5 -85.5t-148.5 -24.5h-221l-2 22h226q81 0 127 18l-287 496l22 3l167 -289q68 -117 114 -202q32 18 46.5 50.5t14.5 83.5v551l20 3v-577q0 -76 27 -106.5t82 -30.5zM257 648l-181 -29l-2 16l76 12q-58 35 -58 81
q0 30 22.5 50t63.5 20q31 0 58 -15l-7 -13q-25 13 -51 13q-35 0 -52.5 -16t-17.5 -39q0 -22 16.5 -42t45.5 -36l85 14z" />
    <glyph glyph-name="uniFEF9" unicode="&#xfedf;&#xfe88;" horiz-adv-x="614" arabic-form="isolated" 
d="M503 204q23 -42 23 -84q0 -120 -193 -120h-229l1 20q114 70 187.5 136t115.5 140l-24 24l-301 295l24 4l292 -288q16 -16 18 -19q61 115 61 279v142l21 2v-146q0 -169 -67 -291q48 -52 71 -94zM464 45q43 24 43 75q0 37 -21 75t-64 86q-43 -72 -113 -135t-171 -125h193
q90 0 133 24zM281 -211l-181 -29l-2 16l76 12q-58 35 -58 81q0 30 22.5 50t63.5 20q31 0 58 -15l-7 -13q-25 13 -51 13q-35 0 -52.5 -16t-17.5 -39q0 -22 16.5 -42t45.5 -36l85 14z" />
    <glyph glyph-name="uniFEFA" unicode="&#xfee0;&#xfe88;" horiz-adv-x="641" arabic-form="final" 
d="M655 11l-14 -11q-53 0 -84 25t-37 85q-15 -61 -65.5 -85.5t-148.5 -24.5h-221l-2 22h226q81 0 127 18l-287 496l22 3l167 -289q68 -117 114 -202q32 18 46.5 50.5t14.5 83.5v551l20 3v-577q0 -76 27 -106.5t82 -30.5zM281 -211l-181 -29l-2 16l76 12q-58 35 -58 81
q0 30 22.5 50t63.5 20q31 0 58 -15l-7 -13q-25 13 -51 13q-35 0 -52.5 -16t-17.5 -39q0 -22 16.5 -42t45.5 -36l85 14z" />
    <glyph glyph-name="uniFEFB" unicode="&#xfedf;&#xfe8e;" horiz-adv-x="614" arabic-form="isolated" 
d="M503 204q23 -42 23 -84q0 -120 -193 -120h-229l1 20q114 70 187.5 136t115.5 140l-24 24l-301 295l24 4l292 -288q16 -16 18 -19q61 115 61 279v142l21 2v-146q0 -169 -67 -291q48 -52 71 -94zM464 45q43 24 43 75q0 37 -21 75t-64 86q-43 -72 -113 -135t-171 -125h193
q90 0 133 24z" />
    <glyph glyph-name="uniFEFC" unicode="&#xfee0;&#xfe8e;" horiz-adv-x="641" arabic-form="final" 
d="M655 11l-14 -11q-53 0 -84 25t-37 85q-15 -61 -65.5 -85.5t-148.5 -24.5h-221l-2 22h226q81 0 127 18l-287 496l22 3l167 -289q68 -117 114 -202q32 18 46.5 50.5t14.5 83.5v551l20 3v-577q0 -76 27 -106.5t82 -30.5z" />
    <glyph glyph-name="f_f" unicode="ff" horiz-adv-x="588" 
d="M451.5 691q-27.5 -25 -27.5 -77v-95h147l-3 -20h-144v-499h-22v499h-259v-499h-22v499h-90v20h90v88q0 58 35 89t99 31q42 0 80.5 -9t86.5 -29q32 48 104 48q61 0 116 -31l-9 -17q-52 27 -106 27q-48 0 -75.5 -25zM402 617q0 28 10 55q-43 18 -79 26t-76 8
q-56 0 -85 -24.5t-29 -77.5v-85h259v98z" />
    <glyph glyph-name="f_f_i" unicode="ffi" horiz-adv-x="830" 
d="M713 519v-519h-22v499h-267v-499h-22v499h-259v-499h-22v499h-90v20h90v88q0 58 35 89t99 31q42 0 80 -9t86 -29q30 48 108 48q72 0 141 -38l-8 -18q-70 35 -133 35q-52 0 -78.5 -24t-26.5 -81v-92h289zM402 616q0 33 10 56q-44 18 -79.5 26t-75.5 8q-56 0 -85 -24.5
t-29 -77.5v-85h259v97z" />
    <glyph glyph-name="f_f_j" unicode="ffj" horiz-adv-x="830" 
d="M713 7q0 -63 -12 -99.5t-35 -58t-66 -43.5l-6 16q37 20 57 40t30 54t10 91v492h-267v-499h-22v499h-259v-499h-22v499h-90v20h90v88q0 58 35 89t99 31q42 0 80 -9t86 -29q30 48 108 48q72 0 141 -38l-8 -18q-70 35 -133 35q-52 0 -78.5 -24t-26.5 -81v-92h289v-512z
M402 616q0 33 10 56q-44 18 -79.5 26t-75.5 8q-56 0 -85 -24.5t-29 -77.5v-85h259v97z" />
    <glyph glyph-name="f_f_l" unicode="ffl" horiz-adv-x="864" 
d="M811 0q-26 -10 -47 -10q-72 0 -72 84v615q-41 14 -77 20.5t-76 6.5q-115 0 -115 -102v-95h147l-3 -20h-144v-499h-22v499h-259v-499h-22v499h-90v20h90v88q0 58 35 89t99 31q42 0 80.5 -9t86.5 -29q17 23 46 35.5t69 12.5q41 0 76 -7t79 -21l22 3v-639q0 -31 12.5 -46.5
t39.5 -15.5q19 0 38 8zM402 617q0 28 10 55q-43 18 -79 26t-76 8q-56 0 -85 -24.5t-29 -77.5v-85h259v98z" />
    <glyph glyph-name="f_j" unicode="fj" horiz-adv-x="549" 
d="M431 7q0 -63 -11.5 -99.5t-34.5 -58t-66 -43.5l-7 16q37 20 57.5 40t30 53.5t9.5 91.5v492h-266v-499h-22v499h-90v20h90v97q0 60 33 90.5t93 30.5q71 0 142 -38l-9 -18q-33 16 -64.5 25.5t-67.5 9.5q-52 0 -78.5 -24t-26.5 -81v-92h288v-512z" />
    <glyph glyph-name="uni0E240E45" unicode="&#xe24;&#xe45;" horiz-adv-x="901" 
d="M743 537.5q46 -39.5 46 -117.5v-602l-22 5v595q0 70 -39 104.5t-132 34.5q-72 0 -158 -26q64 -46 64 -145v-578l-22 5v570q0 164 -175 164q-69 0 -119 -30.5t-82 -69.5q84 -12 150 -47v-19q-63 -10 -92.5 -45.5t-29.5 -104.5v-153q0 -67 60 -67q16 0 27.5 3t28.5 9l6 -18
q-18 -7 -31.5 -11t-32.5 -4q-37 0 -58.5 21.5t-21.5 65.5v154q0 69 31 110.5t89 50.5q-78 33 -150 40v17q32 46 89.5 82t135.5 36q68 0 115 -24q96 34 176 34q101 0 147 -39.5z" />
    <glyph glyph-name="uni0E260E45" unicode="&#xe26;&#xe45;" horiz-adv-x="895" 
d="M736 537.5q46 -39.5 46 -117.5v-602l-22 5v595q0 70 -38.5 104.5t-131.5 34.5q-72 0 -158 -26q63 -46 63 -145v-578l-22 5v570q0 164 -174 164q-69 0 -117.5 -30.5t-80.5 -69.5q84 -12 150 -47v-20q-53 -12 -79 -47.5t-26 -104.5v-110q0 -45 -4.5 -70t-20 -39t-47.5 -14
q-10 0 -19 1v19q6 -1 13 -1q28 0 40 11.5t14 30t2 64.5v110q0 134 109 159q-74 33 -156 43v17q31 45 88.5 81.5t133.5 36.5q69 0 114 -24q96 34 177 34q100 0 146 -39.5z" />
    <glyph glyph-name="uni06440671" unicode="&#xfedf;&#xfb51;" horiz-adv-x="614" 
d="M503 204q23 -42 23 -84q0 -120 -193 -120h-229l1 20q114 70 187.5 136t115.5 140l-24 24l-301 295l24 4l292 -288q16 -16 18 -19q61 115 61 279v142l21 2v-146q0 -169 -67 -291q48 -52 71 -94zM464 45q43 24 43 75q0 37 -21 75t-64 86q-43 -72 -113 -135t-171 -125h193
q90 0 133 24zM208 810q16 -16 16 -40q0 -32 -27 -49t-72 -17q-37 0 -94 19l-17 -44l-14 5l20 58q11 -4 33 -10q46 94 109 94q30 0 46 -16zM186.5 732.5q21.5 12.5 21.5 35.5q0 18 -11 30t-36 12q-53 0 -96 -81q35 -9 63 -9q37 0 58.5 12.5z" />
    <glyph glyph-name="uni06440671.fina" unicode="&#xfee0;&#xfb51;" horiz-adv-x="641" 
d="M655 11l-14 -11q-53 0 -84 25t-37 85q-15 -61 -65.5 -85.5t-148.5 -24.5h-221l-2 22h226q81 0 127 18l-287 496l22 3l167 -289q68 -117 114 -202q32 18 46.5 50.5t14.5 83.5v551l20 3v-577q0 -76 27 -106.5t82 -30.5zM272 745q16 -16 16 -40q0 -32 -27 -49t-72 -17
q-37 0 -94 19l-17 -44l-14 5l20 58q11 -4 33 -10q46 94 109 94q30 0 46 -16zM250.5 667.5q21.5 12.5 21.5 35.5q0 18 -11 30t-36 12q-53 0 -96 -81q35 -9 63 -9q37 0 58.5 12.5z" />
    <glyph glyph-name="uni0E1B0E31" unicode="&#xe1b;&#xe31;" horiz-adv-x="603" 
d="M490 672v-469q0 -98 -45 -154.5t-142 -56.5q-94 0 -139 56.5t-45 154.5v215q0 44 -6 74.5t-20 64.5l21 3q27 -64 27 -118v-237q0 -90 39.5 -141t122.5 -51q165 0 165 192v465l-37 -2q-58 0 -84.5 16t-26.5 52q0 26 8 46h20q-8 -22 -8 -43q0 -28 20 -40t74 -12q8 0 34 2
v86l22 -3v-81q70 7 137 27l5 -18q-68 -21 -142 -28z" />
    <glyph glyph-name="uni0E1B0E49" unicode="&#xe1b;&#xe49;" horiz-adv-x="603" 
d="M490 772v-569q0 -98 -45 -154.5t-142 -56.5q-94 0 -139 56.5t-45 154.5v215q0 44 -6 74.5t-20 64.5l21 3q27 -64 27 -118v-237q0 -90 39.5 -141t122.5 -51q165 0 165 192v542q-40 -44 -98.5 -61.5t-163.5 -19.5l-5 10q34 39 34 72q0 25 -14.5 38.5t-38.5 13.5
q-12 0 -37 -5l-2 15q19 7 43 7q30 0 49.5 -17.5t19.5 -49.5q0 -36 -25 -66q94 1 146.5 21t91.5 70z" />
    <glyph glyph-name="uni0E1B0E4A" unicode="&#xe1b;&#xe4a;" horiz-adv-x="603" 
d="M490 772v-569q0 -98 -45 -154.5t-142 -56.5q-94 0 -139 56.5t-45 154.5v215q0 44 -6 74.5t-20 64.5l21 3q27 -64 27 -118v-237q0 -90 39.5 -141t122.5 -51q165 0 165 192v533q-24 -37 -60.5 -53t-88.5 -16q-13 0 -27 2q9 27 9 60q0 32 -16 50.5t-44 18.5
q-32 0 -51.5 -27.5t-19.5 -69.5v-21l-21 -2v23q0 43 -17.5 70t-51.5 27q-29 0 -44.5 -19t-15.5 -52q0 -30 8 -58h-19q-10 22 -10 58q0 39 21 63.5t60 24.5q37 0 55.5 -22t24.5 -52q5 29 25 51.5t57 22.5q39 0 59 -23.5t20 -61.5q0 -26 -7 -47h6q110 0 148 90z" />
    <glyph glyph-name="uni0E1B0E4B" unicode="&#xe1b;&#xe4b;" horiz-adv-x="603" 
d="M490 772v-569q0 -98 -45 -154.5t-142 -56.5q-94 0 -139 56.5t-45 154.5v215q0 44 -6 74.5t-20 64.5l21 3q27 -64 27 -118v-237q0 -90 39.5 -141t122.5 -51q165 0 165 192v570zM407 738h-74v-67h-20v67h-76l2 17h74v60l20 2v-62h74v-17z" />
    <glyph glyph-name="uni0E1B0E4C" unicode="&#xe1b;&#xe4c;" horiz-adv-x="603" 
d="M583 723h-93v-520q0 -98 -45 -154.5t-142 -56.5q-94 0 -139 56.5t-45 154.5v215q0 44 -6 74.5t-20 64.5l21 3q27 -64 27 -118v-237q0 -90 39.5 -141t122.5 -51q165 0 165 192v518h-75q-29 0 -41.5 -12.5t-12.5 -36.5q0 -22 3 -43h-20q-4 26 -4 45q0 31 19.5 48.5
t54.5 17.5h76v33l22 -3v-30h93v-19z" />
    <glyph glyph-name="uni0E1B0E4D" unicode="&#xe1b;&#xe4d;" horiz-adv-x="603" 
d="M490 772v-569q0 -98 -45 -154.5t-142 -56.5q-94 0 -139 56.5t-45 154.5v215q0 44 -6 74.5t-20 64.5l21 3q27 -64 27 -118v-237q0 -90 39.5 -141t122.5 -51q165 0 165 192v570zM382 799.5q21 -20.5 21 -55.5q0 -34 -21.5 -55.5t-55.5 -21.5q-35 0 -55.5 21t-20.5 56
q0 34 21 55t55 21q35 0 56 -20.5zM284.5 787q-14.5 -16 -14.5 -43q0 -28 14.5 -43.5t41.5 -15.5q28 0 42.5 15.5t14.5 43.5q0 27 -15 43t-42 16t-41.5 -16z" />
    <glyph glyph-name="uni0E1D0E31" unicode="&#xe1d;&#xe31;" horiz-adv-x="723" 
d="M610 672v-456q0 -226 -135 -226q-53 0 -84 33t-36 102q-16 -135 -123 -135q-62 0 -97.5 54.5t-35.5 173.5v96q0 139 36.5 196t103.5 57q28 0 48 -10l-4 -17q-24 8 -45 8q-117 0 -117 -234v-98q0 -205 112 -205q50 0 80 39.5t30 126.5v117l23 3v-121q0 -88 29.5 -126.5
t78.5 -38.5q114 0 114 204v455q-30 -2 -38 -2q-58 0 -84.5 16t-26.5 52q0 24 9 46h20q-8 -22 -8 -43q0 -28 20 -40t74 -12q8 0 34 2v86l22 -3v-81q70 7 137 27l4 -18q-68 -21 -141 -28z" />
    <glyph glyph-name="uni0E1D0E49" unicode="&#xe1d;&#xe49;" horiz-adv-x="723" 
d="M610 772v-556q0 -226 -135 -226q-53 0 -84 33t-36 102q-16 -135 -123 -135q-62 0 -97.5 54.5t-35.5 173.5v96q0 139 36.5 196t103.5 57q28 0 48 -10l-4 -17q-24 8 -45 8q-117 0 -117 -234v-98q0 -205 112 -205q50 0 80 39.5t30 126.5v117l23 3v-121q0 -88 29.5 -126.5
t78.5 -38.5q114 0 114 204v532q-40 -44 -99 -61.5t-163 -19.5l-5 10q33 38 33 72q0 25 -14 38.5t-38 13.5q-10 0 -38 -5l-1 15q19 7 43 7q30 0 49.5 -17.5t19.5 -49.5q0 -36 -25 -66q94 1 146.5 21t91.5 70z" />
    <glyph glyph-name="uni0E1D0E4A" unicode="&#xe1d;&#xe4a;" horiz-adv-x="723" 
d="M610 772v-556q0 -226 -135 -226q-53 0 -84 33t-36 102q-16 -135 -123 -135q-62 0 -97.5 54.5t-35.5 173.5v96q0 139 36.5 196t103.5 57q28 0 48 -10l-4 -17q-24 8 -45 8q-117 0 -117 -234v-98q0 -205 112 -205q50 0 80 39.5t30 126.5v117l23 3v-121q0 -88 29.5 -126.5
t78.5 -38.5q114 0 114 204v523q-24 -37 -60.5 -53t-88.5 -16q-13 0 -27 2q9 27 9 60q0 32 -16 50.5t-44 18.5q-32 0 -51.5 -27.5t-19.5 -69.5v-21l-21 -2v23q0 43 -17.5 70t-51.5 27q-29 0 -44.5 -19t-15.5 -52q0 -30 8 -58h-20q-9 25 -9 58q0 39 21 63.5t59 24.5t56.5 -22
t23.5 -52q6 29 26 51.5t57 22.5q38 0 58.5 -23.5t20.5 -61.5q0 -26 -7 -47h6q110 0 148 90z" />
    <glyph glyph-name="uni0E1D0E4B" unicode="&#xe1d;&#xe4b;" horiz-adv-x="723" 
d="M610 772v-556q0 -226 -135 -226q-53 0 -84 33t-36 102q-16 -135 -123 -135q-62 0 -97.5 54.5t-35.5 173.5v96q0 139 36.5 196t103.5 57q28 0 48 -10l-4 -17q-24 8 -45 8q-117 0 -117 -234v-98q0 -205 112 -205q50 0 80 39.5t30 126.5v117l23 3v-121q0 -88 29.5 -126.5
t78.5 -38.5q114 0 114 204v560zM527 738h-74v-67h-20v67h-76l2 17h74v60l20 2v-62h74v-17z" />
    <glyph glyph-name="uni0E1D0E4C" unicode="&#xe1d;&#xe4c;" horiz-adv-x="723" 
d="M702 723h-92v-507q0 -226 -135 -226q-53 0 -84 33t-36 102q-16 -135 -123 -135q-62 0 -97.5 54.5t-35.5 173.5v96q0 139 36.5 196t103.5 57q28 0 48 -10l-4 -17q-24 8 -45 8q-117 0 -117 -234v-98q0 -205 112 -205q50 0 80 39.5t30 126.5v117l23 3v-121
q0 -88 29.5 -126.5t78.5 -38.5q114 0 114 204v508h-75q-29 0 -41.5 -12.5t-12.5 -36.5q0 -22 3 -43h-20q-4 26 -4 45q0 31 19.5 48.5t54.5 17.5h76v33l22 -3v-30h92v-19z" />
    <glyph glyph-name="uni0E1D0E4D" unicode="&#xe1d;&#xe4d;" horiz-adv-x="723" 
d="M610 772v-556q0 -226 -135 -226q-53 0 -84 33t-36 102q-16 -135 -123 -135q-62 0 -97.5 54.5t-35.5 173.5v96q0 139 36.5 196t103.5 57q28 0 48 -10l-4 -17q-24 8 -45 8q-117 0 -117 -234v-98q0 -205 112 -205q50 0 80 39.5t30 126.5v117l23 3v-121q0 -88 29.5 -126.5
t78.5 -38.5q114 0 114 204v560zM502 799.5q21 -20.5 21 -55.5q0 -34 -21.5 -55.5t-55.5 -21.5q-35 0 -55.5 21t-20.5 56q0 34 21 55t55 21q35 0 56 -20.5zM404.5 787q-14.5 -16 -14.5 -43q0 -28 14.5 -43.5t41.5 -15.5q28 0 42.5 15.5t14.5 43.5q0 27 -15 43t-42 16
t-41.5 -16z" />
    <glyph glyph-name="uni0E1F0E31" unicode="&#xe1f;&#xe31;" horiz-adv-x="763" 
d="M698 671l-19 -112l-96 -559h-26l-175 537l-177 -537h-25l-66 428q-13 88 -48 133l20 5q35 -41 50 -137l60 -404l172 534h27l174 -534l87 534l19 110q-10 -1 -25 -1q-58 0 -84.5 16t-26.5 52q0 26 8 46h20q-7 -24 -7 -43q0 -29 20 -40.5t74 -11.5q15 0 25 1l15 87h22
l-15 -85q78 7 145 28l5 -18q-72 -21 -153 -29z" />
    <glyph glyph-name="uni0E1F0E49" unicode="&#xe1f;&#xe49;" horiz-adv-x="753" 
d="M679 559l-96 -559h-26l-175 537l-177 -537h-25l-66 428q-13 88 -48 133l20 5q35 -41 50 -137l60 -404l172 534h27l174 -534l87 534l18 103q10 56 16 82q-39 -42 -96.5 -59t-156.5 -19l-6 10q34 37 34 72q0 25 -14.5 38.5t-37.5 13.5q-10 0 -38 -5l-1 15q19 7 42 7
q31 0 50.5 -17.5t19.5 -49.5q0 -37 -26 -66q92 2 143.5 22t89.5 69h23z" />
    <glyph glyph-name="uni0E1F0E4A" unicode="&#xe1f;&#xe4a;" horiz-adv-x="753" 
d="M716 775l-37 -216l-96 -559h-26l-175 537l-177 -537h-25l-66 428q-13 88 -48 133l20 5q35 -41 50 -137l60 -404l172 534h27l174 -534l87 534l18 103q5 34 15 70q-23 -33 -58 -48t-83 -15q-15 0 -27 2q8 29 8 60q0 32 -16 50.5t-44 18.5q-32 0 -51.5 -27.5t-19.5 -69.5
v-21l-20 -2v23q0 43 -17.5 70t-51.5 27q-29 0 -45 -19t-16 -52q0 -22 3.5 -38.5t4.5 -19.5h-19q-9 25 -9 58q0 40 20.5 64t59.5 24q38 0 56.5 -22t23.5 -52q6 29 26 51.5t57 22.5q38 0 58.5 -23.5t20.5 -61.5q0 -26 -7 -47h5q108 0 146 90h22z" />
    <glyph glyph-name="uni0E1F0E4B" unicode="&#xe1f;&#xe4b;" horiz-adv-x="753" 
d="M716 775l-37 -216l-96 -559h-26l-175 537l-177 -537h-25l-66 428q-13 88 -48 133l20 5q35 -41 50 -137l60 -404l172 534h27l174 -534l87 534l38 216h22zM627 738h-74v-67h-20v67h-76l2 17h74v60l20 2v-62h74v-17z" />
    <glyph glyph-name="uni0E1F0E4C" unicode="&#xe1f;&#xe4c;" horiz-adv-x="763" 
d="M802 723h-95l-28 -164l-96 -559h-26l-175 537l-177 -537h-25l-66 428q-13 88 -48 133l20 5q35 -41 50 -137l60 -404l172 534h27l174 -534l87 534l29 164h-73q-54 0 -54 -49q0 -22 3 -43h-19q-4 26 -4 45q0 32 19 49t54 17h77l6 33h22l-6 -33h92v-19z" />
    <glyph glyph-name="uni0E1F0E4D" unicode="&#xe1f;&#xe4d;" horiz-adv-x="753" 
d="M716 775l-37 -216l-96 -559h-26l-175 537l-177 -537h-25l-66 428q-13 88 -48 133l20 5q35 -41 50 -137l60 -404l172 534h27l174 -534l87 534l38 216h22zM601 799.5q21 -20.5 21 -55.5q0 -34 -21.5 -55.5t-55.5 -21.5q-35 0 -55.5 21t-20.5 56q0 34 21 55t55 21
q35 0 56 -20.5zM503.5 787q-14.5 -16 -14.5 -43q0 -28 14.5 -43.5t41.5 -15.5q28 0 42.5 15.5t14.5 43.5q0 27 -15 43t-42 16t-41.5 -16z" />
    <glyph glyph-name="uni0E310E4A" unicode="&#xe31;&#xe4a;" 
d="M-447.5 684q-26.5 16 -26.5 53q0 26 8 45h21q-8 -22 -8 -43q0 -28 20 -40t74 -12q32 0 83.5 8t98.5 23l5 -18q-51 -16 -104.5 -24t-86.5 -8q-58 0 -84.5 16zM-30 940q-24 -57 -63 -81.5t-97 -24.5q-19 0 -24 1q7 22 7 54q0 29 -14 45.5t-40 16.5q-29 0 -46.5 -25
t-17.5 -62v-19l-18 -2v21q0 39 -16 63t-46 24q-26 0 -40.5 -17t-14.5 -46q0 -27 8 -53h-18q-8 27 -8 52q0 36 19 58t53 22t50.5 -19.5t21.5 -46.5q5 26 23 46t51 20q35 0 53.5 -21t18.5 -56q0 -20 -6 -42h4q106 0 144 98z" />
    <glyph glyph-name="uni0620.init" unicode="&#x620;" horiz-adv-x="252" 
d="M181 8.5q17 -19.5 17 -47.5q0 -30 -20.5 -51t-52.5 -21q-31 0 -52.5 21t-21.5 51q0 24 14 43q-24 -4 -65 -4l-15 11l17 11q64 0 98 14t46.5 42t12.5 76q0 54 -9.5 105.5t-30.5 109.5l21 7q39 -112 39 -222q0 -45 -9.5 -74.5t-31.5 -47.5q26 -4 43 -23.5zM166 -79
q15 15 15 40t-15.5 40t-40.5 15t-40.5 -15t-15.5 -40q0 -24 15.5 -39.5t40.5 -15.5q26 0 41 15z" />
    <glyph glyph-name="uni0620.medi" unicode="&#x620;" horiz-adv-x="305" 
d="M320 11l-15 -11q-57 0 -98 26.5t-54 71.5q-9 -36 -36 -60q28 -3 46.5 -23.5t18.5 -48.5q0 -31 -20.5 -51.5t-52.5 -20.5t-53 21t-21 51q0 21 11 38q-19 -4 -46 -4l-15 11l17 11q70 0 105 32.5t35 91.5v160h20v-160q0 -58 39 -91t105 -33zM149.5 5.5
q-15.5 14.5 -40.5 14.5t-40.5 -15t-15.5 -39q0 -25 15.5 -40t40.5 -15q27 0 41.5 15t14.5 40t-15.5 39.5z" />
    <glyph glyph-name="uni0620.fina" unicode="&#x620;" horiz-adv-x="709" 
d="M709 0q-32 0 -57.5 6.5t-56.5 19.5q19 -19 19 -46q0 -38 -29.5 -74t-90 -61t-147.5 -31q27 -21 27 -57q0 -30 -20.5 -51t-52.5 -21t-53 21t-21 51q0 36 28 57q-100 10 -146 64t-46 140q0 87 36 173l16 -5q-32 -81 -32 -166q0 -87 51.5 -136.5t164.5 -49.5
q97 0 163.5 22.5t99.5 56.5t33 69q0 19 -13.5 34t-52.5 33t-120 45l9 19q54 -18 131 -50q55 -23 87.5 -32t74.5 -9l13 -11zM341.5 -203q-15.5 15 -40.5 15t-40.5 -15t-15.5 -40q0 -24 15.5 -39.5t40.5 -15.5q26 0 41 15t15 40t-15.5 40z" />
    <glyph glyph-name="uni063B.init" unicode="&#x63b;" horiz-adv-x="454" 
d="M389 718l-361 -255q153 -61 223 -123.5t70 -133.5q0 -103 -88.5 -154.5t-232.5 -51.5l-15 11l17 11q137 0 217.5 45.5t80.5 139.5q0 65 -69.5 125t-224.5 120l4 21l381 269zM-37 710.5q-5 4.5 -5 11.5t5 12t12 5t11.5 -5t4.5 -12t-4.5 -11.5t-11.5 -4.5t-12 4.5z
M85.5 710.5q-4.5 4.5 -4.5 11.5t4.5 12t11.5 5t12 -5t5 -12t-5 -11.5t-12 -4.5t-11.5 4.5z" />
    <glyph glyph-name="uni063B.medi" unicode="&#x63b;" horiz-adv-x="539" 
d="M553 12l-14 -12q-54 0 -94.5 20.5t-87.5 70.5t-127 155q8 -24 8 -55q0 -91 -59.5 -141t-178.5 -50l-15 11l17 11q110 0 163.5 45t53.5 128q0 62 -41 113l-116 144l4 21l382 269l-2 -24l-365 -257l142 -176q102 -126 145 -174t81 -68.5t92 -20.5zM15 710.5q-5 4.5 -5 11.5
t5 12t12 5t11.5 -5t4.5 -12t-4.5 -11.5t-11.5 -4.5t-12 4.5zM137.5 710.5q-4.5 4.5 -4.5 11.5t4.5 12t11.5 5t12 -5t5 -12t-5 -11.5t-12 -4.5t-11.5 4.5z" />
    <glyph glyph-name="uni063B.fina" unicode="&#x63b;" horiz-adv-x="971" 
d="M986 12l-15 -12q-54 0 -95 20.5t-87.5 71t-127.5 155.5q9 -24 9 -56q0 -67 -31 -111t-106 -68t-204 -24q-135 0 -200.5 43t-65.5 129q0 74 35 147l16 -6q-31 -68 -31 -139q0 -76 60.5 -114t187.5 -38q123 0 193 21.5t98.5 62t28.5 101.5t-41 113l-116 144l4 21l382 269
l-2 -24l-365 -257l142 -176q101 -125 145 -173.5t82 -69t91 -20.5zM443 710.5q-5 4.5 -5 11.5t5 12t12 5t11.5 -5t4.5 -12t-4.5 -11.5t-11.5 -4.5t-12 4.5zM565.5 710.5q-4.5 4.5 -4.5 11.5t4.5 12t11.5 5t12 -5t5 -12t-5 -11.5t-12 -4.5t-11.5 4.5z" />
    <glyph glyph-name="uni063C.init" unicode="&#x63c;" horiz-adv-x="454" 
d="M389 718l-361 -255q153 -61 223 -123.5t70 -133.5q0 -103 -88.5 -154.5t-232.5 -51.5l-15 11l17 11q137 0 217.5 45.5t80.5 139.5q0 65 -69.5 125t-224.5 120l4 21l381 269zM62.5 -150.5q-4.5 4.5 -4.5 10.5q0 7 4.5 11.5t11.5 4.5t11.5 -4.5t4.5 -11.5q0 -6 -4.5 -10.5
t-11.5 -4.5t-11.5 4.5zM186.5 -150.5q-4.5 4.5 -4.5 10.5q0 7 4.5 11.5t11.5 4.5t11.5 -4.5t4.5 -11.5q0 -6 -4.5 -10.5t-11.5 -4.5t-11.5 4.5zM124.5 -243.5q-4.5 4.5 -4.5 11.5t4.5 11.5t11.5 4.5t11.5 -4.5t4.5 -11.5t-4.5 -11.5t-11.5 -4.5t-11.5 4.5z" />
    <glyph glyph-name="uni063C.medi" unicode="&#x63c;" horiz-adv-x="539" 
d="M553 12l-14 -12q-54 0 -94.5 20.5t-87.5 70.5t-127 155q8 -24 8 -55q0 -91 -59.5 -141t-178.5 -50l-15 11l17 11q110 0 163.5 45t53.5 128q0 62 -41 113l-116 144l4 21l382 269l-2 -24l-365 -257l142 -176q102 -126 145 -174t81 -68.5t92 -20.5zM196.5 -150.5
q-4.5 4.5 -4.5 10.5q0 7 4.5 11.5t11.5 4.5t11.5 -4.5t4.5 -11.5q0 -6 -4.5 -10.5t-11.5 -4.5t-11.5 4.5zM320.5 -150.5q-4.5 4.5 -4.5 10.5q0 7 4.5 11.5t11.5 4.5t11.5 -4.5t4.5 -11.5q0 -6 -4.5 -10.5t-11.5 -4.5t-11.5 4.5zM258.5 -243.5q-4.5 4.5 -4.5 11.5t4.5 11.5
t11.5 4.5t11.5 -4.5t4.5 -11.5t-4.5 -11.5t-11.5 -4.5t-11.5 4.5z" />
    <glyph glyph-name="uni063C.fina" unicode="&#x63c;" horiz-adv-x="971" 
d="M986 12l-15 -12q-54 0 -95 20.5t-87.5 71t-127.5 155.5q9 -24 9 -56q0 -67 -31 -111t-106 -68t-204 -24q-135 0 -200.5 43t-65.5 129q0 74 35 147l16 -6q-31 -68 -31 -139q0 -76 60.5 -114t187.5 -38q123 0 193 21.5t98.5 62t28.5 101.5t-41 113l-116 144l4 21l382 269
l-2 -24l-365 -257l142 -176q101 -125 145 -173.5t82 -69t91 -20.5zM297.5 -150.5q-4.5 4.5 -4.5 10.5q0 7 4.5 11.5t11.5 4.5t11.5 -4.5t4.5 -11.5q0 -6 -4.5 -10.5t-11.5 -4.5t-11.5 4.5zM421.5 -150.5q-4.5 4.5 -4.5 10.5q0 7 4.5 11.5t11.5 4.5t11.5 -4.5t4.5 -11.5
q0 -6 -4.5 -10.5t-11.5 -4.5t-11.5 4.5zM359.5 -243.5q-4.5 4.5 -4.5 11.5t4.5 11.5t11.5 4.5t11.5 -4.5t4.5 -11.5t-4.5 -11.5t-11.5 -4.5t-11.5 4.5z" />
    <glyph glyph-name="uni066E.init" unicode="&#x66e;" horiz-adv-x="252" 
d="M100 36q34 14 46.5 42t12.5 76q0 54 -9.5 105.5t-30.5 109.5l21 7q39 -112 39 -222q0 -56 -15.5 -89t-54 -49t-109.5 -16l-15 11l17 11q64 0 98 14z" />
    <glyph glyph-name="uni066E.medi" unicode="&#x66e;" horiz-adv-x="305" 
d="M320 11l-15 -11q-57 0 -98 26.5t-54 71.5q-12 -46 -51.5 -72t-101.5 -26l-15 11l17 11q70 0 105 32.5t35 91.5v160h20v-160q0 -58 39 -91t105 -33z" />
    <glyph glyph-name="uni066E.fina" unicode="&#x66e;" horiz-adv-x="865" 
d="M879 12l-14 -12q-63 0 -96.5 28t-47.5 61q-136 -101 -392 -101q-135 0 -200.5 43t-65.5 129q0 74 35 147l16 -6q-31 -68 -31 -139q0 -76 60.5 -114t187.5 -38q126 0 223.5 26t157.5 73v197h20v-180q0 -20 12.5 -44t43 -42t79.5 -18z" />
    <glyph glyph-name="uni066F.init" unicode="&#x66f;" horiz-adv-x="448" 
d="M329.5 457.5q45.5 -67.5 45.5 -193.5q0 -94 -30.5 -150t-112 -85t-232.5 -29l-15 12l17 10q137 0 212.5 23t105.5 68t33 121q-24 -20 -61.5 -31.5t-73.5 -11.5q-77 0 -124 44.5t-47 116.5q0 45 20.5 84.5t57 64t81.5 24.5q78 0 123.5 -67.5zM292 223.5q37 10.5 62 27.5
v11q0 119 -39 180t-110 61q-40 0 -71.5 -21t-48.5 -55.5t-17 -72.5q0 -65 41 -103t114 -38q32 0 69 10.5z" />
    <glyph glyph-name="uni066F.medi" unicode="&#x66f;" horiz-adv-x="476" 
d="M490 11l-14 -11h-23q-54 0 -107.5 12t-100.5 35q-97 -47 -226 -47h-19l-15 11l17 11h19q116 0 202 36q-65 36 -102.5 87.5t-37.5 112.5q0 48 20.5 89t56 65t78.5 24q50 0 87 -24.5t57 -65.5t20 -91q0 -55 -35 -107.5t-100 -89.5q88 -36 186 -36h25zM141.5 148.5
q38.5 -48.5 103.5 -80.5q66 33 101.5 82t35.5 105q0 68 -38.5 113.5t-104.5 45.5q-39 0 -70 -20.5t-48.5 -56.5t-17.5 -79q0 -61 38.5 -109.5z" />
    <glyph glyph-name="uni066F.fina" unicode="&#x66f;" horiz-adv-x="752" 
d="M752 0h-115q-12 -111 -77 -173t-213 -62q-155 0 -219.5 54t-64.5 155q0 85 37 171l16 -5q-17 -42 -25 -81t-8 -84q0 -91 60 -139.5t207 -48.5q139 0 198 56t70 157h-105q-61 0 -106 21.5t-69 59t-24 85.5q0 46 20 85.5t56 63t82 23.5q78 0 123.5 -68.5t45.5 -194.5
q0 -36 -2 -53h115l12 -11zM620 22q1 17 1 51q0 119 -39.5 181t-109.5 62q-41 0 -72.5 -20.5t-48.5 -54.5t-17 -74q0 -66 48.5 -105.5t135.5 -39.5h100h2z" />
    <glyph glyph-name="uni0676.fina" unicode="&#x676;" horiz-adv-x="518" 
d="M390 556l-181 -29l-2 16l76 12q-58 35 -58 81q0 30 22.5 50t63.5 20q31 0 58 -15l-7 -13q-25 13 -51 13q-35 0 -52.5 -16t-17.5 -39q0 -22 16.5 -42t45.5 -36l85 14zM518 0h-115q-22 -96 -102 -156t-232 -85l-6 21q144 24 220.5 79t98.5 141h-91q-102 0 -154.5 44
t-52.5 118q0 45 21 85t57.5 64t80.5 24q76 0 122.5 -66t46.5 -185q0 -35 -4 -62h112l12 -11zM152 59.5q47 -37.5 144 -37.5h88h2q5 32 5 61q0 112 -40 171t-109 59q-39 0 -70.5 -20.5t-49 -55t-17.5 -73.5q0 -67 47 -104.5z" />
    <glyph glyph-name="uni0677.fina" unicode="&#x677;" horiz-adv-x="518" 
d="M518 0h-115q-22 -96 -102 -156t-232 -85l-6 21q144 24 220.5 79t98.5 141h-91q-102 0 -154.5 44t-52.5 118q0 45 21 85t57.5 64t80.5 24q76 0 122.5 -66t46.5 -185q0 -35 -4 -62h112l12 -11zM152 59.5q47 -37.5 144 -37.5h88h2q5 32 5 61q0 112 -40 171t-109 59
q-39 0 -70.5 -20.5t-49 -55t-17.5 -73.5q0 -67 47 -104.5zM339 436l-181 -29l-2 16l76 12q-58 35 -58 81q0 30 22.5 50t63.5 20q31 0 58 -15l-7 -13q-25 13 -51 13q-35 0 -52.5 -16t-17.5 -39q0 -22 16.5 -42t45.5 -36l85 14zM306.5 805q17.5 -21 17.5 -52q0 -40 -42.5 -79
t-106.5 -64l-6 14q59 24 94 53q-40 11 -58.5 32t-18.5 48q0 31 20.5 50t48.5 19q34 0 51.5 -21zM309 752q0 25 -13.5 42t-40.5 17q-23 0 -38.5 -15t-15.5 -40q0 -51 74 -69q34 32 34 65z" />
    <glyph glyph-name="uni0678.init" unicode="&#x678;" horiz-adv-x="252" 
d="M238 596l-181 -29l-2 16l76 12q-58 35 -58 81q0 30 22.5 50t63.5 20q31 0 58 -15l-7 -13q-25 13 -51 13q-35 0 -52.5 -16t-17.5 -39q0 -22 16.5 -42t45.5 -36l85 14zM100 36q34 14 46.5 42t12.5 76q0 54 -9.5 105.5t-30.5 109.5l21 7q39 -112 39 -222q0 -56 -15.5 -89
t-54 -49t-109.5 -16l-15 11l17 11q64 0 98 14z" />
    <glyph glyph-name="uni0678.medi" unicode="&#x678;" horiz-adv-x="305" 
d="M89 513l76 12q-58 35 -58 81q0 30 22.5 50t64.5 20q31 0 58 -15l-8 -13q-25 13 -50 13q-36 0 -53 -16t-17 -39q0 -22 16 -42t45 -36l86 14l2 -16l-182 -29zM320 11l-15 -11q-57 0 -98 26.5t-54 71.5q-12 -46 -51.5 -72t-101.5 -26l-15 11l17 11q70 0 105 32.5t35 91.5
v160h20v-160q0 -58 39 -91t105 -33z" />
    <glyph glyph-name="uni0678.fina" unicode="&#x678;" horiz-adv-x="709" 
d="M709 0q-32 0 -57.5 6.5t-56.5 19.5q19 -19 19 -46q0 -42 -35 -80.5t-107 -63t-175 -24.5q-121 0 -177.5 55.5t-56.5 150.5q0 87 36 173l16 -5q-32 -81 -32 -166q0 -87 51.5 -136.5t164.5 -49.5q97 0 163.5 22.5t99.5 56.5t33 69q0 19 -13.5 34t-52.5 33t-120 45l9 19
q54 -18 131 -50q55 -23 87.5 -32t74.5 -9l13 -11zM547 307l-181 -29l-2 16l76 12q-58 35 -58 81q0 30 22.5 50t63.5 20q31 0 58 -15l-7 -13q-25 13 -51 13q-35 0 -52.5 -16t-17.5 -39q0 -22 16.5 -42t45.5 -36l85 14z" />
    <glyph glyph-name="uni067C.init" unicode="&#x67c;" horiz-adv-x="262" 
d="M45 498.5q-5 4.5 -5 11.5t5 12t12 5t11.5 -5t4.5 -12t-4.5 -11.5t-11.5 -4.5t-12 4.5zM192 522q5 -5 5 -12t-5 -11.5t-12 -4.5t-11.5 4.5t-4.5 11.5t4.5 12t11.5 5t12 -5zM170 3.5q14 -18.5 14 -43.5q0 -31 -20.5 -51.5t-52.5 -20.5t-53 21t-21 51q0 24 13 42
q-30 -2 -50 -2l-15 11l17 11q64 0 98 14t46.5 42t12.5 76q0 54 -9.5 105.5t-30.5 109.5l21 7q39 -112 39 -222q0 -47 -10.5 -77.5t-35.5 -47.5q23 -7 37 -25.5zM152 -80q15 15 15 40t-15.5 39.5t-40.5 14.5h-8q-9 -4 -20 -6q-13 -7 -20.5 -19.5t-7.5 -28.5q0 -24 15 -39.5
t41 -15.5t41 15z" />
    <glyph glyph-name="uni067C.medi" unicode="&#x67c;" horiz-adv-x="305" 
d="M79 421.5q-5 4.5 -5 11.5t5 12t12 5t11.5 -5t4.5 -12t-4.5 -11.5t-11.5 -4.5t-12 4.5zM202.5 421.5q-4.5 4.5 -4.5 11.5t4.5 12t11.5 5t11.5 -5t4.5 -12t-4.5 -11.5t-11.5 -4.5t-11.5 4.5zM320 11l-15 -11q-57 0 -98 26.5t-54 71.5q-9 -36 -36 -60q28 -3 46.5 -23.5
t18.5 -48.5q0 -31 -20.5 -51.5t-52.5 -20.5t-53 21t-21 51q0 21 11 38q-19 -4 -46 -4l-15 11l17 11q70 0 105 32.5t35 91.5v160h20v-160q0 -58 39 -91t105 -33zM149.5 5.5q-15.5 14.5 -40.5 14.5t-40.5 -15t-15.5 -39q0 -25 15.5 -40t40.5 -15q27 0 41.5 15t14.5 40
t-15.5 39.5z" />
    <glyph glyph-name="uni067C.fina" unicode="&#x67c;" horiz-adv-x="865" 
d="M327 407.5q-5 4.5 -5 11.5t5 12t12 5t11.5 -5t4.5 -12t-4.5 -11.5t-11.5 -4.5t-12 4.5zM450.5 407.5q-4.5 4.5 -4.5 11.5t4.5 12t11.5 5t12 -5t5 -12t-5 -11.5t-12 -4.5t-11.5 4.5zM879 12l-14 -12q-63 0 -96.5 28t-47.5 61q-119 -88 -324 -99q29 -21 29 -58
q0 -30 -20.5 -51t-52.5 -21t-53 21t-21 51q0 35 27 56q-243 7 -243 172q0 74 35 147l16 -6q-31 -68 -31 -139q0 -76 60.5 -114t187.5 -38q126 0 223.5 26t157.5 73v197h20v-180q0 -20 12.5 -44t43 -42t79.5 -18zM393 -28.5q-16 15.5 -40 15.5q-25 0 -41 -15t-16 -40
q0 -24 15.5 -39.5t41.5 -15.5t41 15.5t15 39.5t-16 39.5z" />
    <glyph glyph-name="uni067D.init" unicode="&#x67d;" horiz-adv-x="252" 
d="M100 36q34 14 46.5 42t12.5 76q0 54 -9.5 105.5t-30.5 109.5l21 7q39 -112 39 -222q0 -56 -15.5 -89t-54 -49t-109.5 -16l-15 11l17 11q64 0 98 14zM45.5 576.5q-4.5 4.5 -4.5 10.5q0 7 4.5 11.5t11.5 4.5t11.5 -4.5t4.5 -11.5q0 -6 -4.5 -10.5t-11.5 -4.5t-11.5 4.5z
M169.5 576.5q-4.5 4.5 -4.5 10.5q0 7 4.5 11.5t11.5 4.5t11.5 -4.5t4.5 -11.5q0 -6 -4.5 -10.5t-11.5 -4.5t-11.5 4.5zM107.5 483.5q-4.5 4.5 -4.5 11.5t4.5 11.5t11.5 4.5t11.5 -4.5t4.5 -11.5t-4.5 -11.5t-11.5 -4.5t-11.5 4.5z" />
    <glyph glyph-name="uni067D.medi" unicode="&#x67d;" horiz-adv-x="305" 
d="M320 11l-15 -11q-57 0 -98 26.5t-54 71.5q-12 -46 -51.5 -72t-101.5 -26l-15 11l17 11q70 0 105 32.5t35 91.5v160h20v-160q0 -58 39 -91t105 -33zM78.5 499.5q-4.5 4.5 -4.5 10.5q0 7 4.5 11.5t11.5 4.5t11.5 -4.5t4.5 -11.5q0 -6 -4.5 -10.5t-11.5 -4.5t-11.5 4.5z
M202.5 499.5q-4.5 4.5 -4.5 10.5q0 7 4.5 11.5t11.5 4.5t11.5 -4.5t4.5 -11.5q0 -6 -4.5 -10.5t-11.5 -4.5t-11.5 4.5zM140.5 406.5q-4.5 4.5 -4.5 11.5t4.5 11.5t11.5 4.5t11.5 -4.5t4.5 -11.5t-4.5 -11.5t-11.5 -4.5t-11.5 4.5z" />
    <glyph glyph-name="uni067D.fina" unicode="&#x67d;" horiz-adv-x="865" 
d="M879 12l-14 -12q-63 0 -96.5 28t-47.5 61q-136 -101 -392 -101q-135 0 -200.5 43t-65.5 129q0 74 35 147l16 -6q-31 -68 -31 -139q0 -76 60.5 -114t187.5 -38q126 0 223.5 26t157.5 73v197h20v-180q0 -20 12.5 -44t43 -42t79.5 -18zM327.5 485.5q-4.5 4.5 -4.5 10.5
q0 7 4.5 11.5t11.5 4.5t11.5 -4.5t4.5 -11.5q0 -6 -4.5 -10.5t-11.5 -4.5t-11.5 4.5zM451.5 485.5q-4.5 4.5 -4.5 10.5q0 7 4.5 11.5t11.5 4.5t11.5 -4.5t4.5 -11.5q0 -6 -4.5 -10.5t-11.5 -4.5t-11.5 4.5zM389.5 392.5q-4.5 4.5 -4.5 11.5t4.5 11.5t11.5 4.5t11.5 -4.5
t4.5 -11.5t-4.5 -11.5t-11.5 -4.5t-11.5 4.5z" />
    <glyph glyph-name="uni0681.init" unicode="&#x681;" horiz-adv-x="687" 
d="M286.5 406.5q30.5 -11.5 53.5 -29t59 -49.5q56 -51 106.5 -84t130.5 -55l-3 -21l-27 -2q-93 -2 -167.5 -25t-170.5 -66q-85 -38 -143 -56.5t-125 -18.5l-15 12l17 11q64 0 121 18t138 55q95 42 167 64.5t164 25.5q-70 23 -116 53.5t-95 74.5q-47 42 -81 61.5t-84 19.5
q-31 0 -58 -8t-57 -26l-11 20q33 20 63.5 28.5t62.5 8.5q40 0 70.5 -11.5zM307 510l-181 -29l-2 16l76 12q-58 35 -58 81q0 30 22.5 50t63.5 20q31 0 58 -15l-7 -13q-25 13 -51 13q-35 0 -52.5 -16t-17.5 -39q0 -22 16.5 -42t45.5 -36l85 14z" />
    <glyph glyph-name="uni0681.medi" unicode="&#x681;" horiz-adv-x="744" 
d="M758 11l-14 -11q-200 0 -236 193q-49 -12 -97 -34t-111 -57q-93 -51 -159.5 -76.5t-140.5 -25.5l-15 11l17 11q70 0 131.5 24t152.5 72q92 49 153.5 73.5t133.5 28.5q-70 21 -115.5 47.5t-92.5 63.5q-44 34 -75 49.5t-76 15.5q-33 0 -60 -7.5t-60 -25.5l-10 19
q36 20 66 28t64 8q53 0 86.5 -16.5t80.5 -54.5q54 -43 104.5 -72t131.5 -51l-3 -19l-23 -1q-38 -2 -66 -7q19 -95 74.5 -135t146.5 -40zM306 511l-181 -29l-2 16l76 12q-58 35 -58 81q0 30 22.5 50t63.5 20q31 0 58 -15l-7 -13q-25 13 -51 13q-35 0 -52.5 -16t-17.5 -39
q0 -22 16.5 -42t45.5 -36l85 14z" />
    <glyph glyph-name="uni0681.fina" unicode="&#x681;" horiz-adv-x="701" 
d="M196 117.5q-95 -75.5 -95 -201.5q0 -66 32 -119.5t96 -85.5t157 -32q61 0 118 12.5t96 32.5l8 -20q-39 -20 -99.5 -33.5t-124.5 -13.5q-99 0 -167.5 35t-102 93.5t-33.5 130.5q0 147 118 229t332 90q-52 19 -88 42t-76 55q-42 34 -71.5 49t-72.5 15q-35 0 -62 -7.5
t-58 -26.5l-10 19q34 20 64 28.5t67 8.5q47 0 80 -17.5t78 -54.5q50 -40 93 -65.5t108 -42.5l-3 -19l-22 -1q-48 -2 -73 -4q15 -106 69 -149t149 -43l12 -11l-14 -11q-101 0 -160 49.5t-73 162.5q-177 -19 -272 -94.5zM314 510l-181 -29l-2 16l76 12q-58 35 -58 81
q0 30 22.5 50t63.5 20q31 0 58 -15l-7 -13q-25 13 -51 13q-35 0 -52.5 -16t-17.5 -39q0 -22 16.5 -42t45.5 -36l85 14z" />
    <glyph glyph-name="uni0682.init" unicode="&#x682;" horiz-adv-x="687" 
d="M286.5 406.5q30.5 -11.5 53.5 -29t59 -49.5q56 -51 106.5 -84t130.5 -55l-3 -21l-27 -2q-93 -2 -167.5 -25t-170.5 -66q-85 -38 -143 -56.5t-125 -18.5l-15 12l17 11q64 0 121 18t138 55q95 42 167 64.5t164 25.5q-70 23 -116 53.5t-95 74.5q-47 42 -81 61.5t-84 19.5
q-31 0 -58 -8t-57 -26l-11 20q33 20 63.5 28.5t62.5 8.5q40 0 70.5 -11.5zM204 613.5q-5 4.5 -5 11.5t5 12t11 5q7 0 11.5 -5t4.5 -12t-4.5 -11.5t-11.5 -4.5q-6 0 -11 4.5zM204 491q-5 5 -5 12t5 11.5t11 4.5q7 0 11.5 -4.5t4.5 -11.5t-4.5 -12t-11.5 -5q-6 0 -11 5z" />
    <glyph glyph-name="uni0682.medi" unicode="&#x682;" horiz-adv-x="744" 
d="M758 11l-14 -11q-200 0 -236 193q-49 -12 -97 -34t-111 -57q-93 -51 -159.5 -76.5t-140.5 -25.5l-15 11l17 11q70 0 131.5 24t152.5 72q92 49 153.5 73.5t133.5 28.5q-70 21 -115.5 47.5t-92.5 63.5q-44 34 -75 49.5t-76 15.5q-33 0 -60 -7.5t-60 -25.5l-10 19
q36 20 66 28t64 8q53 0 86.5 -16.5t80.5 -54.5q54 -43 104.5 -72t131.5 -51l-3 -19l-23 -1q-38 -2 -66 -7q19 -95 74.5 -135t146.5 -40zM204 614.5q-5 4.5 -5 11.5t5 12t11 5q7 0 11.5 -5t4.5 -12t-4.5 -11.5t-11.5 -4.5q-6 0 -11 4.5zM204 492q-5 5 -5 12t5 11.5t11 4.5
q7 0 11.5 -4.5t4.5 -11.5t-4.5 -12t-11.5 -5q-6 0 -11 5z" />
    <glyph glyph-name="uni0682.fina" unicode="&#x682;" horiz-adv-x="701" 
d="M196 117.5q-95 -75.5 -95 -201.5q0 -66 32 -119.5t96 -85.5t157 -32q61 0 118 12.5t96 32.5l8 -20q-39 -20 -99.5 -33.5t-124.5 -13.5q-99 0 -167.5 35t-102 93.5t-33.5 130.5q0 147 118 229t332 90q-52 19 -88 42t-76 55q-42 34 -71.5 49t-72.5 15q-35 0 -62 -7.5
t-58 -26.5l-10 19q34 20 64 28.5t67 8.5q47 0 80 -17.5t78 -54.5q50 -40 93 -65.5t108 -42.5l-3 -19l-22 -1q-48 -2 -73 -4q15 -106 69 -149t149 -43l12 -11l-14 -11q-101 0 -160 49.5t-73 162.5q-177 -19 -272 -94.5zM211 613.5q-5 4.5 -5 11.5t5 12t11 5q7 0 11.5 -5
t4.5 -12t-4.5 -11.5t-11.5 -4.5q-6 0 -11 4.5zM211 491q-5 5 -5 12t5 11.5t11 4.5q7 0 11.5 -4.5t4.5 -11.5t-4.5 -12t-11.5 -5q-6 0 -11 5z" />
    <glyph glyph-name="uni0685.init" unicode="&#x685;" horiz-adv-x="687" 
d="M286.5 406.5q30.5 -11.5 53.5 -29t59 -49.5q56 -51 106.5 -84t130.5 -55l-3 -21l-27 -2q-93 -2 -167.5 -25t-170.5 -66q-85 -38 -143 -56.5t-125 -18.5l-15 12l17 11q64 0 121 18t138 55q95 42 167 64.5t164 25.5q-70 23 -116 53.5t-95 74.5q-47 42 -81 61.5t-84 19.5
q-31 0 -58 -8t-57 -26l-11 20q33 20 63.5 28.5t62.5 8.5q40 0 70.5 -11.5zM204.5 575.5q-4.5 4.5 -4.5 11.5t4.5 11.5t11.5 4.5t11.5 -4.5t4.5 -11.5t-4.5 -11.5t-11.5 -4.5t-11.5 4.5zM142.5 483.5q-4.5 4.5 -4.5 11.5q0 6 4.5 10.5t11.5 4.5t11.5 -4.5t4.5 -10.5
q0 -7 -4.5 -11.5t-11.5 -4.5t-11.5 4.5zM266.5 483.5q-4.5 4.5 -4.5 11.5q0 6 4.5 10.5t11.5 4.5t11.5 -4.5t4.5 -10.5q0 -7 -4.5 -11.5t-11.5 -4.5t-11.5 4.5z" />
    <glyph glyph-name="uni0685.medi" unicode="&#x685;" horiz-adv-x="744" 
d="M758 11l-14 -11q-200 0 -236 193q-49 -12 -97 -34t-111 -57q-93 -51 -159.5 -76.5t-140.5 -25.5l-15 11l17 11q70 0 131.5 24t152.5 72q92 49 153.5 73.5t133.5 28.5q-70 21 -115.5 47.5t-92.5 63.5q-44 34 -75 49.5t-76 15.5q-33 0 -60 -7.5t-60 -25.5l-10 19
q36 20 66 28t64 8q53 0 86.5 -16.5t80.5 -54.5q54 -43 104.5 -72t131.5 -51l-3 -19l-23 -1q-38 -2 -66 -7q19 -95 74.5 -135t146.5 -40zM203.5 576.5q-4.5 4.5 -4.5 11.5t4.5 11.5t11.5 4.5t11.5 -4.5t4.5 -11.5t-4.5 -11.5t-11.5 -4.5t-11.5 4.5zM141.5 484.5
q-4.5 4.5 -4.5 11.5q0 6 4.5 10.5t11.5 4.5t11.5 -4.5t4.5 -10.5q0 -7 -4.5 -11.5t-11.5 -4.5t-11.5 4.5zM265.5 484.5q-4.5 4.5 -4.5 11.5q0 6 4.5 10.5t11.5 4.5t11.5 -4.5t4.5 -10.5q0 -7 -4.5 -11.5t-11.5 -4.5t-11.5 4.5z" />
    <glyph glyph-name="uni0685.fina" unicode="&#x685;" horiz-adv-x="701" 
d="M196 117.5q-95 -75.5 -95 -201.5q0 -66 32 -119.5t96 -85.5t157 -32q61 0 118 12.5t96 32.5l8 -20q-39 -20 -99.5 -33.5t-124.5 -13.5q-99 0 -167.5 35t-102 93.5t-33.5 130.5q0 147 118 229t332 90q-52 19 -88 42t-76 55q-42 34 -71.5 49t-72.5 15q-35 0 -62 -7.5
t-58 -26.5l-10 19q34 20 64 28.5t67 8.5q47 0 80 -17.5t78 -54.5q50 -40 93 -65.5t108 -42.5l-3 -19l-22 -1q-48 -2 -73 -4q15 -106 69 -149t149 -43l12 -11l-14 -11q-101 0 -160 49.5t-73 162.5q-177 -19 -272 -94.5zM211.5 575.5q-4.5 4.5 -4.5 11.5t4.5 11.5t11.5 4.5
t11.5 -4.5t4.5 -11.5t-4.5 -11.5t-11.5 -4.5t-11.5 4.5zM149.5 483.5q-4.5 4.5 -4.5 11.5q0 6 4.5 10.5t11.5 4.5t11.5 -4.5t4.5 -10.5q0 -7 -4.5 -11.5t-11.5 -4.5t-11.5 4.5zM273.5 483.5q-4.5 4.5 -4.5 11.5q0 6 4.5 10.5t11.5 4.5t11.5 -4.5t4.5 -10.5q0 -7 -4.5 -11.5
t-11.5 -4.5t-11.5 4.5z" />
    <glyph glyph-name="uni0689.fina" unicode="&#x689;" horiz-adv-x="505" 
d="M520 11l-15 -11q-48 0 -78 19.5t-46 57.5q-24 -32 -60.5 -53.5t-80.5 -29.5q33 -21 33 -61q0 -31 -20.5 -51.5t-52.5 -20.5t-53 21t-21 51q0 35 26 56q-56 3 -123 29l6 21q72 -28 146 -28q58 0 110 22.5t82 61.5l-148 370l22 10l141 -364q18 -48 44.5 -68.5t74.5 -20.5z
M240 -28q-16 15 -40 15q-25 0 -41 -15t-16 -39t15.5 -39.5t41.5 -15.5t41 15.5t15 39.5t-16 39z" />
    <glyph glyph-name="uni068A.fina" unicode="&#x68a;" horiz-adv-x="505" 
d="M520 11l-15 -11q-48 0 -78 19.5t-46 57.5q-32 -43 -85.5 -66t-116.5 -23q-42 0 -77 7.5t-73 22.5l6 21q72 -28 146 -28q58 0 110 22.5t82 61.5l-148 370l22 10l141 -364q18 -48 44.5 -68.5t74.5 -20.5zM188 -149q-5 5 -5 12t5 12t12 5t12 -5t5 -12t-5 -12t-12 -5t-12 5z
" />
    <glyph glyph-name="uni068B.fina" unicode="&#x68b;" horiz-adv-x="505" 
d="M520 11l-15 -11q-48 0 -78 19.5t-46 57.5q-32 -43 -85.5 -66t-116.5 -23q-42 0 -77 7.5t-73 22.5l6 21q72 -28 146 -28q58 0 110 22.5t82 61.5l-148 370l22 10l141 -364q18 -48 44.5 -68.5t74.5 -20.5zM188 -149q-5 5 -5 12t5 12t12 5t12 -5t5 -12t-5 -12t-12 -5t-12 5z
M263 683.5q18 -19.5 18 -50.5q0 -30 -22 -51t-66 -21h-140l2 15h20q4 8 19 33v149h15v-126q50 71 106 71q30 0 48 -19.5zM247 592q19 16 19 42q0 24 -14 38.5t-39 14.5q-62 0 -121 -111h98q38 0 57 16z" />
    <glyph glyph-name="uni068F.fina" unicode="&#x68f;" horiz-adv-x="505" 
d="M520 11l-15 -11q-48 0 -78 19.5t-46 57.5q-32 -43 -85.5 -66t-116.5 -23q-42 0 -77 7.5t-73 22.5l6 21q72 -28 146 -28q58 0 110 22.5t82 61.5l-148 370l22 10l141 -364q18 -48 44.5 -68.5t74.5 -20.5zM93.5 683.5q-4.5 4.5 -4.5 10.5q0 7 4.5 11.5t11.5 4.5t11.5 -4.5
t4.5 -11.5q0 -6 -4.5 -10.5t-11.5 -4.5t-11.5 4.5zM217.5 683.5q-4.5 4.5 -4.5 10.5q0 7 4.5 11.5t11.5 4.5t11.5 -4.5t4.5 -11.5q0 -6 -4.5 -10.5t-11.5 -4.5t-11.5 4.5zM155.5 590.5q-4.5 4.5 -4.5 11.5t4.5 11.5t11.5 4.5t11.5 -4.5t4.5 -11.5t-4.5 -11.5t-11.5 -4.5
t-11.5 4.5z" />
    <glyph glyph-name="uni0690.fina" unicode="&#x690;" horiz-adv-x="505" 
d="M520 11l-15 -11q-48 0 -78 19.5t-46 57.5q-32 -43 -85.5 -66t-116.5 -23q-42 0 -77 7.5t-73 22.5l6 21q72 -28 146 -28q58 0 110 22.5t82 61.5l-148 370l22 10l141 -364q18 -48 44.5 -68.5t74.5 -20.5zM95 674.5q-4 4.5 -4 10.5q0 7 4 11.5t11 4.5t11.5 -4.5t4.5 -11.5
q0 -6 -4.5 -10.5t-11.5 -4.5t-11 4.5zM216.5 674.5q-4.5 4.5 -4.5 10.5q0 7 4.5 11.5t11.5 4.5t11 -4.5t4 -11.5q0 -6 -4 -10.5t-11 -4.5t-11.5 4.5zM95 562.5q-4 4.5 -4 10.5q0 7 4 11.5t11 4.5t11.5 -4.5t4.5 -11.5q0 -6 -4.5 -10.5t-11.5 -4.5t-11 4.5zM216.5 562.5
q-4.5 4.5 -4.5 10.5q0 7 4.5 11.5t11.5 4.5t11 -4.5t4 -11.5q0 -6 -4 -10.5t-11 -4.5t-11.5 4.5z" />
    <glyph glyph-name="uni0692.fina" unicode="&#x692;" horiz-adv-x="356" 
d="M371 11l-15 -11q-77 0 -99 67q-2 -113 -65 -187t-205 -122l-9 21q140 46 200.5 117t60.5 177q0 101 -38 223l20 7q22 -80 33 -171q6 -56 31.5 -83t73.5 -27zM197 420l72 124l13 -6l-77 -137h-16l-77 137l13 6z" />
    <glyph glyph-name="uni0693.fina" unicode="&#x693;" horiz-adv-x="356" 
d="M371 11l-15 -11q-77 0 -99 67q-2 -113 -65 -187t-205 -122l-9 21q140 46 200.5 117t60.5 177q0 101 -38 223l20 7q22 -80 33 -171q6 -56 31.5 -83t73.5 -27zM153 -266q-21 21 -21 51q0 31 21 51.5t53 20.5q31 0 52 -20.5t21 -51.5t-20.5 -51.5t-52.5 -20.5t-53 21z
M247 -255q15 15 15 40t-15.5 39.5t-40.5 14.5t-40.5 -14.5t-15.5 -39.5q0 -24 15 -39.5t41 -15.5t41 15z" />
    <glyph glyph-name="uni0694.fina" unicode="&#x694;" horiz-adv-x="356" 
d="M371 11l-15 -11q-77 0 -99 67q-2 -113 -65 -187t-205 -122l-9 21q140 46 200.5 117t60.5 177q0 101 -38 223l20 7q22 -80 33 -171q6 -56 31.5 -83t73.5 -27zM175 -319q-5 5 -5 12t5 12t12 5t12 -5t5 -12t-5 -12t-12 -5t-12 5z" />
    <glyph glyph-name="uni0695.fina" unicode="&#x695;" horiz-adv-x="356" 
d="M371 11l-15 -11q-77 0 -99 67q-2 -113 -65 -187t-205 -122l-9 21q140 46 200.5 117t60.5 177q0 101 -38 223l20 7q22 -80 33 -171q6 -56 31.5 -83t73.5 -27zM187 -368l72 124l13 -6l-77 -137h-16l-77 137l13 6z" />
    <glyph glyph-name="uni0696.fina" unicode="&#x696;" horiz-adv-x="356" 
d="M371 11l-15 -11q-77 0 -99 67q-2 -113 -65 -187t-205 -122l-9 21q140 46 200.5 117t60.5 177q0 101 -38 223l20 7q22 -80 33 -171q6 -56 31.5 -83t73.5 -27zM175 -319q-5 5 -5 12t5 12t12 5t12 -5t5 -12t-5 -12t-12 -5t-12 5zM185 421q-5 5 -5 12t5 12t12 5t12 -5t5 -12
t-5 -12t-12 -5t-12 5z" />
    <glyph glyph-name="uni0697.fina" unicode="&#x697;" horiz-adv-x="356" 
d="M371 11l-15 -11q-77 0 -99 67q-2 -113 -65 -187t-205 -122l-9 21q140 46 200.5 117t60.5 177q0 101 -38 223l20 7q22 -80 33 -171q6 -56 31.5 -83t73.5 -27zM124 452.5q-5 4.5 -5 11.5t5 12t12 5t11.5 -5t4.5 -12t-4.5 -11.5t-11.5 -4.5t-12 4.5zM246.5 452.5
q-4.5 4.5 -4.5 11.5t4.5 12t11.5 5t12 -5t5 -12t-5 -11.5t-12 -4.5t-11.5 4.5z" />
    <glyph glyph-name="uni0699.fina" unicode="&#x699;" horiz-adv-x="356" 
d="M371 11l-15 -11q-77 0 -99 67q-2 -113 -65 -187t-205 -122l-9 21q140 46 200.5 117t60.5 177q0 101 -38 223l20 7q22 -80 33 -171q6 -56 31.5 -83t73.5 -27zM125 521.5q-4 4.5 -4 10.5q0 7 4 11.5t11 4.5t11.5 -4.5t4.5 -11.5q0 -6 -4.5 -10.5t-11.5 -4.5t-11 4.5z
M246.5 521.5q-4.5 4.5 -4.5 10.5q0 7 4.5 11.5t11.5 4.5t11 -4.5t4 -11.5q0 -6 -4 -10.5t-11 -4.5t-11.5 4.5zM125 409.5q-4 4.5 -4 10.5q0 7 4 11.5t11 4.5t11.5 -4.5t4.5 -11.5q0 -6 -4.5 -10.5t-11.5 -4.5t-11 4.5zM246.5 409.5q-4.5 4.5 -4.5 10.5q0 7 4.5 11.5
t11.5 4.5t11 -4.5t4 -11.5q0 -6 -4 -10.5t-11 -4.5t-11.5 4.5z" />
    <glyph glyph-name="uni069A.init" unicode="&#x69a;" horiz-adv-x="794" 
d="M721 156q0 -78 -36 -117t-103 -39q-55 0 -91 25.5t-46 69.5q-10 -44 -42.5 -69.5t-87.5 -25.5q-57 0 -91 25t-43 69q-25 -94 -181 -94l-15 11l17 11q88 0 128.5 30.5t40.5 89.5v164h21v-159q0 -125 124 -125q58 0 87.5 33t29.5 92v159h21v-159q0 -60 34.5 -92.5
t95.5 -32.5q116 0 116 132q0 103 -39 214l20 7q40 -111 40 -219zM437 -149q-5 5 -5 12t5 12t12 5t12 -5t5 -12t-5 -12t-12 -5t-12 5zM432 384q-5 5 -5 12t5 12t12 5t12 -5t5 -12t-5 -12t-12 -5t-12 5z" />
    <glyph glyph-name="uni069A.medi" unicode="&#x69a;" horiz-adv-x="912" 
d="M926 11l-14 -11q-78 0 -123 22.5t-58 71.5q-13 -46 -48 -70t-88 -24q-56 0 -92.5 25.5t-47.5 69.5q-10 -44 -43 -69.5t-88 -25.5q-56 0 -92.5 25.5t-45.5 69.5q-28 -95 -186 -95l-15 11l17 11q86 0 129.5 31.5t43.5 88.5v164h21v-159q0 -60 33.5 -92.5t94.5 -32.5
q60 0 90 32.5t30 92.5v159h21v-159q0 -60 34.5 -92.5t95.5 -32.5q59 0 90.5 31.5t31.5 92.5v220h21v-199q0 -80 41 -112.5t135 -32.5zM442 -149q-5 5 -5 12t5 12t12 5t12 -5t5 -12t-5 -12t-12 -5t-12 5zM442 390q-5 5 -5 12t5 12t12 5t12 -5t5 -12t-5 -12t-12 -5t-12 5z" />
    <glyph glyph-name="uni069A.fina" unicode="&#x69a;" horiz-adv-x="1277" 
d="M1292 11l-15 -11q-79 0 -123 22.5t-57 72.5q-13 -47 -49 -71t-89 -24t-89 25t-47 68q-10 -43 -42.5 -68t-86.5 -25q-84 0 -114 58q0 -154 -66 -223.5t-217 -69.5q-121 0 -177.5 55.5t-56.5 150.5q0 87 36 173l16 -6q-32 -79 -32 -166q0 -86 51.5 -135.5t164.5 -49.5
q96 0 153.5 28.5t83 87.5t25.5 153q0 42 -12.5 89.5t-39.5 126.5l21 9q32 -106 46 -169q11 -44 38.5 -67t81.5 -23q57 0 86 32.5t29 92.5v159h21v-159q0 -61 34 -93t93 -32q60 0 92 32t32 92l-1 204h21v-183q1 -80 41.5 -112.5t134.5 -32.5zM810 -149q-5 5 -5 12t5 12t12 5
t12 -5t5 -12t-5 -12t-12 -5t-12 5zM810 390q-5 5 -5 12t5 12t12 5t12 -5t5 -12t-5 -12t-12 -5t-12 5z" />
    <glyph glyph-name="uni069B.init" unicode="&#x69b;" horiz-adv-x="794" 
d="M721 156q0 -78 -36 -117t-103 -39q-55 0 -91 25.5t-46 69.5q-10 -44 -42.5 -69.5t-87.5 -25.5q-57 0 -91 25t-43 69q-25 -94 -181 -94l-15 11l17 11q88 0 128.5 30.5t40.5 89.5v164h21v-159q0 -125 124 -125q58 0 87.5 33t29.5 92v159h21v-159q0 -60 34.5 -92.5
t95.5 -32.5q116 0 116 132q0 103 -39 214l20 7q40 -111 40 -219zM375.5 -150.5q-4.5 4.5 -4.5 10.5q0 7 4.5 11.5t11.5 4.5t11.5 -4.5t4.5 -11.5q0 -6 -4.5 -10.5t-11.5 -4.5t-11.5 4.5zM499.5 -150.5q-4.5 4.5 -4.5 10.5q0 7 4.5 11.5t11.5 4.5t11.5 -4.5t4.5 -11.5
q0 -6 -4.5 -10.5t-11.5 -4.5t-11.5 4.5zM437.5 -243.5q-4.5 4.5 -4.5 11.5t4.5 11.5t11.5 4.5t11.5 -4.5t4.5 -11.5t-4.5 -11.5t-11.5 -4.5t-11.5 4.5z" />
    <glyph glyph-name="uni069B.medi" unicode="&#x69b;" horiz-adv-x="912" 
d="M926 11l-14 -11q-78 0 -123 22.5t-58 71.5q-13 -46 -48 -70t-88 -24q-56 0 -92.5 25.5t-47.5 69.5q-10 -44 -43 -69.5t-88 -25.5q-56 0 -92.5 25.5t-45.5 69.5q-28 -95 -186 -95l-15 11l17 11q86 0 129.5 31.5t43.5 88.5v164h21v-159q0 -60 33.5 -92.5t94.5 -32.5
q60 0 90 32.5t30 92.5v159h21v-159q0 -60 34.5 -92.5t95.5 -32.5q59 0 90.5 31.5t31.5 92.5v220h21v-199q0 -80 41 -112.5t135 -32.5zM380.5 -150.5q-4.5 4.5 -4.5 10.5q0 7 4.5 11.5t11.5 4.5t11.5 -4.5t4.5 -11.5q0 -6 -4.5 -10.5t-11.5 -4.5t-11.5 4.5zM504.5 -150.5
q-4.5 4.5 -4.5 10.5q0 7 4.5 11.5t11.5 4.5t11.5 -4.5t4.5 -11.5q0 -6 -4.5 -10.5t-11.5 -4.5t-11.5 4.5zM442.5 -243.5q-4.5 4.5 -4.5 11.5t4.5 11.5t11.5 4.5t11.5 -4.5t4.5 -11.5t-4.5 -11.5t-11.5 -4.5t-11.5 4.5z" />
    <glyph glyph-name="uni069B.fina" unicode="&#x69b;" horiz-adv-x="1277" 
d="M1292 11l-15 -11q-79 0 -123 22.5t-57 72.5q-13 -47 -49 -71t-89 -24t-89 25t-47 68q-10 -43 -42.5 -68t-86.5 -25q-84 0 -114 58q0 -154 -66 -223.5t-217 -69.5q-121 0 -177.5 55.5t-56.5 150.5q0 87 36 173l16 -6q-32 -79 -32 -166q0 -86 51.5 -135.5t164.5 -49.5
q96 0 153.5 28.5t83 87.5t25.5 153q0 42 -12.5 89.5t-39.5 126.5l21 9q32 -106 46 -169q11 -44 38.5 -67t81.5 -23q57 0 86 32.5t29 92.5v159h21v-159q0 -61 34 -93t93 -32q60 0 92 32t32 92l-1 204h21v-183q1 -80 41.5 -112.5t134.5 -32.5zM748.5 -150.5
q-4.5 4.5 -4.5 10.5q0 7 4.5 11.5t11.5 4.5t11.5 -4.5t4.5 -11.5q0 -6 -4.5 -10.5t-11.5 -4.5t-11.5 4.5zM872.5 -150.5q-4.5 4.5 -4.5 10.5q0 7 4.5 11.5t11.5 4.5t11.5 -4.5t4.5 -11.5q0 -6 -4.5 -10.5t-11.5 -4.5t-11.5 4.5zM810.5 -243.5q-4.5 4.5 -4.5 11.5t4.5 11.5
t11.5 4.5t11.5 -4.5t4.5 -11.5t-4.5 -11.5t-11.5 -4.5t-11.5 4.5z" />
    <glyph glyph-name="uni069C.init" unicode="&#x69c;" horiz-adv-x="794" 
d="M721 156q0 -78 -36 -117t-103 -39q-55 0 -91 25.5t-46 69.5q-10 -44 -42.5 -69.5t-87.5 -25.5q-57 0 -91 25t-43 69q-25 -94 -181 -94l-15 11l17 11q88 0 128.5 30.5t40.5 89.5v164h21v-159q0 -125 124 -125q58 0 87.5 33t29.5 92v159h21v-159q0 -60 34.5 -92.5
t95.5 -32.5q116 0 116 132q0 103 -39 214l20 7q40 -111 40 -219zM432.5 470.5q-4.5 4.5 -4.5 11.5t4.5 11.5t11.5 4.5t11.5 -4.5t4.5 -11.5t-4.5 -11.5t-11.5 -4.5t-11.5 4.5zM370.5 378.5q-4.5 4.5 -4.5 11.5q0 6 4.5 10.5t11.5 4.5t11.5 -4.5t4.5 -10.5q0 -7 -4.5 -11.5
t-11.5 -4.5t-11.5 4.5zM494.5 378.5q-4.5 4.5 -4.5 11.5q0 6 4.5 10.5t11.5 4.5t11.5 -4.5t4.5 -10.5q0 -7 -4.5 -11.5t-11.5 -4.5t-11.5 4.5zM375.5 -150.5q-4.5 4.5 -4.5 10.5q0 7 4.5 11.5t11.5 4.5t11.5 -4.5t4.5 -11.5q0 -6 -4.5 -10.5t-11.5 -4.5t-11.5 4.5z
M499.5 -150.5q-4.5 4.5 -4.5 10.5q0 7 4.5 11.5t11.5 4.5t11.5 -4.5t4.5 -11.5q0 -6 -4.5 -10.5t-11.5 -4.5t-11.5 4.5zM437.5 -243.5q-4.5 4.5 -4.5 11.5t4.5 11.5t11.5 4.5t11.5 -4.5t4.5 -11.5t-4.5 -11.5t-11.5 -4.5t-11.5 4.5z" />
    <glyph glyph-name="uni069C.medi" unicode="&#x69c;" horiz-adv-x="912" 
d="M926 11l-14 -11q-78 0 -123 22.5t-58 71.5q-13 -46 -48 -70t-88 -24q-56 0 -92.5 25.5t-47.5 69.5q-10 -44 -43 -69.5t-88 -25.5q-56 0 -92.5 25.5t-45.5 69.5q-28 -95 -186 -95l-15 11l17 11q86 0 129.5 31.5t43.5 88.5v164h21v-159q0 -60 33.5 -92.5t94.5 -32.5
q60 0 90 32.5t30 92.5v159h21v-159q0 -60 34.5 -92.5t95.5 -32.5q59 0 90.5 31.5t31.5 92.5v220h21v-199q0 -80 41 -112.5t135 -32.5zM442.5 476.5q-4.5 4.5 -4.5 11.5t4.5 11.5t11.5 4.5t11.5 -4.5t4.5 -11.5t-4.5 -11.5t-11.5 -4.5t-11.5 4.5zM380.5 384.5
q-4.5 4.5 -4.5 11.5q0 6 4.5 10.5t11.5 4.5t11.5 -4.5t4.5 -10.5q0 -7 -4.5 -11.5t-11.5 -4.5t-11.5 4.5zM504.5 384.5q-4.5 4.5 -4.5 11.5q0 6 4.5 10.5t11.5 4.5t11.5 -4.5t4.5 -10.5q0 -7 -4.5 -11.5t-11.5 -4.5t-11.5 4.5zM380.5 -150.5q-4.5 4.5 -4.5 10.5
q0 7 4.5 11.5t11.5 4.5t11.5 -4.5t4.5 -11.5q0 -6 -4.5 -10.5t-11.5 -4.5t-11.5 4.5zM504.5 -150.5q-4.5 4.5 -4.5 10.5q0 7 4.5 11.5t11.5 4.5t11.5 -4.5t4.5 -11.5q0 -6 -4.5 -10.5t-11.5 -4.5t-11.5 4.5zM442.5 -243.5q-4.5 4.5 -4.5 11.5t4.5 11.5t11.5 4.5t11.5 -4.5
t4.5 -11.5t-4.5 -11.5t-11.5 -4.5t-11.5 4.5z" />
    <glyph glyph-name="uni069C.fina" unicode="&#x69c;" horiz-adv-x="1277" 
d="M1292 11l-15 -11q-79 0 -123 22.5t-57 72.5q-13 -47 -49 -71t-89 -24t-89 25t-47 68q-10 -43 -42.5 -68t-86.5 -25q-84 0 -114 58q0 -154 -66 -223.5t-217 -69.5q-121 0 -177.5 55.5t-56.5 150.5q0 87 36 173l16 -6q-32 -79 -32 -166q0 -86 51.5 -135.5t164.5 -49.5
q96 0 153.5 28.5t83 87.5t25.5 153q0 42 -12.5 89.5t-39.5 126.5l21 9q32 -106 46 -169q11 -44 38.5 -67t81.5 -23q57 0 86 32.5t29 92.5v159h21v-159q0 -61 34 -93t93 -32q60 0 92 32t32 92l-1 204h21v-183q1 -80 41.5 -112.5t134.5 -32.5zM810.5 476.5q-4.5 4.5 -4.5 11.5
t4.5 11.5t11.5 4.5t11.5 -4.5t4.5 -11.5t-4.5 -11.5t-11.5 -4.5t-11.5 4.5zM748.5 384.5q-4.5 4.5 -4.5 11.5q0 6 4.5 10.5t11.5 4.5t11.5 -4.5t4.5 -10.5q0 -7 -4.5 -11.5t-11.5 -4.5t-11.5 4.5zM872.5 384.5q-4.5 4.5 -4.5 11.5q0 6 4.5 10.5t11.5 4.5t11.5 -4.5
t4.5 -10.5q0 -7 -4.5 -11.5t-11.5 -4.5t-11.5 4.5zM748.5 -150.5q-4.5 4.5 -4.5 10.5q0 7 4.5 11.5t11.5 4.5t11.5 -4.5t4.5 -11.5q0 -6 -4.5 -10.5t-11.5 -4.5t-11.5 4.5zM872.5 -150.5q-4.5 4.5 -4.5 10.5q0 7 4.5 11.5t11.5 4.5t11.5 -4.5t4.5 -11.5q0 -6 -4.5 -10.5
t-11.5 -4.5t-11.5 4.5zM810.5 -243.5q-4.5 4.5 -4.5 11.5t4.5 11.5t11.5 4.5t11.5 -4.5t4.5 -11.5t-4.5 -11.5t-11.5 -4.5t-11.5 4.5z" />
    <glyph glyph-name="uni069D.init" unicode="&#x69d;" horiz-adv-x="911" 
d="M789.5 360q48.5 -56 48.5 -156q0 -81 -35.5 -125t-116.5 -61.5t-227 -17.5h-163q-56 0 -96 26t-52 71q-11 -46 -49 -71.5t-99 -25.5l-15 11l17 11q67 0 101 31.5t34 90.5v221h21v-221q0 -55 34.5 -87t94.5 -35q55 181 147 287.5t208 106.5q99 0 147.5 -56zM674.5 38
q76.5 16 110 55t33.5 111q0 189 -175 189q-109 0 -193.5 -97.5t-142.5 -273.5h152q139 0 215.5 16zM74 -153.5q-5 4.5 -5 11.5t5 12t12 5t11.5 -5t4.5 -12t-4.5 -11.5t-11.5 -4.5t-12 4.5zM196.5 -153.5q-4.5 4.5 -4.5 11.5t4.5 12t11.5 5t12 -5t5 -12t-5 -11.5t-12 -4.5
t-11.5 4.5z" />
    <glyph glyph-name="uni069D.medi" unicode="&#x69d;" horiz-adv-x="950" 
d="M965 11l-15 -11q-94 0 -151 75q-37 -42 -117 -58.5t-223 -16.5h-163q-56 0 -96 26t-52 71q-11 -46 -49 -71.5t-99 -25.5l-15 11l17 11q67 0 101 31.5t34 90.5v221h21v-221q0 -55 34.5 -87t94.5 -35q55 181 147 287.5t208 106.5q99 0 147.5 -56t48.5 -156q0 -73 -27 -114
q25 -34 59 -51t82 -17zM674.5 38q76.5 16 110 55t33.5 111q0 189 -175 189q-109 0 -193.5 -97.5t-142.5 -273.5h152q139 0 215.5 16zM74 -153.5q-5 4.5 -5 11.5t5 12t12 5t11.5 -5t4.5 -12t-4.5 -11.5t-11.5 -4.5t-12 4.5zM196.5 -153.5q-4.5 4.5 -4.5 11.5t4.5 12t11.5 5
t12 -5t5 -12t-5 -11.5t-12 -4.5t-11.5 4.5z" />
    <glyph glyph-name="uni069D.fina" unicode="&#x69d;" horiz-adv-x="1349" 
d="M1363 11l-14 -11q-93 0 -152 75q-37 -42 -117 -58.5t-223 -16.5h-163v3q-84 0 -114 58q0 -154 -66 -223.5t-217 -69.5q-121 0 -177.5 55.5t-56.5 150.5q0 87 36 172l16 -5q-32 -79 -32 -166t51.5 -136t164.5 -49q96 0 153.5 28.5t83 87.5t25.5 153q0 42 -12.5 89.5
t-39.5 126.5l21 9q32 -106 46 -169q10 -42 35.5 -65t75.5 -25q56 179 147 285t206 106q99 0 148 -56t49 -156q0 -71 -28 -114q26 -34 60 -51t82 -17zM1072.5 38q76.5 16 110 55t33.5 111q0 189 -174 189q-110 0 -194.5 -97.5t-142.5 -273.5h152q139 0 215.5 16zM239 -375.5
q-5 4.5 -5 11.5t5 12t12 5t11.5 -5t4.5 -12t-4.5 -11.5t-11.5 -4.5t-12 4.5zM361.5 -375.5q-4.5 4.5 -4.5 11.5t4.5 12t11.5 5t12 -5t5 -12t-5 -11.5t-12 -4.5t-11.5 4.5z" />
    <glyph glyph-name="uni069E.init" unicode="&#x69e;" horiz-adv-x="911" 
d="M594.5 560q-4.5 5 -4.5 11q0 7 4.5 11.5t11.5 4.5t11.5 -4.5t4.5 -11.5q0 -6 -4.5 -11t-11.5 -5t-11.5 5zM532.5 467.5q-4.5 4.5 -4.5 11.5q0 6 4.5 10.5t11.5 4.5t11.5 -4.5t4.5 -10.5q0 -7 -4.5 -11.5t-11.5 -4.5t-11.5 4.5zM656.5 467.5q-4.5 4.5 -4.5 11.5
q0 6 4.5 10.5t11.5 4.5t11.5 -4.5t4.5 -10.5q0 -7 -4.5 -11.5t-11.5 -4.5t-11.5 4.5zM789.5 360q48.5 -56 48.5 -156q0 -81 -35.5 -125t-116.5 -61.5t-227 -17.5h-163q-56 0 -96 26t-52 71q-11 -46 -49 -71.5t-99 -25.5l-15 11l17 11q67 0 101 31.5t34 90.5v221h21v-221
q0 -55 34.5 -87t94.5 -35q55 181 147 287.5t208 106.5q99 0 147.5 -56zM674.5 38q76.5 16 110 55t33.5 111q0 189 -175 189q-109 0 -193.5 -97.5t-142.5 -273.5h152q139 0 215.5 16z" />
    <glyph glyph-name="uni069E.medi" unicode="&#x69e;" horiz-adv-x="950" 
d="M594.5 560q-4.5 5 -4.5 11q0 7 4.5 11.5t11.5 4.5t11.5 -4.5t4.5 -11.5q0 -6 -4.5 -11t-11.5 -5t-11.5 5zM532.5 467.5q-4.5 4.5 -4.5 11.5q0 6 4.5 10.5t11.5 4.5t11.5 -4.5t4.5 -10.5q0 -7 -4.5 -11.5t-11.5 -4.5t-11.5 4.5zM656.5 467.5q-4.5 4.5 -4.5 11.5
q0 6 4.5 10.5t11.5 4.5t11.5 -4.5t4.5 -10.5q0 -7 -4.5 -11.5t-11.5 -4.5t-11.5 4.5zM965 11l-15 -11q-94 0 -151 75q-37 -42 -117 -58.5t-223 -16.5h-163q-56 0 -96 26t-52 71q-11 -46 -49 -71.5t-99 -25.5l-15 11l17 11q67 0 101 31.5t34 90.5v221h21v-221q0 -55 34.5 -87
t94.5 -35q55 181 147 287.5t208 106.5q99 0 147.5 -56t48.5 -156q0 -73 -27 -114q25 -34 59 -51t82 -17zM674.5 38q76.5 16 110 55t33.5 111q0 189 -175 189q-109 0 -193.5 -97.5t-142.5 -273.5h152q139 0 215.5 16z" />
    <glyph glyph-name="uni069E.fina" unicode="&#x69e;" horiz-adv-x="1349" 
d="M992.5 560q-4.5 5 -4.5 11q0 7 4.5 11.5t11.5 4.5t11.5 -4.5t4.5 -11.5q0 -6 -4.5 -11t-11.5 -5t-11.5 5zM930.5 467.5q-4.5 4.5 -4.5 11.5q0 6 4.5 10.5t11.5 4.5t11.5 -4.5t4.5 -10.5q0 -7 -4.5 -11.5t-11.5 -4.5t-11.5 4.5zM1055.5 467.5q-4.5 4.5 -4.5 11.5
q0 6 4.5 10.5t11.5 4.5t11.5 -4.5t4.5 -10.5q0 -7 -4.5 -11.5t-11.5 -4.5t-11.5 4.5zM1363 11l-14 -11q-93 0 -152 75q-37 -42 -117 -58.5t-223 -16.5h-163v3q-84 0 -114 58q0 -154 -66 -223.5t-217 -69.5q-121 0 -177.5 55.5t-56.5 150.5q0 87 36 172l16 -5
q-32 -79 -32 -166t51.5 -136t164.5 -49q96 0 153.5 28.5t83 87.5t25.5 153q0 42 -12.5 89.5t-39.5 126.5l21 9q32 -106 46 -169q10 -42 35.5 -65t75.5 -25q56 179 147 285t206 106q99 0 148 -56t49 -156q0 -71 -28 -114q26 -34 60 -51t82 -17zM1072.5 38q76.5 16 110 55
t33.5 111q0 189 -174 189q-110 0 -194.5 -97.5t-142.5 -273.5h152q139 0 215.5 16z" />
    <glyph glyph-name="uni069F.init" unicode="&#x69f;" horiz-adv-x="819" 
d="M699 360q49 -56 49 -156q0 -81 -36 -125t-117 -61.5t-227 -17.5h-368l-15 11l17 11h195q14 50 38 107v603l21 3v-560q56 114 131.5 177.5t163.5 63.5q99 0 148 -56zM583.5 38q76.5 16 110 55t33.5 111q0 189 -175 189q-109 0 -193.5 -97.5t-142.5 -273.5h152
q139 0 215.5 16zM490.5 559.5q-4.5 4.5 -4.5 11.5t4.5 11.5t11.5 4.5t11.5 -4.5t4.5 -11.5t-4.5 -11.5t-11.5 -4.5t-11.5 4.5zM428.5 467.5q-4.5 4.5 -4.5 11.5q0 6 4.5 10.5t11.5 4.5t11.5 -4.5t4.5 -10.5q0 -7 -4.5 -11.5t-11.5 -4.5t-11.5 4.5zM552.5 467.5
q-4.5 4.5 -4.5 11.5q0 6 4.5 10.5t11.5 4.5t11.5 -4.5t4.5 -10.5q0 -7 -4.5 -11.5t-11.5 -4.5t-11.5 4.5z" />
    <glyph glyph-name="uni069F.medi" unicode="&#x69f;" horiz-adv-x="859" 
d="M874 11l-15 -11q-92 0 -151 75q-37 -42 -117 -58.5t-223 -16.5h-368l-15 11l17 11h195q14 50 38 107v603l21 3v-560q56 114 131.5 177.5t163.5 63.5q99 0 148 -56t49 -156q0 -71 -28 -114q26 -34 60 -51t82 -17zM583.5 38q76.5 16 110 55t33.5 111q0 189 -175 189
q-109 0 -193.5 -97.5t-142.5 -273.5h152q139 0 215.5 16zM490.5 559.5q-4.5 4.5 -4.5 11.5t4.5 11.5t11.5 4.5t11.5 -4.5t4.5 -11.5t-4.5 -11.5t-11.5 -4.5t-11.5 4.5zM428.5 467.5q-4.5 4.5 -4.5 11.5q0 6 4.5 10.5t11.5 4.5t11.5 -4.5t4.5 -10.5q0 -7 -4.5 -11.5
t-11.5 -4.5t-11.5 4.5zM552.5 467.5q-4.5 4.5 -4.5 11.5q0 6 4.5 10.5t11.5 4.5t11.5 -4.5t4.5 -10.5q0 -7 -4.5 -11.5t-11.5 -4.5t-11.5 4.5z" />
    <glyph glyph-name="uni069F.fina" unicode="&#x69f;" horiz-adv-x="834" 
d="M848 11l-14 -11q-93 0 -152 75q-37 -42 -117 -58.5t-223 -16.5h-300l4 22h125q16 55 38 106v604l21 3v-561q57 114 131.5 178t163.5 64q99 0 148 -56t49 -156q0 -71 -28 -114q26 -34 60 -51t82 -17zM557.5 38q76.5 16 110 55t33.5 111q0 189 -174 189
q-110 0 -194.5 -97.5t-142.5 -273.5h152q139 0 215.5 16zM465.5 559.5q-4.5 4.5 -4.5 11.5t4.5 11.5t11.5 4.5t11.5 -4.5t4.5 -11.5t-4.5 -11.5t-11.5 -4.5t-11.5 4.5zM403.5 467.5q-4.5 4.5 -4.5 11.5q0 6 4.5 10.5t11.5 4.5t11.5 -4.5t4.5 -10.5q0 -7 -4.5 -11.5
t-11.5 -4.5t-11.5 4.5zM527.5 467.5q-4.5 4.5 -4.5 11.5q0 6 4.5 10.5t11.5 4.5t11.5 -4.5t4.5 -10.5q0 -7 -4.5 -11.5t-11.5 -4.5t-11.5 4.5z" />
    <glyph glyph-name="uni06A0.init" unicode="&#x6a0;" horiz-adv-x="523" 
d="M497 51q-129 -31 -212 -41t-213 -10h-72l-15 11l17 11h65q104 0 162 5q-78 42 -117.5 92.5t-39.5 112.5q0 44 20.5 81.5t62 60.5t101.5 23q32 0 68 -9.5t67 -27.5l-10 -20q-29 17 -62.5 26t-62.5 9q-80 0 -121.5 -41.5t-41.5 -101.5t40.5 -109t127.5 -94q50 5 100.5 15
t132.5 29zM244.5 554.5q-4.5 4.5 -4.5 11.5t4.5 11.5t11.5 4.5t11.5 -4.5t4.5 -11.5t-4.5 -11.5t-11.5 -4.5t-11.5 4.5zM182.5 462.5q-4.5 4.5 -4.5 11.5q0 6 4.5 10.5t11.5 4.5t11.5 -4.5t4.5 -10.5q0 -7 -4.5 -11.5t-11.5 -4.5t-11.5 4.5zM306.5 462.5q-4.5 4.5 -4.5 11.5
q0 6 4.5 10.5t11.5 4.5t11.5 -4.5t4.5 -10.5q0 -7 -4.5 -11.5t-11.5 -4.5t-11.5 4.5z" />
    <glyph glyph-name="uni06A0.medi" unicode="&#x6a0;" horiz-adv-x="534" 
d="M549 10l-15 -10h-16q-120 0 -221 83q-69 -38 -147.5 -60.5t-131.5 -22.5h-18l-15 10l17 12h12q52 0 126.5 20t140.5 54q-30 28 -66 65q-44 45 -79.5 78t-86.5 70l2 22q55 22 106.5 35t110.5 13q88 0 136 -30t48 -81q0 -48 -36.5 -92.5t-98.5 -80.5q47 -38 94 -55.5
t111 -17.5h14zM145.5 255.5q32.5 -29.5 76.5 -72.5q45 -45 80 -75q60 34 95 74.5t35 84.5q0 43 -42 66.5t-122 23.5q-100 0 -197 -41q42 -31 74.5 -60.5zM256.5 542.5q-4.5 4.5 -4.5 11.5t4.5 11.5t11.5 4.5t11.5 -4.5t4.5 -11.5t-4.5 -11.5t-11.5 -4.5t-11.5 4.5z
M194.5 450.5q-4.5 4.5 -4.5 11.5q0 6 4.5 10.5t11.5 4.5t11.5 -4.5t4.5 -10.5q0 -7 -4.5 -11.5t-11.5 -4.5t-11.5 4.5zM318.5 450.5q-4.5 4.5 -4.5 11.5q0 6 4.5 10.5t11.5 4.5t11.5 -4.5t4.5 -10.5q0 -7 -4.5 -11.5t-11.5 -4.5t-11.5 4.5z" />
    <glyph glyph-name="uni06A0.fina" unicode="&#x6a0;" horiz-adv-x="550" 
d="M131.5 14q-47.5 -56 -47.5 -135q0 -56 30.5 -101.5t89.5 -72t140 -26.5q58 0 108 11t88 31l8 -20q-38 -20 -91 -32t-115 -12q-87 0 -150 30t-96 80t-33 111q0 85 50 146.5t142 99.5l-40 39q-44 44 -78 75.5t-84 70.5l2 22q116 48 226 48q176 0 176 -107q0 -47 -39 -82.5
t-123 -71.5q63 -54 112 -75t121 -21h23l13 -11l-14 -11h-25q-71 0 -128.5 25.5t-123.5 82.5l-0.5 0.5l-0.5 0.5q-93 -39 -140.5 -95zM150.5 253.5q33.5 -30.5 75.5 -71.5q19 -19 51 -49q84 33 122 65t38 72q0 43 -38 65t-118 22q-104 0 -206 -41q42 -32 75.5 -62.5z
M261.5 544.5q-4.5 4.5 -4.5 11.5t4.5 11.5t11.5 4.5t11.5 -4.5t4.5 -11.5t-4.5 -11.5t-11.5 -4.5t-11.5 4.5zM199.5 452.5q-4.5 4.5 -4.5 11.5q0 6 4.5 10.5t11.5 4.5t11.5 -4.5t4.5 -10.5q0 -7 -4.5 -11.5t-11.5 -4.5t-11.5 4.5zM323.5 452.5q-4.5 4.5 -4.5 11.5
q0 6 4.5 10.5t11.5 4.5t11.5 -4.5t4.5 -10.5q0 -7 -4.5 -11.5t-11.5 -4.5t-11.5 4.5z" />
    <glyph glyph-name="uni06A1.init" unicode="&#x6a1;" horiz-adv-x="448" 
d="M329.5 457.5q45.5 -67.5 45.5 -193.5q0 -94 -30.5 -150t-112 -85t-232.5 -29l-15 12l17 10q137 0 212.5 23t105.5 68t33 121q-24 -20 -61.5 -31.5t-73.5 -11.5q-77 0 -124 44.5t-47 116.5q0 45 20.5 84.5t57 64t81.5 24.5q78 0 123.5 -67.5zM292 223.5q37 10.5 62 27.5
v11q0 119 -39 180t-110 61q-40 0 -71.5 -21t-48.5 -55.5t-17 -72.5q0 -65 41 -103t114 -38q32 0 69 10.5z" />
    <glyph glyph-name="uni06A1.medi" unicode="&#x6a1;" horiz-adv-x="476" 
d="M490 11l-14 -11h-23q-54 0 -107.5 12t-100.5 35q-97 -47 -226 -47h-19l-15 11l17 11h19q116 0 202 36q-65 36 -102.5 87.5t-37.5 112.5q0 48 20.5 89t56 65t78.5 24q50 0 87 -24.5t57 -65.5t20 -91q0 -55 -35 -107.5t-100 -89.5q88 -36 186 -36h25zM141.5 148.5
q38.5 -48.5 103.5 -80.5q66 33 101.5 82t35.5 105q0 68 -38.5 113.5t-104.5 45.5q-39 0 -70 -20.5t-48.5 -56.5t-17.5 -79q0 -61 38.5 -109.5z" />
    <glyph glyph-name="uni06A1.fina" unicode="&#x6a1;" horiz-adv-x="955" 
d="M970 11l-15 -11h-23q-56 0 -112.5 13.5t-104.5 38.5q-143 -64 -386 -64q-135 0 -200.5 43t-65.5 129q0 74 35 147l16 -6q-31 -68 -31 -139q0 -76 60.5 -114t187.5 -38q226 0 363 53q-61 36 -96.5 86.5t-35.5 110.5q0 49 20.5 90.5t56 65.5t79.5 24q50 0 87 -24.5t57 -66
t20 -91.5q0 -54 -35.5 -106t-109.5 -90q91 -40 195 -40h25zM618 153q36 -48 98 -81q75 34 110 82.5t35 103.5q0 69 -38.5 114.5t-104.5 45.5q-39 0 -70 -21t-48.5 -57t-17.5 -80q0 -59 36 -107z" />
    <glyph glyph-name="uni06A2.init" unicode="&#x6a2;" horiz-adv-x="448" 
d="M329.5 457.5q45.5 -67.5 45.5 -193.5q0 -94 -30.5 -150t-112 -85t-232.5 -29l-15 12l17 10q137 0 212.5 23t105.5 68t33 121q-24 -20 -61.5 -31.5t-73.5 -11.5q-77 0 -124 44.5t-47 116.5q0 45 20.5 84.5t57 64t81.5 24.5q78 0 123.5 -67.5zM292 223.5q37 10.5 62 27.5
v11q0 119 -39 180t-110 61q-40 0 -71.5 -21t-48.5 -55.5t-17 -72.5q0 -65 41 -103t114 -38q32 0 69 10.5zM187 -149q-5 5 -5 12t5 12t12 5t12 -5t5 -12t-5 -12t-12 -5t-12 5z" />
    <glyph glyph-name="uni06A2.medi" unicode="&#x6a2;" horiz-adv-x="476" 
d="M490 11l-14 -11h-23q-54 0 -107.5 12t-100.5 35q-97 -47 -226 -47h-19l-15 11l17 11h19q116 0 202 36q-65 36 -102.5 87.5t-37.5 112.5q0 48 20.5 89t56 65t78.5 24q50 0 87 -24.5t57 -65.5t20 -91q0 -55 -35 -107.5t-100 -89.5q88 -36 186 -36h25zM141.5 148.5
q38.5 -48.5 103.5 -80.5q66 33 101.5 82t35.5 105q0 68 -38.5 113.5t-104.5 45.5q-39 0 -70 -20.5t-48.5 -56.5t-17.5 -79q0 -61 38.5 -109.5zM231 -149q-5 5 -5 12t5 12t12 5t12 -5t5 -12t-5 -12t-12 -5t-12 5z" />
    <glyph glyph-name="uni06A2.fina" unicode="&#x6a2;" horiz-adv-x="955" 
d="M970 11l-15 -11h-23q-56 0 -112.5 13.5t-104.5 38.5q-143 -64 -386 -64q-135 0 -200.5 43t-65.5 129q0 74 35 147l16 -6q-31 -68 -31 -139q0 -76 60.5 -114t187.5 -38q226 0 363 53q-61 36 -96.5 86.5t-35.5 110.5q0 49 20.5 90.5t56 65.5t79.5 24q50 0 87 -24.5t57 -66
t20 -91.5q0 -54 -35.5 -106t-109.5 -90q91 -40 195 -40h25zM618 153q36 -48 98 -81q75 34 110 82.5t35 103.5q0 69 -38.5 114.5t-104.5 45.5q-39 0 -70 -21t-48.5 -57t-17.5 -80q0 -59 36 -107zM710 -149q-5 5 -5 12t5 12t12 5t12 -5t5 -12t-5 -12t-12 -5t-12 5z" />
    <glyph glyph-name="uni06A3.init" unicode="&#x6a3;" horiz-adv-x="448" 
d="M329.5 457.5q45.5 -67.5 45.5 -193.5q0 -94 -30.5 -150t-112 -85t-232.5 -29l-15 12l17 10q137 0 212.5 23t105.5 68t33 121q-24 -20 -61.5 -31.5t-73.5 -11.5q-77 0 -124 44.5t-47 116.5q0 45 20.5 84.5t57 64t81.5 24.5q78 0 123.5 -67.5zM292 223.5q37 10.5 62 27.5
v11q0 119 -39 180t-110 61q-40 0 -71.5 -21t-48.5 -55.5t-17 -72.5q0 -65 41 -103t114 -38q32 0 69 10.5zM193 603q-5 5 -5 12t5 12t12 5t12 -5t5 -12t-5 -12t-12 -5t-12 5zM199 -149q-5 5 -5 12t5 12t12 5t12 -5t5 -12t-5 -12t-12 -5t-12 5z" />
    <glyph glyph-name="uni06A3.medi" unicode="&#x6a3;" horiz-adv-x="476" 
d="M490 11l-14 -11h-23q-54 0 -107.5 12t-100.5 35q-97 -47 -226 -47h-19l-15 11l17 11h19q116 0 202 36q-65 36 -102.5 87.5t-37.5 112.5q0 48 20.5 89t56 65t78.5 24q50 0 87 -24.5t57 -65.5t20 -91q0 -55 -35 -107.5t-100 -89.5q88 -36 186 -36h25zM141.5 148.5
q38.5 -48.5 103.5 -80.5q66 33 101.5 82t35.5 105q0 68 -38.5 113.5t-104.5 45.5q-39 0 -70 -20.5t-48.5 -56.5t-17.5 -79q0 -61 38.5 -109.5zM226 511q-5 5 -5 12t5 12t12 5t12 -5t5 -12t-5 -12t-12 -5t-12 5zM233 -149q-5 5 -5 12t5 12t12 5t12 -5t5 -12t-5 -12t-12 -5
t-12 5z" />
    <glyph glyph-name="uni06A3.fina" unicode="&#x6a3;" horiz-adv-x="955" 
d="M970 11l-15 -11h-23q-56 0 -112.5 13.5t-104.5 38.5q-143 -64 -386 -64q-135 0 -200.5 43t-65.5 129q0 74 35 147l16 -6q-31 -68 -31 -139q0 -76 60.5 -114t187.5 -38q226 0 363 53q-61 36 -96.5 86.5t-35.5 110.5q0 49 20.5 90.5t56 65.5t79.5 24q50 0 87 -24.5t57 -66
t20 -91.5q0 -54 -35.5 -106t-109.5 -90q91 -40 195 -40h25zM618 153q36 -48 98 -81q75 34 110 82.5t35 103.5q0 69 -38.5 114.5t-104.5 45.5q-39 0 -70 -21t-48.5 -57t-17.5 -80q0 -59 36 -107zM706 513q-5 5 -5 12t5 12t12 5t12 -5t5 -12t-5 -12t-12 -5t-12 5zM703 -149
q-5 5 -5 12t5 12t12 5t12 -5t5 -12t-5 -12t-12 -5t-12 5z" />
    <glyph glyph-name="uni06A5.init" unicode="&#x6a5;" horiz-adv-x="448" 
d="M329.5 457.5q45.5 -67.5 45.5 -193.5q0 -94 -30.5 -150t-112 -85t-232.5 -29l-15 12l17 10q137 0 212.5 23t105.5 68t33 121q-24 -20 -61.5 -31.5t-73.5 -11.5q-77 0 -124 44.5t-47 116.5q0 45 20.5 84.5t57 64t81.5 24.5q78 0 123.5 -67.5zM292 223.5q37 10.5 62 27.5
v11q0 119 -39 180t-110 61q-40 0 -71.5 -21t-48.5 -55.5t-17 -72.5q0 -65 41 -103t114 -38q32 0 69 10.5zM125.5 -150.5q-4.5 4.5 -4.5 10.5q0 7 4.5 11.5t11.5 4.5t11.5 -4.5t4.5 -11.5q0 -6 -4.5 -10.5t-11.5 -4.5t-11.5 4.5zM249.5 -150.5q-4.5 4.5 -4.5 10.5
q0 7 4.5 11.5t11.5 4.5t11.5 -4.5t4.5 -11.5q0 -6 -4.5 -10.5t-11.5 -4.5t-11.5 4.5zM187.5 -243.5q-4.5 4.5 -4.5 11.5t4.5 11.5t11.5 4.5t11.5 -4.5t4.5 -11.5t-4.5 -11.5t-11.5 -4.5t-11.5 4.5z" />
    <glyph glyph-name="uni06A5.medi" unicode="&#x6a5;" horiz-adv-x="476" 
d="M490 11l-14 -11h-23q-54 0 -107.5 12t-100.5 35q-97 -47 -226 -47h-19l-15 11l17 11h19q116 0 202 36q-65 36 -102.5 87.5t-37.5 112.5q0 48 20.5 89t56 65t78.5 24q50 0 87 -24.5t57 -65.5t20 -91q0 -55 -35 -107.5t-100 -89.5q88 -36 186 -36h25zM141.5 148.5
q38.5 -48.5 103.5 -80.5q66 33 101.5 82t35.5 105q0 68 -38.5 113.5t-104.5 45.5q-39 0 -70 -20.5t-48.5 -56.5t-17.5 -79q0 -61 38.5 -109.5zM169.5 -150.5q-4.5 4.5 -4.5 10.5q0 7 4.5 11.5t11.5 4.5t11.5 -4.5t4.5 -11.5q0 -6 -4.5 -10.5t-11.5 -4.5t-11.5 4.5z
M293.5 -150.5q-4.5 4.5 -4.5 10.5q0 7 4.5 11.5t11.5 4.5t11.5 -4.5t4.5 -11.5q0 -6 -4.5 -10.5t-11.5 -4.5t-11.5 4.5zM231.5 -243.5q-4.5 4.5 -4.5 11.5t4.5 11.5t11.5 4.5t11.5 -4.5t4.5 -11.5t-4.5 -11.5t-11.5 -4.5t-11.5 4.5z" />
    <glyph glyph-name="uni06A5.fina" unicode="&#x6a5;" horiz-adv-x="955" 
d="M970 11l-15 -11h-23q-56 0 -112.5 13.5t-104.5 38.5q-143 -64 -386 -64q-135 0 -200.5 43t-65.5 129q0 74 35 147l16 -6q-31 -68 -31 -139q0 -76 60.5 -114t187.5 -38q226 0 363 53q-61 36 -96.5 86.5t-35.5 110.5q0 49 20.5 90.5t56 65.5t79.5 24q50 0 87 -24.5t57 -66
t20 -91.5q0 -54 -35.5 -106t-109.5 -90q91 -40 195 -40h25zM618 153q36 -48 98 -81q75 34 110 82.5t35 103.5q0 69 -38.5 114.5t-104.5 45.5q-39 0 -70 -21t-48.5 -57t-17.5 -80q0 -59 36 -107zM648.5 -150.5q-4.5 4.5 -4.5 10.5q0 7 4.5 11.5t11.5 4.5t11.5 -4.5t4.5 -11.5
q0 -6 -4.5 -10.5t-11.5 -4.5t-11.5 4.5zM772.5 -150.5q-4.5 4.5 -4.5 10.5q0 7 4.5 11.5t11.5 4.5t11.5 -4.5t4.5 -11.5q0 -6 -4.5 -10.5t-11.5 -4.5t-11.5 4.5zM710.5 -243.5q-4.5 4.5 -4.5 11.5t4.5 11.5t11.5 4.5t11.5 -4.5t4.5 -11.5t-4.5 -11.5t-11.5 -4.5t-11.5 4.5z
" />
    <glyph glyph-name="uni06A7.init" unicode="&#x6a7;" horiz-adv-x="448" 
d="M329.5 457.5q45.5 -67.5 45.5 -193.5q0 -94 -30.5 -150t-112 -85t-232.5 -29l-15 12l17 10q137 0 212.5 23t105.5 68t33 121q-24 -20 -61.5 -31.5t-73.5 -11.5q-77 0 -124 44.5t-47 116.5q0 45 20.5 84.5t57 64t81.5 24.5q78 0 123.5 -67.5zM292 223.5q37 10.5 62 27.5
v11q0 119 -39 180t-110 61q-40 0 -71.5 -21t-48.5 -55.5t-17 -72.5q0 -65 41 -103t114 -38q32 0 69 10.5zM193 603q-5 5 -5 12t5 12t12 5t12 -5t5 -12t-5 -12t-12 -5t-12 5z" />
    <glyph glyph-name="uni06A7.medi" unicode="&#x6a7;" horiz-adv-x="476" 
d="M490 11l-14 -11h-23q-54 0 -107.5 12t-100.5 35q-97 -47 -226 -47h-19l-15 11l17 11h19q116 0 202 36q-65 36 -102.5 87.5t-37.5 112.5q0 48 20.5 89t56 65t78.5 24q50 0 87 -24.5t57 -65.5t20 -91q0 -55 -35 -107.5t-100 -89.5q88 -36 186 -36h25zM141.5 148.5
q38.5 -48.5 103.5 -80.5q66 33 101.5 82t35.5 105q0 68 -38.5 113.5t-104.5 45.5q-39 0 -70 -20.5t-48.5 -56.5t-17.5 -79q0 -61 38.5 -109.5zM226 511q-5 5 -5 12t5 12t12 5t12 -5t5 -12t-5 -12t-12 -5t-12 5z" />
    <glyph glyph-name="uni06A7.fina" unicode="&#x6a7;" horiz-adv-x="752" 
d="M752 0h-115q-12 -111 -77 -173t-213 -62q-155 0 -219.5 54t-64.5 155q0 85 37 171l16 -5q-17 -42 -25 -81t-8 -84q0 -91 60 -139.5t207 -48.5q139 0 198 56t70 157h-105q-61 0 -106 21.5t-69 59t-24 85.5q0 46 20 85.5t56 63t82 23.5q78 0 123.5 -68.5t45.5 -194.5
q0 -36 -2 -53h115l12 -11zM620 22q1 17 1 51q0 119 -39.5 181t-109.5 62q-41 0 -72.5 -20.5t-48.5 -54.5t-17 -74q0 -66 48.5 -105.5t135.5 -39.5h100h2zM461 413q-5 5 -5 12t5 12t12 5t12 -5t5 -12t-5 -12t-12 -5t-12 5z" />
    <glyph glyph-name="uni06A8.init" unicode="&#x6a8;" horiz-adv-x="448" 
d="M329.5 457.5q45.5 -67.5 45.5 -193.5q0 -94 -30.5 -150t-112 -85t-232.5 -29l-15 12l17 10q137 0 212.5 23t105.5 68t33 121q-24 -20 -61.5 -31.5t-73.5 -11.5q-77 0 -124 44.5t-47 116.5q0 45 20.5 84.5t57 64t81.5 24.5q78 0 123.5 -67.5zM292 223.5q37 10.5 62 27.5
v11q0 119 -39 180t-110 61q-40 0 -71.5 -21t-48.5 -55.5t-17 -72.5q0 -65 41 -103t114 -38q32 0 69 10.5zM193.5 689.5q-4.5 4.5 -4.5 11.5t4.5 11.5t11.5 4.5t11.5 -4.5t4.5 -11.5t-4.5 -11.5t-11.5 -4.5t-11.5 4.5zM131.5 597.5q-4.5 4.5 -4.5 11.5q0 6 4.5 10.5t11.5 4.5
t11.5 -4.5t4.5 -10.5q0 -7 -4.5 -11.5t-11.5 -4.5t-11.5 4.5zM255.5 597.5q-4.5 4.5 -4.5 11.5q0 6 4.5 10.5t11.5 4.5t11.5 -4.5t4.5 -10.5q0 -7 -4.5 -11.5t-11.5 -4.5t-11.5 4.5z" />
    <glyph glyph-name="uni06A8.medi" unicode="&#x6a8;" horiz-adv-x="476" 
d="M490 11l-14 -11h-23q-54 0 -107.5 12t-100.5 35q-97 -47 -226 -47h-19l-15 11l17 11h19q116 0 202 36q-65 36 -102.5 87.5t-37.5 112.5q0 48 20.5 89t56 65t78.5 24q50 0 87 -24.5t57 -65.5t20 -91q0 -55 -35 -107.5t-100 -89.5q88 -36 186 -36h25zM141.5 148.5
q38.5 -48.5 103.5 -80.5q66 33 101.5 82t35.5 105q0 68 -38.5 113.5t-104.5 45.5q-39 0 -70 -20.5t-48.5 -56.5t-17.5 -79q0 -61 38.5 -109.5zM226.5 597.5q-4.5 4.5 -4.5 11.5t4.5 11.5t11.5 4.5t11.5 -4.5t4.5 -11.5t-4.5 -11.5t-11.5 -4.5t-11.5 4.5zM164.5 505.5
q-4.5 4.5 -4.5 11.5q0 6 4.5 10.5t11.5 4.5t11.5 -4.5t4.5 -10.5q0 -7 -4.5 -11.5t-11.5 -4.5t-11.5 4.5zM288.5 505.5q-4.5 4.5 -4.5 11.5q0 6 4.5 10.5t11.5 4.5t11.5 -4.5t4.5 -10.5q0 -7 -4.5 -11.5t-11.5 -4.5t-11.5 4.5z" />
    <glyph glyph-name="uni06A8.fina" unicode="&#x6a8;" horiz-adv-x="752" 
d="M752 0h-115q-12 -111 -77 -173t-213 -62q-155 0 -219.5 54t-64.5 155q0 85 37 171l16 -5q-17 -42 -25 -81t-8 -84q0 -91 60 -139.5t207 -48.5q139 0 198 56t70 157h-105q-61 0 -106 21.5t-69 59t-24 85.5q0 46 20 85.5t56 63t82 23.5q78 0 123.5 -68.5t45.5 -194.5
q0 -36 -2 -53h115l12 -11zM620 22q1 17 1 51q0 119 -39.5 181t-109.5 62q-41 0 -72.5 -20.5t-48.5 -54.5t-17 -74q0 -66 48.5 -105.5t135.5 -39.5h100h2zM461.5 499.5q-4.5 4.5 -4.5 11.5t4.5 11.5t11.5 4.5t11.5 -4.5t4.5 -11.5t-4.5 -11.5t-11.5 -4.5t-11.5 4.5z
M399.5 407.5q-4.5 4.5 -4.5 11.5q0 6 4.5 10.5t11.5 4.5t11.5 -4.5t4.5 -10.5q0 -7 -4.5 -11.5t-11.5 -4.5t-11.5 4.5zM523.5 407.5q-4.5 4.5 -4.5 11.5q0 6 4.5 10.5t11.5 4.5t11.5 -4.5t4.5 -10.5q0 -7 -4.5 -11.5t-11.5 -4.5t-11.5 4.5z" />
    <glyph glyph-name="uni06AA.init" unicode="&#x6aa;" horiz-adv-x="1156" 
d="M1014.5 266q68.5 -40 68.5 -103q0 -39 -27 -64t-71 -42q-156 -57 -559 -57h-426l-15 12l17 10h419q275 0 417 22t184.5 52.5t42.5 65.5q0 53 -64 89t-199 36q-110 0 -270 -12q-144 -10 -219 -10q-137 0 -211 13l2 18q25 98 102.5 177.5t191.5 106.5l-2 -22
q-103 -26 -176 -98.5t-96 -163.5q81 -12 192 -12q76 0 220 10q160 12 266 12q144 0 212.5 -40z" />
    <glyph glyph-name="uni06AA.medi" unicode="&#x6aa;" horiz-adv-x="1257" 
d="M1272 11l-15 -11q-88 0 -133.5 28.5t-51.5 91.5q-21 -36 -87 -63q-156 -57 -559 -57h-426l-15 12l17 10h419q275 0 417 22t184.5 52.5t42.5 65.5q0 53 -64 89t-199 36q-110 0 -270 -12q-144 -10 -219 -10q-137 0 -211 13l2 18q25 98 102.5 177.5t191.5 106.5l-2 -22
q-103 -26 -176 -98.5t-96 -163.5q81 -12 192 -12q76 0 220 10q160 12 266 12q142 0 210.5 -38.5t70.5 -100.5q0 -80 41 -112.5t135 -32.5z" />
    <glyph glyph-name="uni06AA.fina" unicode="&#x6aa;" horiz-adv-x="1327" 
d="M1342 11l-15 -11q-88 0 -133 28.5t-52 91.5q-21 -36 -87 -63q-154 -57 -559 -57h-441l-6 22h442q275 0 417 22t184.5 52.5t42.5 65.5q0 53 -64 89t-199 36q-109 0 -269 -12q-146 -10 -220 -10q-137 0 -211 13l2 18q26 98 103.5 177.5t190.5 106.5l-2 -22
q-103 -26 -176 -98.5t-96 -163.5q81 -12 192 -12q76 0 220 10q160 12 266 12q142 0 210.5 -38.5t70.5 -100.5q1 -80 41.5 -112.5t134.5 -32.5z" />
    <glyph glyph-name="uni06AB.init" unicode="&#x6ab;" horiz-adv-x="454" 
d="M389 718l-93 -66q31 0 52 -20.5t21 -51.5q0 -30 -20.5 -51t-52.5 -21t-53 21t-21 51q0 12 3 22l-197 -139q153 -61 223 -123.5t70 -133.5q0 -103 -88.5 -154.5t-232.5 -51.5l-15 11l17 11q137 0 217.5 45.5t80.5 139.5q0 65 -69.5 125t-224.5 120l4 21l381 269z
M336 619.5q-16 15.5 -40 15.5q-25 0 -41 -15t-16 -40q0 -24 15.5 -39.5t41.5 -15.5t41 15.5t15 39.5t-16 39.5z" />
    <glyph glyph-name="uni06AB.medi" unicode="&#x6ab;" horiz-adv-x="539" 
d="M553 12l-14 -12q-54 0 -94.5 20.5t-87.5 70.5t-127 155q8 -24 8 -55q0 -91 -59.5 -141t-178.5 -50l-15 11l17 11q110 0 163.5 45t53.5 128q0 62 -41 113l-116 144l4 21l382 269l-2 -24l-94 -66q31 0 52 -20.5t21 -51.5q0 -30 -20.5 -51t-52.5 -21q-31 0 -52.5 21
t-21.5 51q0 12 3 22l-200 -141l142 -176q102 -126 145 -174t81 -68.5t92 -20.5zM392.5 620q-15.5 15 -40.5 15t-40.5 -15t-15.5 -40q0 -24 15.5 -39.5t40.5 -15.5q26 0 41 15t15 40t-15.5 40z" />
    <glyph glyph-name="uni06AB.fina" unicode="&#x6ab;" horiz-adv-x="971" 
d="M986 12l-15 -12q-54 0 -95 20.5t-87.5 71t-127.5 155.5q9 -24 9 -56q0 -67 -31 -111t-106 -68t-204 -24q-135 0 -200.5 43t-65.5 129q0 74 35 147l16 -6q-31 -68 -31 -139q0 -76 60.5 -114t187.5 -38q123 0 193 21.5t98.5 62t28.5 101.5t-41 113l-116 144l4 21l382 269
l-2 -24l-94 -66q31 -1 51.5 -21t20.5 -51q0 -30 -20.5 -51t-52.5 -21t-53 21t-21 51q0 12 3 21l-199 -140l142 -176q101 -125 145 -173.5t82 -69t91 -20.5zM823 619.5q-16 15.5 -40 15.5q-25 0 -41 -15t-16 -40q0 -24 15.5 -39.5t41.5 -15.5t41 15.5t15 39.5t-16 39.5z" />
    <glyph glyph-name="uni06AC.init" unicode="&#x6ac;" horiz-adv-x="454" 
d="M389 718l-361 -255q153 -61 223 -123.5t70 -133.5q0 -103 -88.5 -154.5t-232.5 -51.5l-15 11l17 11q137 0 217.5 45.5t80.5 139.5q0 65 -69.5 125t-224.5 120l4 21l381 269zM24 679q-5 5 -5 12t5 12t12 5t12 -5t5 -12t-5 -12t-12 -5t-12 5z" />
    <glyph glyph-name="uni06AC.medi" unicode="&#x6ac;" horiz-adv-x="539" 
d="M553 12l-14 -12q-54 0 -94.5 20.5t-87.5 70.5t-127 155q8 -24 8 -55q0 -91 -59.5 -141t-178.5 -50l-15 11l17 11q110 0 163.5 45t53.5 128q0 62 -41 113l-116 144l4 21l382 269l-2 -24l-365 -257l142 -176q102 -126 145 -174t81 -68.5t92 -20.5zM76 679q-5 5 -5 12t5 12
t12 5t12 -5t5 -12t-5 -12t-12 -5t-12 5z" />
    <glyph glyph-name="uni06AC.fina" unicode="&#x6ac;" horiz-adv-x="838" 
d="M853 12l-15 -12q-58 0 -89.5 28.5t-43.5 59.5q-62 -48 -156.5 -74t-219.5 -26q-135 0 -200.5 43t-65.5 129q0 74 35 147l16 -6q-31 -68 -31 -139q0 -76 60.5 -114t187.5 -38q121 0 215 26.5t154 74.5v621l19 2v-608q0 -20 11.5 -44t39 -42t71.5 -18zM425 316q42 16 42 45
q0 23 -29.5 41t-100.5 33l5 18l151 87l-1 -19l-132 -75q68 -17 96 -36.5t28 -48.5q0 -39 -48.5 -58.5t-128.5 -19.5l-4 17q80 0 122 16zM698 815q-5 5 -5 12t5 12t12 5t12 -5t5 -12t-5 -12t-12 -5t-12 5z" />
    <glyph glyph-name="uni06AE.init" unicode="&#x6ae;" horiz-adv-x="454" 
d="M389 718l-361 -255q153 -61 223 -123.5t70 -133.5q0 -103 -88.5 -154.5t-232.5 -51.5l-15 11l17 11q137 0 217.5 45.5t80.5 139.5q0 65 -69.5 125t-224.5 120l4 21l381 269zM62.5 -150.5q-4.5 4.5 -4.5 10.5q0 7 4.5 11.5t11.5 4.5t11.5 -4.5t4.5 -11.5q0 -6 -4.5 -10.5
t-11.5 -4.5t-11.5 4.5zM186.5 -150.5q-4.5 4.5 -4.5 10.5q0 7 4.5 11.5t11.5 4.5t11.5 -4.5t4.5 -11.5q0 -6 -4.5 -10.5t-11.5 -4.5t-11.5 4.5zM124.5 -243.5q-4.5 4.5 -4.5 11.5t4.5 11.5t11.5 4.5t11.5 -4.5t4.5 -11.5t-4.5 -11.5t-11.5 -4.5t-11.5 4.5z" />
    <glyph glyph-name="uni06AE.medi" unicode="&#x6ae;" horiz-adv-x="539" 
d="M553 12l-14 -12q-54 0 -94.5 20.5t-87.5 70.5t-127 155q8 -24 8 -55q0 -91 -59.5 -141t-178.5 -50l-15 11l17 11q110 0 163.5 45t53.5 128q0 62 -41 113l-116 144l4 21l382 269l-2 -24l-365 -257l142 -176q102 -126 145 -174t81 -68.5t92 -20.5zM196.5 -150.5
q-4.5 4.5 -4.5 10.5q0 7 4.5 11.5t11.5 4.5t11.5 -4.5t4.5 -11.5q0 -6 -4.5 -10.5t-11.5 -4.5t-11.5 4.5zM320.5 -150.5q-4.5 4.5 -4.5 10.5q0 7 4.5 11.5t11.5 4.5t11.5 -4.5t4.5 -11.5q0 -6 -4.5 -10.5t-11.5 -4.5t-11.5 4.5zM258.5 -243.5q-4.5 4.5 -4.5 11.5t4.5 11.5
t11.5 4.5t11.5 -4.5t4.5 -11.5t-4.5 -11.5t-11.5 -4.5t-11.5 4.5z" />
    <glyph glyph-name="uni06AE.fina" unicode="&#x6ae;" horiz-adv-x="838" 
d="M853 12l-15 -12q-58 0 -89.5 28.5t-43.5 59.5q-62 -48 -156.5 -74t-219.5 -26q-135 0 -200.5 43t-65.5 129q0 74 35 147l16 -6q-31 -68 -31 -139q0 -76 60.5 -114t187.5 -38q121 0 215 26.5t154 74.5v621l19 2v-608q0 -20 11.5 -44t39 -42t71.5 -18zM425 316q42 16 42 45
q0 23 -29.5 41t-100.5 33l5 18l151 87l-1 -19l-132 -75q68 -17 96 -36.5t28 -48.5q0 -39 -48.5 -58.5t-128.5 -19.5l-4 17q80 0 122 16zM322.5 -150.5q-4.5 4.5 -4.5 10.5q0 7 4.5 11.5t11.5 4.5t11.5 -4.5t4.5 -11.5q0 -6 -4.5 -10.5t-11.5 -4.5t-11.5 4.5zM446.5 -150.5
q-4.5 4.5 -4.5 10.5q0 7 4.5 11.5t11.5 4.5t11.5 -4.5t4.5 -11.5q0 -6 -4.5 -10.5t-11.5 -4.5t-11.5 4.5zM384.5 -243.5q-4.5 4.5 -4.5 11.5t4.5 11.5t11.5 4.5t11.5 -4.5t4.5 -11.5t-4.5 -11.5t-11.5 -4.5t-11.5 4.5z" />
    <glyph glyph-name="uni06B0.init" unicode="&#x6b0;" horiz-adv-x="454" 
d="M377 842l-377 -269l4 23l374 268zM389 718l-82 -58q29 -2 49 -22t20 -50q0 -31 -20.5 -51.5t-52.5 -20.5t-53 21t-21 51q0 7 2 19l-203 -144q153 -61 223 -123.5t70 -133.5q0 -103 -88.5 -154.5t-232.5 -51.5l-15 11l17 11q137 0 217.5 45.5t80.5 139.5q0 65 -69.5 125
t-224.5 120l4 21l381 269zM343.5 627q-15.5 15 -40.5 15t-40.5 -15t-15.5 -39q0 -25 15 -40t41 -15q27 0 41.5 15t14.5 40q0 24 -15.5 39z" />
    <glyph glyph-name="uni06B0.medi" unicode="&#x6b0;" horiz-adv-x="539" 
d="M443 842l-377 -269l4 23l374 268zM553 12l-14 -12q-54 0 -94.5 20.5t-87.5 70.5t-127 155q8 -24 8 -55q0 -91 -59.5 -141t-178.5 -50l-15 11l17 11q110 0 163.5 45t53.5 128q0 62 -41 113l-116 144l4 21l382 269l-2 -24l-83 -58q30 -2 50 -22t20 -50t-20.5 -51t-52.5 -21
t-53 21t-21 51q0 10 3 19l-208 -146l142 -176q102 -126 145 -174t81 -68.5t92 -20.5zM400 627q-16 15 -40 15q-25 0 -41 -15t-16 -39q0 -25 15.5 -40t41.5 -15t41 15t15 40q0 24 -16 39z" />
    <glyph glyph-name="uni06B0.fina" unicode="&#x6b0;" horiz-adv-x="971" 
d="M865 842l-377 -269l4 23l374 268zM986 12l-15 -12q-54 0 -95 20.5t-87.5 71t-127.5 155.5q9 -24 9 -56q0 -67 -31 -111t-106 -68t-204 -24q-135 0 -200.5 43t-65.5 129q0 74 35 147l16 -6q-31 -68 -31 -139q0 -76 60.5 -114t187.5 -38q123 0 193 21.5t98.5 62t28.5 101.5
t-41 113l-116 144l4 21l382 269l-2 -24l-94 -66q29 -2 48.5 -22t19.5 -50t-20.5 -51t-52.5 -21t-53 21t-21 51q0 6 2 18l-194 -137l142 -176q101 -125 145 -173.5t82 -69t91 -20.5zM752 629l-15 -10q-15 -17 -15 -39q0 -24 15.5 -39.5t41.5 -15.5t41 15.5t15 39.5t-16 39.5
t-40 15.5q-15 0 -27 -6z" />
    <glyph glyph-name="uni06B2.init" unicode="&#x6b2;" horiz-adv-x="454" 
d="M377 842l-377 -269l4 23l374 268zM389 718l-361 -255q153 -61 223 -123.5t70 -133.5q0 -103 -88.5 -154.5t-232.5 -51.5l-15 11l17 11q137 0 217.5 45.5t80.5 139.5q0 65 -69.5 125t-224.5 120l4 21l381 269zM63 -153.5q-5 4.5 -5 11.5t5 12t12 5t11.5 -5t4.5 -12
t-4.5 -11.5t-11.5 -4.5t-12 4.5zM185.5 -153.5q-4.5 4.5 -4.5 11.5t4.5 12t11.5 5t12 -5t5 -12t-5 -11.5t-12 -4.5t-11.5 4.5z" />
    <glyph glyph-name="uni06B2.medi" unicode="&#x6b2;" horiz-adv-x="539" 
d="M443 842l-377 -269l4 23l374 268zM553 12l-14 -12q-54 0 -94.5 20.5t-87.5 70.5t-127 155q8 -24 8 -55q0 -91 -59.5 -141t-178.5 -50l-15 11l17 11q110 0 163.5 45t53.5 128q0 62 -41 113l-116 144l4 21l382 269l-2 -24l-365 -257l142 -176q102 -126 145 -174t81 -68.5
t92 -20.5zM197 -153.5q-5 4.5 -5 11.5t5 12t12 5t11.5 -5t4.5 -12t-4.5 -11.5t-11.5 -4.5t-12 4.5zM319.5 -153.5q-4.5 4.5 -4.5 11.5t4.5 12t11.5 5t12 -5t5 -12t-5 -11.5t-12 -4.5t-11.5 4.5z" />
    <glyph glyph-name="uni06B2.fina" unicode="&#x6b2;" horiz-adv-x="969" 
d="M865 842l-377 -269l4 23l374 268zM986 12l-15 -12q-54 0 -95 20.5t-87.5 71t-127.5 155.5q9 -24 9 -56q0 -67 -31 -111t-106 -68t-204 -24q-135 0 -200.5 43t-65.5 129q0 74 35 147l16 -6q-31 -68 -31 -139q0 -76 60.5 -114t187.5 -38q123 0 193 21.5t98.5 62t28.5 101.5
t-41 113l-116 144l4 21l382 269l-2 -24l-365 -257l142 -176q101 -125 145 -173.5t82 -69t91 -20.5zM296 -153.5q-5 4.5 -5 11.5t5 12t12 5t11.5 -5t4.5 -12t-4.5 -11.5t-11.5 -4.5t-12 4.5zM418.5 -153.5q-4.5 4.5 -4.5 11.5t4.5 12t11.5 5t12 -5t5 -12t-5 -11.5t-12 -4.5
t-11.5 4.5z" />
    <glyph glyph-name="uni06B4.init" unicode="&#x6b4;" horiz-adv-x="454" 
d="M377 842l-377 -269l4 23l374 268zM389 718l-361 -255q153 -61 223 -123.5t70 -133.5q0 -103 -88.5 -154.5t-232.5 -51.5l-15 11l17 11q137 0 217.5 45.5t80.5 139.5q0 65 -69.5 125t-224.5 120l4 21l381 269zM18.5 830.5q-4.5 4.5 -4.5 11.5t4.5 11.5t11.5 4.5t11.5 -4.5
t4.5 -11.5t-4.5 -11.5t-11.5 -4.5t-11.5 4.5zM-43.5 738.5q-4.5 4.5 -4.5 11.5q0 6 4.5 10.5t11.5 4.5t11.5 -4.5t4.5 -10.5q0 -7 -4.5 -11.5t-11.5 -4.5t-11.5 4.5zM80.5 738.5q-4.5 4.5 -4.5 11.5q0 6 4.5 10.5t11.5 4.5t11.5 -4.5t4.5 -10.5q0 -7 -4.5 -11.5t-11.5 -4.5
t-11.5 4.5z" />
    <glyph glyph-name="uni06B4.medi" unicode="&#x6b4;" horiz-adv-x="539" 
d="M443 842l-377 -269l4 23l374 268zM553 12l-14 -12q-54 0 -94.5 20.5t-87.5 70.5t-127 155q8 -24 8 -55q0 -91 -59.5 -141t-178.5 -50l-15 11l17 11q110 0 163.5 45t53.5 128q0 62 -41 113l-116 144l4 21l382 269l-2 -24l-365 -257l142 -176q102 -126 145 -174t81 -68.5
t92 -20.5zM76.5 830.5q-4.5 4.5 -4.5 11.5t4.5 11.5t11.5 4.5t11.5 -4.5t4.5 -11.5t-4.5 -11.5t-11.5 -4.5t-11.5 4.5zM14.5 738.5q-4.5 4.5 -4.5 11.5q0 6 4.5 10.5t11.5 4.5t11.5 -4.5t4.5 -10.5q0 -7 -4.5 -11.5t-11.5 -4.5t-11.5 4.5zM138.5 738.5q-4.5 4.5 -4.5 11.5
q0 6 4.5 10.5t11.5 4.5t11.5 -4.5t4.5 -10.5q0 -7 -4.5 -11.5t-11.5 -4.5t-11.5 4.5z" />
    <glyph glyph-name="uni06B4.fina" unicode="&#x6b4;" horiz-adv-x="969" 
d="M865 842l-377 -269l4 23l374 268zM986 12l-15 -12q-54 0 -95 20.5t-87.5 71t-127.5 155.5q9 -24 9 -56q0 -67 -31 -111t-106 -68t-204 -24q-135 0 -200.5 43t-65.5 129q0 74 35 147l16 -6q-31 -68 -31 -139q0 -76 60.5 -114t187.5 -38q123 0 193 21.5t98.5 62t28.5 101.5
t-41 113l-116 144l4 21l382 269l-2 -24l-365 -257l142 -176q101 -125 145 -173.5t82 -69t91 -20.5zM508.5 830.5q-4.5 4.5 -4.5 11.5t4.5 11.5t11.5 4.5t11.5 -4.5t4.5 -11.5t-4.5 -11.5t-11.5 -4.5t-11.5 4.5zM446.5 738.5q-4.5 4.5 -4.5 11.5q0 6 4.5 10.5t11.5 4.5
t11.5 -4.5t4.5 -10.5q0 -7 -4.5 -11.5t-11.5 -4.5t-11.5 4.5zM570.5 738.5q-4.5 4.5 -4.5 11.5q0 6 4.5 10.5t11.5 4.5t11.5 -4.5t4.5 -10.5q0 -7 -4.5 -11.5t-11.5 -4.5t-11.5 4.5z" />
    <glyph glyph-name="uni06B5.init" unicode="&#x6b5;" horiz-adv-x="221" 
d="M-15 11l17 11q106 0 106 110v600l20 2v-603q0 -131 -128 -131zM119 813l72 124l13 -6l-77 -137h-16l-77 137l13 6z" />
    <glyph glyph-name="uni06B5.medi" unicode="&#x6b5;" horiz-adv-x="235" 
d="M250 11l-15 -11q-44 0 -75.5 20t-41.5 59q-10 -39 -41 -59t-77 -20l-15 11l17 11q106 0 106 110v601l20 2v-603q0 -110 109 -110zM118 815l72 124l13 -6l-77 -137h-16l-77 137l13 6z" />
    <glyph glyph-name="uni06B5.fina" unicode="&#x6b5;" horiz-adv-x="700" 
d="M715 11l-15 -11q-57 0 -90 19.5t-47 58.5q-1 -134 -67 -196.5t-199 -62.5q-121 0 -177.5 55.5t-56.5 150.5q0 87 36 173l16 -5q-32 -81 -32 -166q0 -87 51.5 -136.5t164.5 -49.5q127 0 185.5 59t58.5 181v651l20 2v-562q1 -81 31.5 -115.5t107.5 -34.5zM553 813l72 124
l13 -6l-77 -137h-16l-77 137l13 6z" />
    <glyph glyph-name="uni06B6.init" unicode="&#x6b6;" horiz-adv-x="221" 
d="M-15 11l17 11q106 0 106 110v600l20 2v-603q0 -131 -128 -131zM107 814q-5 5 -5 12t5 12t12 5t12 -5t5 -12t-5 -12t-12 -5t-12 5z" />
    <glyph glyph-name="uni06B6.medi" unicode="&#x6b6;" horiz-adv-x="235" 
d="M250 11l-15 -11q-44 0 -75.5 20t-41.5 59q-10 -39 -41 -59t-77 -20l-15 11l17 11q106 0 106 110v601l20 2v-603q0 -110 109 -110zM106 816q-5 5 -5 12t5 12t12 5t12 -5t5 -12t-5 -12t-12 -5t-12 5z" />
    <glyph glyph-name="uni06B6.fina" unicode="&#x6b6;" horiz-adv-x="700" 
d="M715 11l-15 -11q-57 0 -90 19.5t-47 58.5q-1 -134 -67 -196.5t-199 -62.5q-121 0 -177.5 55.5t-56.5 150.5q0 87 36 173l16 -5q-32 -81 -32 -166q0 -87 51.5 -136.5t164.5 -49.5q127 0 185.5 59t58.5 181v651l20 2v-562q1 -81 31.5 -115.5t107.5 -34.5zM541 814
q-5 5 -5 12t5 12t12 5t12 -5t5 -12t-5 -12t-12 -5t-12 5z" />
    <glyph glyph-name="uni06B7.init" unicode="&#x6b7;" horiz-adv-x="221" 
d="M-15 11l17 11q106 0 106 110v600l20 2v-603q0 -131 -128 -131zM107.5 900.5q-4.5 4.5 -4.5 11.5t4.5 11.5t11.5 4.5t11.5 -4.5t4.5 -11.5t-4.5 -11.5t-11.5 -4.5t-11.5 4.5zM45.5 808.5q-4.5 4.5 -4.5 11.5q0 6 4.5 10.5t11.5 4.5t11.5 -4.5t4.5 -10.5q0 -7 -4.5 -11.5
t-11.5 -4.5t-11.5 4.5zM169.5 808.5q-4.5 4.5 -4.5 11.5q0 6 4.5 10.5t11.5 4.5t11.5 -4.5t4.5 -10.5q0 -7 -4.5 -11.5t-11.5 -4.5t-11.5 4.5z" />
    <glyph glyph-name="uni06B7.medi" unicode="&#x6b7;" horiz-adv-x="235" 
d="M250 11l-15 -11q-44 0 -75.5 20t-41.5 59q-10 -39 -41 -59t-77 -20l-15 11l17 11q106 0 106 110v601l20 2v-603q0 -110 109 -110zM106.5 902.5q-4.5 4.5 -4.5 11.5t4.5 11.5t11.5 4.5t11.5 -4.5t4.5 -11.5t-4.5 -11.5t-11.5 -4.5t-11.5 4.5zM44.5 810.5
q-4.5 4.5 -4.5 11.5q0 6 4.5 10.5t11.5 4.5t11.5 -4.5t4.5 -10.5q0 -7 -4.5 -11.5t-11.5 -4.5t-11.5 4.5zM168.5 810.5q-4.5 4.5 -4.5 11.5q0 6 4.5 10.5t11.5 4.5t11.5 -4.5t4.5 -10.5q0 -7 -4.5 -11.5t-11.5 -4.5t-11.5 4.5z" />
    <glyph glyph-name="uni06B7.fina" unicode="&#x6b7;" horiz-adv-x="700" 
d="M715 11l-15 -11q-57 0 -90 19.5t-47 58.5q-1 -134 -67 -196.5t-199 -62.5q-121 0 -177.5 55.5t-56.5 150.5q0 87 36 173l16 -5q-32 -81 -32 -166q0 -87 51.5 -136.5t164.5 -49.5q127 0 185.5 59t58.5 181v651l20 2v-562q1 -81 31.5 -115.5t107.5 -34.5zM541.5 900.5
q-4.5 4.5 -4.5 11.5t4.5 11.5t11.5 4.5t11.5 -4.5t4.5 -11.5t-4.5 -11.5t-11.5 -4.5t-11.5 4.5zM479.5 808.5q-4.5 4.5 -4.5 11.5q0 6 4.5 10.5t11.5 4.5t11.5 -4.5t4.5 -10.5q0 -7 -4.5 -11.5t-11.5 -4.5t-11.5 4.5zM603.5 808.5q-4.5 4.5 -4.5 11.5q0 6 4.5 10.5t11.5 4.5
t11.5 -4.5t4.5 -10.5q0 -7 -4.5 -11.5t-11.5 -4.5t-11.5 4.5z" />
    <glyph glyph-name="uni06B8.init" unicode="&#x6b8;" horiz-adv-x="221" 
d="M-15 11l17 11q106 0 106 110v600l20 2v-603q0 -131 -128 -131zM44.5 -150.5q-4.5 4.5 -4.5 10.5q0 7 4.5 11.5t11.5 4.5t11.5 -4.5t4.5 -11.5q0 -6 -4.5 -10.5t-11.5 -4.5t-11.5 4.5zM168.5 -150.5q-4.5 4.5 -4.5 10.5q0 7 4.5 11.5t11.5 4.5t11.5 -4.5t4.5 -11.5
q0 -6 -4.5 -10.5t-11.5 -4.5t-11.5 4.5zM106.5 -243.5q-4.5 4.5 -4.5 11.5t4.5 11.5t11.5 4.5t11.5 -4.5t4.5 -11.5t-4.5 -11.5t-11.5 -4.5t-11.5 4.5z" />
    <glyph glyph-name="uni06B8.medi" unicode="&#x6b8;" horiz-adv-x="235" 
d="M250 11l-15 -11q-44 0 -75.5 20t-41.5 59q-10 -39 -41 -59t-77 -20l-15 11l17 11q106 0 106 110v601l20 2v-603q0 -110 109 -110zM44.5 -150.5q-4.5 4.5 -4.5 10.5q0 7 4.5 11.5t11.5 4.5t11.5 -4.5t4.5 -11.5q0 -6 -4.5 -10.5t-11.5 -4.5t-11.5 4.5zM168.5 -150.5
q-4.5 4.5 -4.5 10.5q0 7 4.5 11.5t11.5 4.5t11.5 -4.5t4.5 -11.5q0 -6 -4.5 -10.5t-11.5 -4.5t-11.5 4.5zM106.5 -243.5q-4.5 4.5 -4.5 11.5t4.5 11.5t11.5 4.5t11.5 -4.5t4.5 -11.5t-4.5 -11.5t-11.5 -4.5t-11.5 4.5z" />
    <glyph glyph-name="uni06B8.fina" unicode="&#x6b8;" horiz-adv-x="700" 
d="M715 11l-15 -11q-57 0 -90 19.5t-47 58.5q-1 -134 -67 -196.5t-199 -62.5q-121 0 -177.5 55.5t-56.5 150.5q0 87 36 173l16 -5q-32 -81 -32 -166q0 -87 51.5 -136.5t164.5 -49.5q127 0 185.5 59t58.5 181v651l20 2v-562q1 -81 31.5 -115.5t107.5 -34.5zM222.5 -328.5
q-4.5 4.5 -4.5 10.5q0 7 4.5 11.5t11.5 4.5t11.5 -4.5t4.5 -11.5q0 -6 -4.5 -10.5t-11.5 -4.5t-11.5 4.5zM346.5 -328.5q-4.5 4.5 -4.5 10.5q0 7 4.5 11.5t11.5 4.5t11.5 -4.5t4.5 -11.5q0 -6 -4.5 -10.5t-11.5 -4.5t-11.5 4.5zM284.5 -421.5q-4.5 4.5 -4.5 11.5t4.5 11.5
t11.5 4.5t11.5 -4.5t4.5 -11.5t-4.5 -11.5t-11.5 -4.5t-11.5 4.5z" />
    <glyph glyph-name="uni06B9.init" unicode="&#x6b9;" horiz-adv-x="252" 
d="M100 36q34 14 46.5 42t12.5 76q0 54 -9.5 105.5t-30.5 109.5l21 7q39 -112 39 -222q0 -56 -15.5 -89t-54 -49t-109.5 -16l-15 11l17 11q64 0 98 14zM99 -149q-5 5 -5 12t5 12t12 5t12 -5t5 -12t-5 -12t-12 -5t-12 5zM107 467q-5 5 -5 12t5 12t12 5t12 -5t5 -12t-5 -12
t-12 -5t-12 5z" />
    <glyph glyph-name="uni06B9.medi" unicode="&#x6b9;" horiz-adv-x="305" 
d="M320 11l-15 -11q-57 0 -98 26.5t-54 71.5q-12 -46 -51.5 -72t-101.5 -26l-15 11l17 11q70 0 105 32.5t35 91.5v160h20v-160q0 -58 39 -91t105 -33zM140 -149q-5 5 -5 12t5 12t12 5t12 -5t5 -12t-5 -12t-12 -5t-12 5zM140 390q-5 5 -5 12t5 12t12 5t12 -5t5 -12t-5 -12
t-12 -5t-12 5z" />
    <glyph glyph-name="uni06B9.fina" unicode="&#x6b9;" horiz-adv-x="694" 
d="M709 11l-15 -11q-84 0 -114 58q0 -154 -66 -223.5t-217 -69.5q-121 0 -177.5 55.5t-56.5 150.5q0 87 36 173l16 -6q-32 -79 -32 -166q0 -86 51.5 -135.5t164.5 -49.5q96 0 153.5 28.5t83 87.5t25.5 153q0 42 -12.5 89.5t-39.5 126.5l21 9q32 -106 46 -169
q11 -44 38.5 -67t81.5 -23zM300 -373q-5 5 -5 12t5 12t12 5t12 -5t5 -12t-5 -12t-12 -5t-12 5zM303 314q-5 5 -5 12t5 12t12 5t12 -5t5 -12t-5 -12t-12 -5t-12 5z" />
    <glyph glyph-name="uni06BC.init" unicode="&#x6bc;" horiz-adv-x="252" 
d="M106 467q-5 5 -5 12t5 12t13 5q7 0 12 -5t5 -12t-5 -12t-12 -5q-8 0 -13 5zM170 3.5q14 -18.5 14 -43.5q0 -31 -20.5 -51.5t-52.5 -20.5t-53 21t-21 51q0 24 13 42q-30 -2 -50 -2l-15 11l17 11q64 0 98 14t46.5 42t12.5 76q0 54 -9.5 105.5t-30.5 109.5l21 7
q39 -112 39 -222q0 -47 -10.5 -77.5t-35.5 -47.5q23 -7 37 -25.5zM152 -80q15 15 15 40t-15.5 39.5t-40.5 14.5h-8q-9 -4 -20 -6q-13 -7 -20.5 -19.5t-7.5 -28.5q0 -24 15 -39.5t41 -15.5t41 15z" />
    <glyph glyph-name="uni06BC.medi" unicode="&#x6bc;" horiz-adv-x="305" 
d="M140 390q-5 5 -5 12q0 8 5 13t12 5q8 0 13 -5t5 -13q0 -7 -5 -12t-13 -5q-7 0 -12 5zM320 11l-15 -11q-57 0 -98 26.5t-54 71.5q-9 -36 -36 -60q28 -3 46.5 -23.5t18.5 -48.5q0 -31 -20.5 -51.5t-52.5 -20.5t-53 21t-21 51q0 21 11 38q-19 -4 -46 -4l-15 11l17 11
q70 0 105 32.5t35 91.5v160h20v-160q0 -58 39 -91t105 -33zM149.5 5.5q-15.5 14.5 -40.5 14.5t-40.5 -15t-15.5 -39q0 -25 15.5 -40t40.5 -15q27 0 41.5 15t14.5 40t-15.5 39.5z" />
    <glyph glyph-name="uni06BC.fina" unicode="&#x6bc;" horiz-adv-x="694" 
d="M303 314q-5 5 -5 12q0 8 5 13t12 5t12 -5t5 -13q0 -7 -5 -12t-12 -5t-12 5zM709 11l-15 -11q-84 0 -114 58q0 -143 -56.5 -212.5t-183.5 -79.5q22 -19 22 -52q0 -31 -20.5 -51.5t-52.5 -20.5t-53 21t-21 51q0 16 6.5 30.5t18.5 24.5q-92 13 -134.5 66t-42.5 136
q0 87 36 173l16 -6q-32 -79 -32 -166q0 -86 51.5 -135.5t164.5 -49.5q96 0 153.5 28.5t83 87.5t25.5 153q0 42 -12.5 89.5t-39.5 126.5l21 9q32 -106 46 -169q11 -44 38.5 -67t81.5 -23zM335.5 -253.5q-9.5 13.5 -26.5 18.5h-12q-17 0 -26 1q-18 -5 -28 -19t-10 -33
q0 -24 15.5 -39.5t40.5 -15.5q26 0 41 15t15 40q0 19 -9.5 32.5z" />
    <glyph glyph-name="uni06BD.init" unicode="&#x6bd;" horiz-adv-x="252" 
d="M100 36q34 14 46.5 42t12.5 76q0 54 -9.5 105.5t-30.5 109.5l21 7q39 -112 39 -222q0 -56 -15.5 -89t-54 -49t-109.5 -16l-15 11l17 11q64 0 98 14zM107.5 553.5q-4.5 4.5 -4.5 11.5t4.5 11.5t11.5 4.5t11.5 -4.5t4.5 -11.5t-4.5 -11.5t-11.5 -4.5t-11.5 4.5zM45.5 461.5
q-4.5 4.5 -4.5 11.5q0 6 4.5 10.5t11.5 4.5t11.5 -4.5t4.5 -10.5q0 -7 -4.5 -11.5t-11.5 -4.5t-11.5 4.5zM169.5 461.5q-4.5 4.5 -4.5 11.5q0 6 4.5 10.5t11.5 4.5t11.5 -4.5t4.5 -10.5q0 -7 -4.5 -11.5t-11.5 -4.5t-11.5 4.5z" />
    <glyph glyph-name="uni06BD.medi" unicode="&#x6bd;" horiz-adv-x="305" 
d="M320 11l-15 -11q-57 0 -98 26.5t-54 71.5q-12 -46 -51.5 -72t-101.5 -26l-15 11l17 11q70 0 105 32.5t35 91.5v160h20v-160q0 -58 39 -91t105 -33zM140.5 476.5q-4.5 4.5 -4.5 11.5t4.5 11.5t11.5 4.5t11.5 -4.5t4.5 -11.5t-4.5 -11.5t-11.5 -4.5t-11.5 4.5zM78.5 384.5
q-4.5 4.5 -4.5 11.5q0 6 4.5 10.5t11.5 4.5t11.5 -4.5t4.5 -10.5q0 -7 -4.5 -11.5t-11.5 -4.5t-11.5 4.5zM202.5 384.5q-4.5 4.5 -4.5 11.5q0 6 4.5 10.5t11.5 4.5t11.5 -4.5t4.5 -10.5q0 -7 -4.5 -11.5t-11.5 -4.5t-11.5 4.5z" />
    <glyph glyph-name="uni06BD.fina" unicode="&#x6bd;" horiz-adv-x="694" 
d="M709 11l-15 -11q-84 0 -114 58q0 -154 -66 -223.5t-217 -69.5q-121 0 -177.5 55.5t-56.5 150.5q0 87 36 173l16 -6q-32 -79 -32 -166q0 -86 51.5 -135.5t164.5 -49.5q96 0 153.5 28.5t83 87.5t25.5 153q0 42 -12.5 89.5t-39.5 126.5l21 9q32 -106 46 -169
q11 -44 38.5 -67t81.5 -23zM303.5 400.5q-4.5 4.5 -4.5 11.5t4.5 11.5t11.5 4.5t11.5 -4.5t4.5 -11.5t-4.5 -11.5t-11.5 -4.5t-11.5 4.5zM241.5 308.5q-4.5 4.5 -4.5 11.5q0 6 4.5 10.5t11.5 4.5t11.5 -4.5t4.5 -10.5q0 -7 -4.5 -11.5t-11.5 -4.5t-11.5 4.5zM365.5 308.5
q-4.5 4.5 -4.5 11.5q0 6 4.5 10.5t11.5 4.5t11.5 -4.5t4.5 -10.5q0 -7 -4.5 -11.5t-11.5 -4.5t-11.5 4.5z" />
    <glyph glyph-name="uni06BF.init" unicode="&#x6bf;" horiz-adv-x="687" 
d="M286.5 406.5q30.5 -11.5 53.5 -29t59 -49.5q56 -51 106.5 -84t130.5 -55l-3 -21l-27 -2q-93 -2 -167.5 -25t-170.5 -66q-85 -38 -143 -56.5t-125 -18.5l-15 12l17 11q64 0 121 18t138 55q95 42 167 64.5t164 25.5q-70 23 -116 53.5t-95 74.5q-47 42 -81 61.5t-84 19.5
q-31 0 -58 -8t-57 -26l-11 20q33 20 63.5 28.5t62.5 8.5q40 0 70.5 -11.5zM219.5 -150.5q-4.5 4.5 -4.5 10.5q0 7 4.5 11.5t11.5 4.5t11.5 -4.5t4.5 -11.5q0 -6 -4.5 -10.5t-11.5 -4.5t-11.5 4.5zM343.5 -150.5q-4.5 4.5 -4.5 10.5q0 7 4.5 11.5t11.5 4.5t11.5 -4.5
t4.5 -11.5q0 -6 -4.5 -10.5t-11.5 -4.5t-11.5 4.5zM281.5 -243.5q-4.5 4.5 -4.5 11.5t4.5 11.5t11.5 4.5t11.5 -4.5t4.5 -11.5t-4.5 -11.5t-11.5 -4.5t-11.5 4.5zM204 489q-5 5 -5 12t5 12t12 5t12 -5t5 -12t-5 -12t-12 -5t-12 5z" />
    <glyph glyph-name="uni06BF.medi" unicode="&#x6bf;" horiz-adv-x="744" 
d="M758 11l-14 -11q-200 0 -236 193q-49 -12 -97 -34t-111 -57q-93 -51 -159.5 -76.5t-140.5 -25.5l-15 11l17 11q70 0 131.5 24t152.5 72q92 49 153.5 73.5t133.5 28.5q-70 21 -115.5 47.5t-92.5 63.5q-44 34 -75 49.5t-76 15.5q-33 0 -60 -7.5t-60 -25.5l-10 19
q36 20 66 28t64 8q53 0 86.5 -16.5t80.5 -54.5q54 -43 104.5 -72t131.5 -51l-3 -19l-23 -1q-38 -2 -66 -7q19 -95 74.5 -135t146.5 -40zM298.5 -100.5q-4.5 4.5 -4.5 10.5q0 7 4.5 11.5t11.5 4.5t11.5 -4.5t4.5 -11.5q0 -6 -4.5 -10.5t-11.5 -4.5t-11.5 4.5zM422.5 -100.5
q-4.5 4.5 -4.5 10.5q0 7 4.5 11.5t11.5 4.5t11.5 -4.5t4.5 -11.5q0 -6 -4.5 -10.5t-11.5 -4.5t-11.5 4.5zM360.5 -193.5q-4.5 4.5 -4.5 11.5t4.5 11.5t11.5 4.5t11.5 -4.5t4.5 -11.5t-4.5 -11.5t-11.5 -4.5t-11.5 4.5zM203 490q-5 5 -5 12t5 12t12 5t12 -5t5 -12t-5 -12
t-12 -5t-12 5z" />
    <glyph glyph-name="uni06BF.fina" unicode="&#x6bf;" horiz-adv-x="701" 
d="M196 117.5q-95 -75.5 -95 -201.5q0 -66 32 -119.5t96 -85.5t157 -32q61 0 118 12.5t96 32.5l8 -20q-39 -20 -99.5 -33.5t-124.5 -13.5q-99 0 -167.5 35t-102 93.5t-33.5 130.5q0 147 118 229t332 90q-52 19 -88 42t-76 55q-42 34 -71.5 49t-72.5 15q-35 0 -62 -7.5
t-58 -26.5l-10 19q34 20 64 28.5t67 8.5q47 0 80 -17.5t78 -54.5q50 -40 93 -65.5t108 -42.5l-3 -19l-22 -1q-48 -2 -73 -4q15 -106 69 -149t149 -43l12 -11l-14 -11q-101 0 -160 49.5t-73 162.5q-177 -19 -272 -94.5zM283.5 -41.5q-4.5 4.5 -4.5 10.5q0 7 4.5 11.5
t11.5 4.5t11.5 -4.5t4.5 -11.5q0 -6 -4.5 -10.5t-11.5 -4.5t-11.5 4.5zM407.5 -41.5q-4.5 4.5 -4.5 10.5q0 7 4.5 11.5t11.5 4.5t11.5 -4.5t4.5 -11.5q0 -6 -4.5 -10.5t-11.5 -4.5t-11.5 4.5zM345.5 -134.5q-4.5 4.5 -4.5 11.5t4.5 11.5t11.5 4.5t11.5 -4.5t4.5 -11.5
t-4.5 -11.5t-11.5 -4.5t-11.5 4.5zM211 489q-5 5 -5 12t5 12t12 5t12 -5t5 -12t-5 -12t-12 -5t-12 5z" />
    <glyph glyph-name="uni06C2.fina" unicode="&#x6c2;" horiz-adv-x="555" 
d="M29 -24q41 123 96 185t116 62q43 0 68.5 -21t56.5 -66q26 -36 47.5 -59t57 -39t86.5 -16l12 -11l-14 -11q-57 0 -95.5 17.5t-62 42t-49.5 62.5q-28 41 -50 60t-57 19q-55 0 -104.5 -60.5t-85.5 -169.5zM332 316l-181 -29l-2 16l76 12q-58 35 -58 81q0 30 22.5 50t63.5 20
q31 0 58 -15l-7 -13q-25 13 -51 13q-35 0 -52.5 -16t-17.5 -39q0 -22 16.5 -42t45.5 -36l85 14z" />
    <glyph glyph-name="uni06C3.fina" unicode="&#x6c3;" horiz-adv-x="555" 
d="M29 -24q41 123 96 185t116 62q43 0 68.5 -21t56.5 -66q26 -36 47.5 -59t57 -39t86.5 -16l12 -11l-14 -11q-57 0 -95.5 17.5t-62 42t-49.5 62.5q-28 41 -50 60t-57 19q-55 0 -104.5 -60.5t-85.5 -169.5zM168 326.5q-5 4.5 -5 11.5t5 12t12 5t11.5 -5t4.5 -12t-4.5 -11.5
t-11.5 -4.5t-12 4.5zM290.5 326.5q-4.5 4.5 -4.5 11.5t4.5 12t11.5 5t12 -5t5 -12t-5 -11.5t-12 -4.5t-11.5 4.5z" />
    <glyph glyph-name="uni06C4.fina" unicode="&#x6c4;" horiz-adv-x="518" 
d="M518 0h-115q-22 -96 -102 -156t-232 -85l-6 21q46 8 77 16q-23 7 -37 26t-14 43q0 30 21.5 51t52.5 21t52 -20.5t21 -51.5q0 -22 -11 -39q127 57 157 174h-91q-102 0 -154.5 44t-52.5 118q0 45 21 85t57.5 64t80.5 24q76 0 122.5 -66t46.5 -185q0 -35 -4 -62h112l12 -11z
M152 59.5q47 -37.5 144 -37.5h88h2q5 32 5 61q0 112 -40 171t-109 59q-39 0 -70.5 -20.5t-49 -55t-17.5 -73.5q0 -67 47 -104.5zM122 -175q15 -15 41 -15q27 0 41.5 15t14.5 40q0 24 -15.5 39t-40.5 15t-40.5 -15t-15.5 -39q0 -25 15 -40z" />
    <glyph glyph-name="uni06CA.fina" unicode="&#x6ca;" horiz-adv-x="518" 
d="M518 0h-115q-22 -96 -102 -156t-232 -85l-6 21q144 24 220.5 79t98.5 141h-91q-102 0 -154.5 44t-52.5 118q0 45 21 85t57.5 64t80.5 24q76 0 122.5 -66t46.5 -185q0 -35 -4 -62h112l12 -11zM152 59.5q47 -37.5 144 -37.5h88h2q5 32 5 61q0 112 -40 171t-109 59
q-39 0 -70.5 -20.5t-49 -55t-17.5 -73.5q0 -67 47 -104.5zM175 446.5q-5 4.5 -5 11.5t5 12t12 5t11.5 -5t4.5 -12t-4.5 -11.5t-11.5 -4.5t-12 4.5zM297.5 446.5q-4.5 4.5 -4.5 11.5t4.5 12t11.5 5t12 -5t5 -12t-5 -11.5t-12 -4.5t-11.5 4.5z" />
    <glyph glyph-name="uni06CD.fina" unicode="&#x6cd;" horiz-adv-x="728" 
d="M728 0q-32 0 -58 6.5t-58 19.5q20 -19 20 -46q0 -42 -35 -80.5t-107 -63t-175 -24.5q-121 0 -177.5 55.5t-56.5 150.5q0 74 24 140q-42 -31 -102 -43l-2 12q32 8 63.5 24.5t53.5 39.5l15 -5q-32 -81 -32 -166q0 -87 51.5 -136.5t164.5 -49.5q97 0 163.5 22.5t99.5 56.5
t33 69q0 19 -13.5 34t-52.5 33t-120 45l9 19q40 -14 78 -29t52 -20q56 -23 88.5 -32.5t75.5 -9.5l12 -11z" />
    <glyph glyph-name="uni06CE.init" unicode="&#x6ce;" horiz-adv-x="252" 
d="M100 36q34 14 46.5 42t12.5 76q0 54 -9.5 105.5t-30.5 109.5l21 7q39 -112 39 -222q0 -56 -15.5 -89t-54 -49t-109.5 -16l-15 11l17 11q64 0 98 14zM38 -153.5q-5 4.5 -5 11.5t5 12t12 5t11.5 -5t4.5 -12t-4.5 -11.5t-11.5 -4.5t-12 4.5zM160.5 -153.5
q-4.5 4.5 -4.5 11.5t4.5 12t11.5 5t12 -5t5 -12t-5 -11.5t-12 -4.5t-11.5 4.5zM119 466l72 124l13 -6l-77 -137h-16l-77 137l13 6z" />
    <glyph glyph-name="uni06CE.medi" unicode="&#x6ce;" horiz-adv-x="305" 
d="M320 11l-15 -11q-57 0 -98 26.5t-54 71.5q-12 -46 -51.5 -72t-101.5 -26l-15 11l17 11q70 0 105 32.5t35 91.5v160h20v-160q0 -58 39 -91t105 -33zM79 -153.5q-5 4.5 -5 11.5t5 12t12 5t11.5 -5t4.5 -12t-4.5 -11.5t-11.5 -4.5t-12 4.5zM201.5 -153.5q-4.5 4.5 -4.5 11.5
t4.5 12t11.5 5t12 -5t5 -12t-5 -11.5t-12 -4.5t-11.5 4.5zM152 389l72 124l13 -6l-77 -137h-16l-77 137l13 6z" />
    <glyph glyph-name="uni06CE.fina" unicode="&#x6ce;" horiz-adv-x="709" 
d="M709 0q-32 0 -57.5 6.5t-56.5 19.5q19 -19 19 -46q0 -42 -35 -80.5t-107 -63t-175 -24.5q-121 0 -177.5 55.5t-56.5 150.5q0 87 36 173l16 -5q-32 -81 -32 -166q0 -87 51.5 -136.5t164.5 -49.5q97 0 163.5 22.5t99.5 56.5t33 69q0 19 -13.5 34t-52.5 33t-120 45l9 19
q54 -18 131 -50q55 -23 87.5 -32t74.5 -9l13 -11zM137 311l72 124l13 -6l-77 -137h-16l-77 137l13 6z" />
    <glyph glyph-name="uni06CF.fina" unicode="&#x6cf;" horiz-adv-x="518" 
d="M518 0h-115q-22 -96 -102 -156t-232 -85l-6 21q144 24 220.5 79t98.5 141h-91q-102 0 -154.5 44t-52.5 118q0 45 21 85t57.5 64t80.5 24q76 0 122.5 -66t46.5 -185q0 -35 -4 -62h112l12 -11zM152 59.5q47 -37.5 144 -37.5h88h2q5 32 5 61q0 112 -40 171t-109 59
q-39 0 -70.5 -20.5t-49 -55t-17.5 -73.5q0 -67 47 -104.5zM236 416q-5 5 -5 12t5 12t12 5t12 -5t5 -12t-5 -12t-12 -5t-12 5z" />
    <glyph glyph-name="uni06D1.init" unicode="&#x6d1;" horiz-adv-x="252" 
d="M100 36q34 14 46.5 42t12.5 76q0 54 -9.5 105.5t-30.5 109.5l21 7q39 -112 39 -222q0 -56 -15.5 -89t-54 -49t-109.5 -16l-15 11l17 11q64 0 98 14zM37.5 -150.5q-4.5 4.5 -4.5 10.5q0 7 4.5 11.5t11.5 4.5t11.5 -4.5t4.5 -11.5q0 -6 -4.5 -10.5t-11.5 -4.5t-11.5 4.5z
M161.5 -150.5q-4.5 4.5 -4.5 10.5q0 7 4.5 11.5t11.5 4.5t11.5 -4.5t4.5 -11.5q0 -6 -4.5 -10.5t-11.5 -4.5t-11.5 4.5zM99.5 -243.5q-4.5 4.5 -4.5 11.5t4.5 11.5t11.5 4.5t11.5 -4.5t4.5 -11.5t-4.5 -11.5t-11.5 -4.5t-11.5 4.5z" />
    <glyph glyph-name="uni06D1.medi" unicode="&#x6d1;" horiz-adv-x="305" 
d="M320 11l-15 -11q-57 0 -98 26.5t-54 71.5q-12 -46 -51.5 -72t-101.5 -26l-15 11l17 11q70 0 105 32.5t35 91.5v160h20v-160q0 -58 39 -91t105 -33zM78.5 -150.5q-4.5 4.5 -4.5 10.5q0 7 4.5 11.5t11.5 4.5t11.5 -4.5t4.5 -11.5q0 -6 -4.5 -10.5t-11.5 -4.5t-11.5 4.5z
M202.5 -150.5q-4.5 4.5 -4.5 10.5q0 7 4.5 11.5t11.5 4.5t11.5 -4.5t4.5 -11.5q0 -6 -4.5 -10.5t-11.5 -4.5t-11.5 4.5zM140.5 -243.5q-4.5 4.5 -4.5 11.5t4.5 11.5t11.5 4.5t11.5 -4.5t4.5 -11.5t-4.5 -11.5t-11.5 -4.5t-11.5 4.5z" />
    <glyph glyph-name="uni06D1.fina" unicode="&#x6d1;" horiz-adv-x="709" 
d="M709 0q-32 0 -57.5 6.5t-56.5 19.5q19 -19 19 -46q0 -42 -35 -80.5t-107 -63t-175 -24.5q-121 0 -177.5 55.5t-56.5 150.5q0 87 36 173l16 -5q-32 -81 -32 -166q0 -87 51.5 -136.5t164.5 -49.5q97 0 163.5 22.5t99.5 56.5t33 69q0 19 -13.5 34t-52.5 33t-120 45l9 19
q54 -18 131 -50q55 -23 87.5 -32t74.5 -9l13 -11zM227.5 -331.5q-4.5 4.5 -4.5 10.5q0 7 4.5 11.5t11.5 4.5t11.5 -4.5t4.5 -11.5q0 -6 -4.5 -10.5t-11.5 -4.5t-11.5 4.5zM351.5 -331.5q-4.5 4.5 -4.5 10.5q0 7 4.5 11.5t11.5 4.5t11.5 -4.5t4.5 -11.5q0 -6 -4.5 -10.5
t-11.5 -4.5t-11.5 4.5zM289.5 -424.5q-4.5 4.5 -4.5 11.5t4.5 11.5t11.5 4.5t11.5 -4.5t4.5 -11.5t-4.5 -11.5t-11.5 -4.5t-11.5 4.5z" />
    <glyph glyph-name="uni06D5.fina" unicode="&#x6d5;" horiz-adv-x="483" 
d="M497 11l-14 -11h-10q-59 0 -92 31.5t-40 97.5q-24 -40 -68 -64.5t-98 -24.5q-69 0 -107.5 35.5t-38.5 90.5q0 84 79 136t230 59v120l20 3v-322q0 -73 29.5 -106.5t88.5 -33.5h9zM274.5 87q42.5 25 63.5 64v188q-144 -6 -216.5 -51.5t-72.5 -119.5q0 -46 33 -76t96 -30
q54 0 96.5 25z" />
    <glyph glyph-name="uni06EE.fina" unicode="&#x6ee;" horiz-adv-x="505" 
d="M520 11l-15 -11q-48 0 -78 19.5t-46 57.5q-32 -43 -85.5 -66t-116.5 -23q-42 0 -77 7.5t-73 22.5l6 21q72 -28 146 -28q58 0 110 22.5t82 61.5l-148 370l22 10l141 -364q18 -48 44.5 -68.5t74.5 -20.5zM82 570l77 137h16l77 -137l-13 -6l-72 124l-72 -124z" />
    <glyph glyph-name="uni06FA.init" unicode="&#x6fa;" horiz-adv-x="794" 
d="M721 156q0 -78 -36 -117t-103 -39q-55 0 -91 25.5t-46 69.5q-10 -44 -42.5 -69.5t-87.5 -25.5q-57 0 -91 25t-43 69q-25 -94 -181 -94l-15 11l17 11q88 0 128.5 30.5t40.5 89.5v164h21v-159q0 -125 124 -125q58 0 87.5 33t29.5 92v159h21v-159q0 -60 34.5 -92.5
t95.5 -32.5q116 0 116 132q0 103 -39 214l20 7q40 -111 40 -219zM432.5 470.5q-4.5 4.5 -4.5 11.5t4.5 11.5t11.5 4.5t11.5 -4.5t4.5 -11.5t-4.5 -11.5t-11.5 -4.5t-11.5 4.5zM370.5 378.5q-4.5 4.5 -4.5 11.5q0 6 4.5 10.5t11.5 4.5t11.5 -4.5t4.5 -10.5q0 -7 -4.5 -11.5
t-11.5 -4.5t-11.5 4.5zM494.5 378.5q-4.5 4.5 -4.5 11.5q0 6 4.5 10.5t11.5 4.5t11.5 -4.5t4.5 -10.5q0 -7 -4.5 -11.5t-11.5 -4.5t-11.5 4.5zM437 -149q-5 5 -5 12t5 12t12 5t12 -5t5 -12t-5 -12t-12 -5t-12 5z" />
    <glyph glyph-name="uni06FA.medi" unicode="&#x6fa;" horiz-adv-x="912" 
d="M926 11l-14 -11q-78 0 -123 22.5t-58 71.5q-13 -46 -48 -70t-88 -24q-56 0 -92.5 25.5t-47.5 69.5q-10 -44 -43 -69.5t-88 -25.5q-56 0 -92.5 25.5t-45.5 69.5q-28 -95 -186 -95l-15 11l17 11q86 0 129.5 31.5t43.5 88.5v164h21v-159q0 -60 33.5 -92.5t94.5 -32.5
q60 0 90 32.5t30 92.5v159h21v-159q0 -60 34.5 -92.5t95.5 -32.5q59 0 90.5 31.5t31.5 92.5v220h21v-199q0 -80 41 -112.5t135 -32.5zM442.5 476.5q-4.5 4.5 -4.5 11.5t4.5 11.5t11.5 4.5t11.5 -4.5t4.5 -11.5t-4.5 -11.5t-11.5 -4.5t-11.5 4.5zM380.5 384.5
q-4.5 4.5 -4.5 11.5q0 6 4.5 10.5t11.5 4.5t11.5 -4.5t4.5 -10.5q0 -7 -4.5 -11.5t-11.5 -4.5t-11.5 4.5zM504.5 384.5q-4.5 4.5 -4.5 11.5q0 6 4.5 10.5t11.5 4.5t11.5 -4.5t4.5 -10.5q0 -7 -4.5 -11.5t-11.5 -4.5t-11.5 4.5zM442 -149q-5 5 -5 12t5 12t12 5t12 -5t5 -12
t-5 -12t-12 -5t-12 5z" />
    <glyph glyph-name="uni06FA.fina" unicode="&#x6fa;" horiz-adv-x="1277" 
d="M1292 11l-15 -11q-79 0 -123 22.5t-57 72.5q-13 -47 -49 -71t-89 -24t-89 25t-47 68q-10 -43 -42.5 -68t-86.5 -25q-84 0 -114 58q0 -154 -66 -223.5t-217 -69.5q-121 0 -177.5 55.5t-56.5 150.5q0 87 36 173l16 -6q-32 -79 -32 -166q0 -86 51.5 -135.5t164.5 -49.5
q96 0 153.5 28.5t83 87.5t25.5 153q0 42 -12.5 89.5t-39.5 126.5l21 9q32 -106 46 -169q11 -44 38.5 -67t81.5 -23q57 0 86 32.5t29 92.5v159h21v-159q0 -61 34 -93t93 -32q60 0 92 32t32 92l-1 204h21v-183q1 -80 41.5 -112.5t134.5 -32.5zM810.5 476.5q-4.5 4.5 -4.5 11.5
t4.5 11.5t11.5 4.5t11.5 -4.5t4.5 -11.5t-4.5 -11.5t-11.5 -4.5t-11.5 4.5zM748.5 384.5q-4.5 4.5 -4.5 11.5q0 6 4.5 10.5t11.5 4.5t11.5 -4.5t4.5 -10.5q0 -7 -4.5 -11.5t-11.5 -4.5t-11.5 4.5zM872.5 384.5q-4.5 4.5 -4.5 11.5q0 6 4.5 10.5t11.5 4.5t11.5 -4.5
t4.5 -10.5q0 -7 -4.5 -11.5t-11.5 -4.5t-11.5 4.5zM810 -149q-5 5 -5 12t5 12t12 5t12 -5t5 -12t-5 -12t-12 -5t-12 5z" />
    <glyph glyph-name="uni06FB.init" unicode="&#x6fb;" horiz-adv-x="911" 
d="M593 473q-5 5 -5 12q0 8 5 13t13 5q7 0 12 -5t5 -13q0 -7 -5 -12t-12 -5q-8 0 -13 5zM789.5 360q48.5 -56 48.5 -156q0 -81 -35.5 -125t-116.5 -61.5t-227 -17.5h-163q-56 0 -96 26t-52 71q-11 -46 -49 -71.5t-99 -25.5l-15 11l17 11q67 0 101 31.5t34 90.5v221h21v-221
q0 -55 34.5 -87t94.5 -35q55 181 147 287.5t208 106.5q99 0 147.5 -56zM674.5 38q76.5 16 110 55t33.5 111q0 189 -175 189q-109 0 -193.5 -97.5t-142.5 -273.5h152q139 0 215.5 16zM486 -125q5 -5 5 -12t-5 -12t-12 -5t-12 5t-5 12t5 12t12 5t12 -5z" />
    <glyph glyph-name="uni06FB.medi" unicode="&#x6fb;" horiz-adv-x="950" 
d="M593 473q-5 5 -5 12q0 8 5 13t13 5q7 0 12 -5t5 -13q0 -7 -5 -12t-12 -5q-8 0 -13 5zM965 11l-15 -11q-94 0 -151 75q-37 -42 -117 -58.5t-223 -16.5h-163q-56 0 -96 26t-52 71q-11 -46 -49 -71.5t-99 -25.5l-15 11l17 11q67 0 101 31.5t34 90.5v221h21v-221
q0 -55 34.5 -87t94.5 -35q55 181 147 287.5t208 106.5q99 0 147.5 -56t48.5 -156q0 -73 -27 -114q25 -34 59 -51t82 -17zM674.5 38q76.5 16 110 55t33.5 111q0 189 -175 189q-109 0 -193.5 -97.5t-142.5 -273.5h152q139 0 215.5 16zM486 -125q5 -5 5 -12t-5 -12t-12 -5
t-12 5t-5 12t5 12t12 5t12 -5z" />
    <glyph glyph-name="uni06FB.fina" unicode="&#x6fb;" horiz-adv-x="1349" 
d="M992 473q-5 5 -5 12q0 8 5 13t12 5q8 0 13 -5t5 -13q0 -7 -5 -12t-13 -5q-7 0 -12 5zM1363 11l-14 -11q-93 0 -152 75q-37 -42 -117 -58.5t-223 -16.5h-163v3q-84 0 -114 58q0 -154 -66 -223.5t-217 -69.5q-121 0 -177.5 55.5t-56.5 150.5q0 87 36 172l16 -5
q-32 -79 -32 -166t51.5 -136t164.5 -49q96 0 153.5 28.5t83 87.5t25.5 153q0 42 -12.5 89.5t-39.5 126.5l21 9q32 -106 46 -169q10 -42 35.5 -65t75.5 -25q56 179 147 285t206 106q99 0 148 -56t49 -156q0 -71 -28 -114q26 -34 60 -51t82 -17zM1072.5 38q76.5 16 110 55
t33.5 111q0 189 -174 189q-110 0 -194.5 -97.5t-142.5 -273.5h152q139 0 215.5 16zM885 -125q5 -5 5 -12t-5 -12t-12 -5q-8 0 -13 5t-5 12t5 12t13 5q7 0 12 -5z" />
    <glyph glyph-name="uni06FC.init" unicode="&#x6fc;" horiz-adv-x="523" 
d="M497 51q-129 -31 -212 -41t-213 -10h-72l-15 11l17 11h65q104 0 162 5q-78 42 -117.5 92.5t-39.5 112.5q0 44 20.5 81.5t62 60.5t101.5 23q32 0 68 -9.5t67 -27.5l-10 -20q-29 17 -62.5 26t-62.5 9q-80 0 -121.5 -41.5t-41.5 -101.5t40.5 -109t127.5 -94q50 5 100.5 15
t132.5 29zM244 469q-5 5 -5 12t5 12t12 5t12 -5t5 -12t-5 -12t-12 -5t-12 5zM248 -149q-5 5 -5 12t5 12t12 5t12 -5t5 -12t-5 -12t-12 -5t-12 5z" />
    <glyph glyph-name="uni06FC.medi" unicode="&#x6fc;" horiz-adv-x="534" 
d="M549 10l-15 -10h-16q-120 0 -221 83q-69 -38 -147.5 -60.5t-131.5 -22.5h-18l-15 10l17 12h12q52 0 126.5 20t140.5 54q-30 28 -66 65q-44 45 -79.5 78t-86.5 70l2 22q55 22 106.5 35t110.5 13q88 0 136 -30t48 -81q0 -48 -36.5 -92.5t-98.5 -80.5q47 -38 94 -55.5
t111 -17.5h14zM145.5 255.5q32.5 -29.5 76.5 -72.5q45 -45 80 -75q60 34 95 74.5t35 84.5q0 43 -42 66.5t-122 23.5q-100 0 -197 -41q42 -31 74.5 -60.5zM256 456q-5 5 -5 12t5 12t12 5t12 -5t5 -12t-5 -12t-12 -5t-12 5zM278 -149q-5 5 -5 12t5 12t12 5t12 -5t5 -12t-5 -12
t-12 -5t-12 5z" />
    <glyph glyph-name="uni06FC.fina" unicode="&#x6fc;" horiz-adv-x="550" 
d="M131.5 14q-47.5 -56 -47.5 -135q0 -56 30.5 -101.5t89.5 -72t140 -26.5q58 0 108 11t88 31l8 -20q-38 -20 -91 -32t-115 -12q-87 0 -150 30t-96 80t-33 111q0 85 50 146.5t142 99.5l-40 39q-44 44 -78 75.5t-84 70.5l2 22q116 48 226 48q176 0 176 -107q0 -47 -39 -82.5
t-123 -71.5q63 -54 112 -75t121 -21h23l13 -11l-14 -11h-25q-71 0 -128.5 25.5t-123.5 82.5l-0.5 0.5l-0.5 0.5q-93 -39 -140.5 -95zM150.5 253.5q33.5 -30.5 75.5 -71.5q19 -19 51 -49q84 33 122 65t38 72q0 43 -38 65t-118 22q-104 0 -206 -41q42 -32 75.5 -62.5zM261 458
q-5 5 -5 12t5 12t12 5t12 -5t5 -12t-5 -12t-12 -5t-12 5zM302 -125q-5 5 -5 12t5 12t12 5t12 -5t5 -12t-5 -12t-12 -5t-12 5z" />
    <glyph glyph-name="uni06FF.init" unicode="&#x6ff;" horiz-adv-x="625" 
d="M439.5 300.5q113.5 -89.5 113.5 -163.5q0 -43 -24 -77t-62 -53t-78 -19q-41 0 -86 13.5t-87 37.5q-86 -39 -200 -39h-16l-15 11l17 11h11q107 0 181 31q-56 38 -90 89.5t-34 108.5q0 45 19.5 82.5t54.5 59.5t78 22h7q-56 32 -117 63l11 20q203 -108 316.5 -197.5z
M125 147q35 -49 92 -84q64 30 97 79.5t33 104.5q0 63 -35 107t-90 44q-58 0 -95 -42.5t-37 -104.5q0 -55 35 -104zM455.5 25.5q33.5 15.5 55 44t21.5 65.5q0 43 -50.5 97t-142.5 115q28 -44 28 -99q0 -57 -32.5 -109.5t-95.5 -87.5q36 -20 75 -30.5t75 -10.5q33 0 66.5 15.5
zM270 525l77 137h16l77 -137l-13 -6l-72 124l-72 -124z" />
    <glyph glyph-name="uni06FF.medi" unicode="&#x6ff;" horiz-adv-x="479" 
d="M481 0h-181q57 -18 88 -50.5t31 -85.5q0 -46 -31 -78t-87 -32q-57 0 -100.5 31.5t-68 87.5t-25.5 127h-107l-15 11l17 11h105q1 84 29.5 156.5t76.5 115t103 42.5q47 0 76.5 -30t29.5 -89q0 -37 -17 -76.5t-48.5 -71.5t-72.5 -47h199l13 -11zM222.5 275
q-42.5 -39 -68.5 -106t-28 -147h81q55 0 99.5 29t69.5 74t25 90q0 49 -24.5 74t-63.5 25q-48 0 -90.5 -39zM373 -61.5q-26 30.5 -68 46t-89 15.5h-90q2 -101 48.5 -162.5t124.5 -61.5q49 0 74.5 26t25.5 63q0 43 -26 73.5zM229 403l77 137h16l77 -137l-13 -6l-72 124
l-72 -124z" />
    <glyph glyph-name="uni06FF.fina" unicode="&#x6ff;" horiz-adv-x="554" 
d="M554 0h-181q57 -18 88 -50.5t31 -85.5q0 -46 -31 -78t-87 -32q-57 0 -100.5 31.5t-68 87.5t-25.5 127q-42 1 -75 6.5t-62 19.5l10 19q27 -13 56.5 -17.5t70.5 -5.5q1 84 29.5 156.5t76.5 115t103 42.5q47 0 76.5 -30t29.5 -89q0 -37 -17 -76.5t-48.5 -71.5t-72.5 -47h199
l13 -11zM295.5 275q-42.5 -39 -68.5 -106t-28 -147h81q55 0 99.5 29t69.5 74t25 90q0 49 -24.5 74t-63.5 25q-48 0 -90.5 -39zM446 -61.5q-26 30.5 -68 46t-89 15.5h-90q2 -101 48.5 -162.5t124.5 -61.5q49 0 74.5 26t25.5 63q0 43 -26 73.5zM304 403l77 137h16l77 -137
l-13 -6l-72 124l-72 -124z" />
    <glyph glyph-name="uniFB51" unicode="&#x671;" horiz-adv-x="221" arabic-form="final" 
d="M93 701l20 2v-570q0 -58 28 -84.5t82 -26.5l13 -11l-15 -11q-61 0 -94.5 32.5t-33.5 99.5v569zM209 901q16 -16 16 -40q0 -32 -27 -49t-72 -17q-37 0 -94 19l-17 -44l-14 5l20 58q11 -4 33 -10q46 94 109 94q30 0 46 -16zM187.5 823.5q21.5 12.5 21.5 35.5q0 18 -11 30
t-36 12q-53 0 -96 -81q35 -9 63 -9q37 0 58.5 12.5z" />
    <glyph glyph-name="uniFB53" unicode="&#x67b;" horiz-adv-x="865" arabic-form="final" 
d="M879 12l-14 -12q-63 0 -96.5 28t-47.5 61q-136 -101 -392 -101q-135 0 -200.5 43t-65.5 129q0 74 35 147l16 -6q-31 -68 -31 -139q0 -76 60.5 -114t187.5 -38q126 0 223.5 26t157.5 73v197h20v-180q0 -20 12.5 -44t43 -42t79.5 -18zM341 -132.5q-5 4.5 -5 11.5t5 12t11 5
q7 0 11.5 -5t4.5 -12t-4.5 -11.5t-11.5 -4.5q-6 0 -11 4.5zM341 -255q-5 5 -5 12t5 11.5t11 4.5q7 0 11.5 -4.5t4.5 -11.5t-4.5 -12t-11.5 -5q-6 0 -11 5z" />
    <glyph glyph-name="uniFB54" unicode="&#x67b;" horiz-adv-x="252" arabic-form="initial" 
d="M100 36q34 14 46.5 42t12.5 76q0 54 -9.5 105.5t-30.5 109.5l21 7q39 -112 39 -222q0 -56 -15.5 -89t-54 -49t-109.5 -16l-15 11l17 11q64 0 98 14zM100 -132.5q-5 4.5 -5 11.5t5 12t11 5q7 0 11.5 -5t4.5 -12t-4.5 -11.5t-11.5 -4.5q-6 0 -11 4.5zM100 -255q-5 5 -5 12
t5 11.5t11 4.5q7 0 11.5 -4.5t4.5 -11.5t-4.5 -12t-11.5 -5q-6 0 -11 5z" />
    <glyph glyph-name="uniFB55" unicode="&#x67b;" horiz-adv-x="305" arabic-form="medial" 
d="M320 11l-15 -11q-57 0 -98 26.5t-54 71.5q-12 -46 -51.5 -72t-101.5 -26l-15 11l17 11q70 0 105 32.5t35 91.5v160h20v-160q0 -58 39 -91t105 -33zM140 -132.5q-5 4.5 -5 11.5t5 12t11 5q7 0 11.5 -5t4.5 -12t-4.5 -11.5t-11.5 -4.5q-6 0 -11 4.5zM140 -255q-5 5 -5 12
t5 11.5t11 4.5q7 0 11.5 -4.5t4.5 -11.5t-4.5 -12t-11.5 -5q-6 0 -11 5z" />
    <glyph glyph-name="uniFB57" unicode="&#x67e;" horiz-adv-x="865" arabic-form="final" 
d="M879 12l-14 -12q-63 0 -96.5 28t-47.5 61q-136 -101 -392 -101q-135 0 -200.5 43t-65.5 129q0 74 35 147l16 -6q-31 -68 -31 -139q0 -76 60.5 -114t187.5 -38q126 0 223.5 26t157.5 73v197h20v-180q0 -20 12.5 -44t43 -42t79.5 -18zM279.5 -150.5q-4.5 4.5 -4.5 10.5
q0 7 4.5 11.5t11.5 4.5t11.5 -4.5t4.5 -11.5q0 -6 -4.5 -10.5t-11.5 -4.5t-11.5 4.5zM403.5 -150.5q-4.5 4.5 -4.5 10.5q0 7 4.5 11.5t11.5 4.5t11.5 -4.5t4.5 -11.5q0 -6 -4.5 -10.5t-11.5 -4.5t-11.5 4.5zM341.5 -243.5q-4.5 4.5 -4.5 11.5t4.5 11.5t11.5 4.5t11.5 -4.5
t4.5 -11.5t-4.5 -11.5t-11.5 -4.5t-11.5 4.5z" />
    <glyph glyph-name="uniFB58" unicode="&#x67e;" horiz-adv-x="252" arabic-form="initial" 
d="M100 36q34 14 46.5 42t12.5 76q0 54 -9.5 105.5t-30.5 109.5l21 7q39 -112 39 -222q0 -56 -15.5 -89t-54 -49t-109.5 -16l-15 11l17 11q64 0 98 14zM37.5 -150.5q-4.5 4.5 -4.5 10.5q0 7 4.5 11.5t11.5 4.5t11.5 -4.5t4.5 -11.5q0 -6 -4.5 -10.5t-11.5 -4.5t-11.5 4.5z
M161.5 -150.5q-4.5 4.5 -4.5 10.5q0 7 4.5 11.5t11.5 4.5t11.5 -4.5t4.5 -11.5q0 -6 -4.5 -10.5t-11.5 -4.5t-11.5 4.5zM99.5 -243.5q-4.5 4.5 -4.5 11.5t4.5 11.5t11.5 4.5t11.5 -4.5t4.5 -11.5t-4.5 -11.5t-11.5 -4.5t-11.5 4.5z" />
    <glyph glyph-name="uniFB59" unicode="&#x67e;" horiz-adv-x="305" arabic-form="medial" 
d="M320 11l-15 -11q-57 0 -98 26.5t-54 71.5q-12 -46 -51.5 -72t-101.5 -26l-15 11l17 11q70 0 105 32.5t35 91.5v160h20v-160q0 -58 39 -91t105 -33zM78.5 -150.5q-4.5 4.5 -4.5 10.5q0 7 4.5 11.5t11.5 4.5t11.5 -4.5t4.5 -11.5q0 -6 -4.5 -10.5t-11.5 -4.5t-11.5 4.5z
M202.5 -150.5q-4.5 4.5 -4.5 10.5q0 7 4.5 11.5t11.5 4.5t11.5 -4.5t4.5 -11.5q0 -6 -4.5 -10.5t-11.5 -4.5t-11.5 4.5zM140.5 -243.5q-4.5 4.5 -4.5 11.5t4.5 11.5t11.5 4.5t11.5 -4.5t4.5 -11.5t-4.5 -11.5t-11.5 -4.5t-11.5 4.5z" />
    <glyph glyph-name="uniFB5B" unicode="&#x680;" horiz-adv-x="865" arabic-form="final" 
d="M879 12l-14 -12q-63 0 -96.5 28t-47.5 61q-136 -101 -392 -101q-135 0 -200.5 43t-65.5 129q0 74 35 147l16 -6q-31 -68 -31 -139q0 -76 60.5 -114t187.5 -38q126 0 223.5 26t157.5 73v197h20v-180q0 -20 12.5 -44t43 -42t79.5 -18zM281 -113.5q-4 4.5 -4 10.5
q0 7 4 11.5t11 4.5t11.5 -4.5t4.5 -11.5q0 -6 -4.5 -10.5t-11.5 -4.5t-11 4.5zM402.5 -113.5q-4.5 4.5 -4.5 10.5q0 7 4.5 11.5t11.5 4.5t11 -4.5t4 -11.5q0 -6 -4 -10.5t-11 -4.5t-11.5 4.5zM281 -225q-4 4 -4 10q0 7 4 11.5t11 4.5t11.5 -4.5t4.5 -11.5q0 -6 -4.5 -10
t-11.5 -4t-11 4zM402.5 -225q-4.5 4 -4.5 10q0 7 4.5 11.5t11.5 4.5t11 -4.5t4 -11.5q0 -6 -4 -10t-11 -4t-11.5 4z" />
    <glyph glyph-name="uniFB5C" unicode="&#x680;" horiz-adv-x="252" arabic-form="initial" 
d="M100 36q34 14 46.5 42t12.5 76q0 54 -9.5 105.5t-30.5 109.5l21 7q39 -112 39 -222q0 -56 -15.5 -89t-54 -49t-109.5 -16l-15 11l17 11q64 0 98 14zM39 -113.5q-4 4.5 -4 10.5q0 7 4 11.5t11 4.5t11.5 -4.5t4.5 -11.5q0 -6 -4.5 -10.5t-11.5 -4.5t-11 4.5zM160.5 -113.5
q-4.5 4.5 -4.5 10.5q0 7 4.5 11.5t11.5 4.5t11 -4.5t4 -11.5q0 -6 -4 -10.5t-11 -4.5t-11.5 4.5zM39 -225q-4 4 -4 10q0 7 4 11.5t11 4.5t11.5 -4.5t4.5 -11.5q0 -6 -4.5 -10t-11.5 -4t-11 4zM160.5 -225q-4.5 4 -4.5 10q0 7 4.5 11.5t11.5 4.5t11 -4.5t4 -11.5q0 -6 -4 -10
t-11 -4t-11.5 4z" />
    <glyph glyph-name="uniFB5D" unicode="&#x680;" horiz-adv-x="305" arabic-form="medial" 
d="M320 11l-15 -11q-57 0 -98 26.5t-54 71.5q-12 -46 -51.5 -72t-101.5 -26l-15 11l17 11q70 0 105 32.5t35 91.5v160h20v-160q0 -58 39 -91t105 -33zM80 -113.5q-4 4.5 -4 10.5q0 7 4 11.5t11 4.5t11.5 -4.5t4.5 -11.5q0 -6 -4.5 -10.5t-11.5 -4.5t-11 4.5zM201.5 -113.5
q-4.5 4.5 -4.5 10.5q0 7 4.5 11.5t11.5 4.5t11 -4.5t4 -11.5q0 -6 -4 -10.5t-11 -4.5t-11.5 4.5zM80 -225q-4 4 -4 10q0 7 4 11.5t11 4.5t11.5 -4.5t4.5 -11.5q0 -6 -4.5 -10t-11.5 -4t-11 4zM201.5 -225q-4.5 4 -4.5 10q0 7 4.5 11.5t11.5 4.5t11 -4.5t4 -11.5q0 -6 -4 -10
t-11 -4t-11.5 4z" />
    <glyph glyph-name="uniFB5F" unicode="&#x67a;" horiz-adv-x="865" arabic-form="final" 
d="M879 12l-14 -12q-63 0 -96.5 28t-47.5 61q-136 -101 -392 -101q-135 0 -200.5 43t-65.5 129q0 74 35 147l16 -6q-31 -68 -31 -139q0 -76 60.5 -114t187.5 -38q126 0 223.5 26t157.5 73v197h20v-180q0 -20 12.5 -44t43 -42t79.5 -18zM389 500.5q-5 4.5 -5 11.5t5 12t11 5
q7 0 11.5 -5t4.5 -12t-4.5 -11.5t-11.5 -4.5q-6 0 -11 4.5zM389 378q-5 5 -5 12t5 11.5t11 4.5q7 0 11.5 -4.5t4.5 -11.5t-4.5 -12t-11.5 -5q-6 0 -11 5z" />
    <glyph glyph-name="uniFB60" unicode="&#x67a;" horiz-adv-x="252" arabic-form="initial" 
d="M100 36q34 14 46.5 42t12.5 76q0 54 -9.5 105.5t-30.5 109.5l21 7q39 -112 39 -222q0 -56 -15.5 -89t-54 -49t-109.5 -16l-15 11l17 11q64 0 98 14zM107 591.5q-5 4.5 -5 11.5t5 12t11 5q7 0 11.5 -5t4.5 -12t-4.5 -11.5t-11.5 -4.5q-6 0 -11 4.5zM107 469q-5 5 -5 12
t5 11.5t11 4.5q7 0 11.5 -4.5t4.5 -11.5t-4.5 -12t-11.5 -5q-6 0 -11 5z" />
    <glyph glyph-name="uniFB61" unicode="&#x67a;" horiz-adv-x="305" arabic-form="medial" 
d="M320 11l-15 -11q-57 0 -98 26.5t-54 71.5q-12 -46 -51.5 -72t-101.5 -26l-15 11l17 11q70 0 105 32.5t35 91.5v160h20v-160q0 -58 39 -91t105 -33zM141 514.5q-5 4.5 -5 11.5t5 12t11 5q7 0 11.5 -5t4.5 -12t-4.5 -11.5t-11.5 -4.5q-6 0 -11 4.5zM141 392q-5 5 -5 12
t5 11.5t11 4.5q7 0 11.5 -4.5t4.5 -11.5t-4.5 -12t-11.5 -5q-6 0 -11 5z" />
    <glyph glyph-name="uniFB63" unicode="&#x67f;" horiz-adv-x="865" arabic-form="final" 
d="M879 12l-14 -12q-63 0 -96.5 28t-47.5 61q-136 -101 -392 -101q-135 0 -200.5 43t-65.5 129q0 74 35 147l16 -6q-31 -68 -31 -139q0 -76 60.5 -114t187.5 -38q126 0 223.5 26t157.5 73v197h20v-180q0 -20 12.5 -44t43 -42t79.5 -18zM329 476.5q-4 4.5 -4 10.5q0 7 4 11.5
t11 4.5t11.5 -4.5t4.5 -11.5q0 -6 -4.5 -10.5t-11.5 -4.5t-11 4.5zM450.5 476.5q-4.5 4.5 -4.5 10.5q0 7 4.5 11.5t11.5 4.5t11 -4.5t4 -11.5q0 -6 -4 -10.5t-11 -4.5t-11.5 4.5zM329 364.5q-4 4.5 -4 10.5q0 7 4 11.5t11 4.5t11.5 -4.5t4.5 -11.5q0 -6 -4.5 -10.5
t-11.5 -4.5t-11 4.5zM450.5 364.5q-4.5 4.5 -4.5 10.5q0 7 4.5 11.5t11.5 4.5t11 -4.5t4 -11.5q0 -6 -4 -10.5t-11 -4.5t-11.5 4.5z" />
    <glyph glyph-name="uniFB64" unicode="&#x67f;" horiz-adv-x="252" arabic-form="initial" 
d="M100 36q34 14 46.5 42t12.5 76q0 54 -9.5 105.5t-30.5 109.5l21 7q39 -112 39 -222q0 -56 -15.5 -89t-54 -49t-109.5 -16l-15 11l17 11q64 0 98 14zM47 567.5q-4 4.5 -4 10.5q0 7 4 11.5t11 4.5t11.5 -4.5t4.5 -11.5q0 -6 -4.5 -10.5t-11.5 -4.5t-11 4.5zM168.5 567.5
q-4.5 4.5 -4.5 10.5q0 7 4.5 11.5t11.5 4.5t11 -4.5t4 -11.5q0 -6 -4 -10.5t-11 -4.5t-11.5 4.5zM47 455.5q-4 4.5 -4 10.5q0 7 4 11.5t11 4.5t11.5 -4.5t4.5 -11.5q0 -6 -4.5 -10.5t-11.5 -4.5t-11 4.5zM168.5 455.5q-4.5 4.5 -4.5 10.5q0 7 4.5 11.5t11.5 4.5t11 -4.5
t4 -11.5q0 -6 -4 -10.5t-11 -4.5t-11.5 4.5z" />
    <glyph glyph-name="uniFB65" unicode="&#x67f;" horiz-adv-x="305" arabic-form="medial" 
d="M320 11l-15 -11q-57 0 -98 26.5t-54 71.5q-12 -46 -51.5 -72t-101.5 -26l-15 11l17 11q70 0 105 32.5t35 91.5v160h20v-160q0 -58 39 -91t105 -33zM80 490.5q-4 4.5 -4 10.5q0 7 4 11.5t11 4.5t11.5 -4.5t4.5 -11.5q0 -6 -4.5 -10.5t-11.5 -4.5t-11 4.5zM201.5 490.5
q-4.5 4.5 -4.5 10.5q0 7 4.5 11.5t11.5 4.5t11 -4.5t4 -11.5q0 -6 -4 -10.5t-11 -4.5t-11.5 4.5zM80 378.5q-4 4.5 -4 10.5q0 7 4 11.5t11 4.5t11.5 -4.5t4.5 -11.5q0 -6 -4.5 -10.5t-11.5 -4.5t-11 4.5zM201.5 378.5q-4.5 4.5 -4.5 10.5q0 7 4.5 11.5t11.5 4.5t11 -4.5
t4 -11.5q0 -6 -4 -10.5t-11 -4.5t-11.5 4.5z" />
    <glyph glyph-name="uniFB67" unicode="&#x679;" horiz-adv-x="865" arabic-form="final" 
d="M879 12l-14 -12q-63 0 -96.5 28t-47.5 61q-136 -101 -392 -101q-135 0 -200.5 43t-65.5 129q0 74 35 147l16 -6q-31 -68 -31 -139q0 -76 60.5 -114t187.5 -38q126 0 223.5 26t157.5 73v197h20v-180q0 -20 12.5 -44t43 -42t79.5 -18zM497 485.5q18 -19.5 18 -50.5
q0 -30 -22 -51t-66 -21h-140l2 15h20q4 8 19 33v149h15v-126q50 71 106 71q30 0 48 -19.5zM481 394q19 16 19 42q0 24 -14 38.5t-39 14.5q-62 0 -121 -111h98q38 0 57 16z" />
    <glyph glyph-name="uniFB68" unicode="&#x679;" horiz-adv-x="252" arabic-form="initial" 
d="M100 36q34 14 46.5 42t12.5 76q0 54 -9.5 105.5t-30.5 109.5l21 7q39 -112 39 -222q0 -56 -15.5 -89t-54 -49t-109.5 -16l-15 11l17 11q64 0 98 14zM215 576.5q18 -19.5 18 -50.5q0 -30 -22 -51t-66 -21h-140l2 15h20q4 8 19 33v149h15v-126q50 71 106 71q30 0 48 -19.5z
M199 485q19 16 19 42q0 24 -14 38.5t-39 14.5q-62 0 -121 -111h98q38 0 57 16z" />
    <glyph glyph-name="uniFB69" unicode="&#x679;" horiz-adv-x="305" arabic-form="medial" 
d="M320 11l-15 -11q-57 0 -98 26.5t-54 71.5q-12 -46 -51.5 -72t-101.5 -26l-15 11l17 11q70 0 105 32.5t35 91.5v160h20v-160q0 -58 39 -91t105 -33zM248 499.5q18 -19.5 18 -50.5q0 -30 -22 -51t-66 -21h-140l2 15h20q4 8 19 33v149h15v-126q50 71 106 71q30 0 48 -19.5z
M232 408q19 16 19 42q0 24 -14 38.5t-39 14.5q-62 0 -121 -111h98q38 0 57 16z" />
    <glyph glyph-name="uniFB6B" unicode="&#x6a4;" horiz-adv-x="955" arabic-form="final" 
d="M970 11l-15 -11h-23q-56 0 -112.5 13.5t-104.5 38.5q-143 -64 -386 -64q-135 0 -200.5 43t-65.5 129q0 74 35 147l16 -6q-31 -68 -31 -139q0 -76 60.5 -114t187.5 -38q226 0 363 53q-61 36 -96.5 86.5t-35.5 110.5q0 49 20.5 90.5t56 65.5t79.5 24q50 0 87 -24.5t57 -66
t20 -91.5q0 -54 -35.5 -106t-109.5 -90q91 -40 195 -40h25zM618 153q36 -48 98 -81q75 34 110 82.5t35 103.5q0 69 -38.5 114.5t-104.5 45.5q-39 0 -70 -21t-48.5 -57t-17.5 -80q0 -59 36 -107zM706.5 599.5q-4.5 4.5 -4.5 11.5t4.5 11.5t11.5 4.5t11.5 -4.5t4.5 -11.5
t-4.5 -11.5t-11.5 -4.5t-11.5 4.5zM644.5 507.5q-4.5 4.5 -4.5 11.5q0 6 4.5 10.5t11.5 4.5t11.5 -4.5t4.5 -10.5q0 -7 -4.5 -11.5t-11.5 -4.5t-11.5 4.5zM768.5 507.5q-4.5 4.5 -4.5 11.5q0 6 4.5 10.5t11.5 4.5t11.5 -4.5t4.5 -10.5q0 -7 -4.5 -11.5t-11.5 -4.5t-11.5 4.5
z" />
    <glyph glyph-name="uniFB6C" unicode="&#x6a4;" horiz-adv-x="448" arabic-form="initial" 
d="M329.5 457.5q45.5 -67.5 45.5 -193.5q0 -94 -30.5 -150t-112 -85t-232.5 -29l-15 12l17 10q137 0 212.5 23t105.5 68t33 121q-24 -20 -61.5 -31.5t-73.5 -11.5q-77 0 -124 44.5t-47 116.5q0 45 20.5 84.5t57 64t81.5 24.5q78 0 123.5 -67.5zM292 223.5q37 10.5 62 27.5
v11q0 119 -39 180t-110 61q-40 0 -71.5 -21t-48.5 -55.5t-17 -72.5q0 -65 41 -103t114 -38q32 0 69 10.5zM193.5 689.5q-4.5 4.5 -4.5 11.5t4.5 11.5t11.5 4.5t11.5 -4.5t4.5 -11.5t-4.5 -11.5t-11.5 -4.5t-11.5 4.5zM131.5 597.5q-4.5 4.5 -4.5 11.5q0 6 4.5 10.5t11.5 4.5
t11.5 -4.5t4.5 -10.5q0 -7 -4.5 -11.5t-11.5 -4.5t-11.5 4.5zM255.5 597.5q-4.5 4.5 -4.5 11.5q0 6 4.5 10.5t11.5 4.5t11.5 -4.5t4.5 -10.5q0 -7 -4.5 -11.5t-11.5 -4.5t-11.5 4.5z" />
    <glyph glyph-name="uniFB6D" unicode="&#x6a4;" horiz-adv-x="476" arabic-form="medial" 
d="M490 11l-14 -11h-23q-54 0 -107.5 12t-100.5 35q-97 -47 -226 -47h-19l-15 11l17 11h19q116 0 202 36q-65 36 -102.5 87.5t-37.5 112.5q0 48 20.5 89t56 65t78.5 24q50 0 87 -24.5t57 -65.5t20 -91q0 -55 -35 -107.5t-100 -89.5q88 -36 186 -36h25zM141.5 148.5
q38.5 -48.5 103.5 -80.5q66 33 101.5 82t35.5 105q0 68 -38.5 113.5t-104.5 45.5q-39 0 -70 -20.5t-48.5 -56.5t-17.5 -79q0 -61 38.5 -109.5zM226.5 597.5q-4.5 4.5 -4.5 11.5t4.5 11.5t11.5 4.5t11.5 -4.5t4.5 -11.5t-4.5 -11.5t-11.5 -4.5t-11.5 4.5zM164.5 505.5
q-4.5 4.5 -4.5 11.5q0 6 4.5 10.5t11.5 4.5t11.5 -4.5t4.5 -10.5q0 -7 -4.5 -11.5t-11.5 -4.5t-11.5 4.5zM288.5 505.5q-4.5 4.5 -4.5 11.5q0 6 4.5 10.5t11.5 4.5t11.5 -4.5t4.5 -10.5q0 -7 -4.5 -11.5t-11.5 -4.5t-11.5 4.5z" />
    <glyph glyph-name="uniFB6F" unicode="&#x6a6;" horiz-adv-x="955" arabic-form="final" 
d="M970 11l-15 -11h-23q-56 0 -112.5 13.5t-104.5 38.5q-143 -64 -386 -64q-135 0 -200.5 43t-65.5 129q0 74 35 147l16 -6q-31 -68 -31 -139q0 -76 60.5 -114t187.5 -38q226 0 363 53q-61 36 -96.5 86.5t-35.5 110.5q0 49 20.5 90.5t56 65.5t79.5 24q50 0 87 -24.5t57 -66
t20 -91.5q0 -54 -35.5 -106t-109.5 -90q91 -40 195 -40h25zM618 153q36 -48 98 -81q75 34 110 82.5t35 103.5q0 69 -38.5 114.5t-104.5 45.5q-39 0 -70 -21t-48.5 -57t-17.5 -80q0 -59 36 -107zM646 613.5q-4 4.5 -4 10.5q0 7 4 11.5t11 4.5t11.5 -4.5t4.5 -11.5
q0 -6 -4.5 -10.5t-11.5 -4.5t-11 4.5zM767.5 613.5q-4.5 4.5 -4.5 10.5q0 7 4.5 11.5t11.5 4.5t11 -4.5t4 -11.5q0 -6 -4 -10.5t-11 -4.5t-11.5 4.5zM646 501.5q-4 4.5 -4 10.5q0 7 4 11.5t11 4.5t11.5 -4.5t4.5 -11.5q0 -6 -4.5 -10.5t-11.5 -4.5t-11 4.5zM767.5 501.5
q-4.5 4.5 -4.5 10.5q0 7 4.5 11.5t11.5 4.5t11 -4.5t4 -11.5q0 -6 -4 -10.5t-11 -4.5t-11.5 4.5z" />
    <glyph glyph-name="uniFB70" unicode="&#x6a6;" horiz-adv-x="448" arabic-form="initial" 
d="M329.5 457.5q45.5 -67.5 45.5 -193.5q0 -94 -30.5 -150t-112 -85t-232.5 -29l-15 12l17 10q137 0 212.5 23t105.5 68t33 121q-24 -20 -61.5 -31.5t-73.5 -11.5q-77 0 -124 44.5t-47 116.5q0 45 20.5 84.5t57 64t81.5 24.5q78 0 123.5 -67.5zM292 223.5q37 10.5 62 27.5
v11q0 119 -39 180t-110 61q-40 0 -71.5 -21t-48.5 -55.5t-17 -72.5q0 -65 41 -103t114 -38q32 0 69 10.5zM133 703.5q-4 4.5 -4 10.5q0 7 4 11.5t11 4.5t11.5 -4.5t4.5 -11.5q0 -6 -4.5 -10.5t-11.5 -4.5t-11 4.5zM254.5 703.5q-4.5 4.5 -4.5 10.5q0 7 4.5 11.5t11.5 4.5
t11 -4.5t4 -11.5q0 -6 -4 -10.5t-11 -4.5t-11.5 4.5zM133 591.5q-4 4.5 -4 10.5q0 7 4 11.5t11 4.5t11.5 -4.5t4.5 -11.5q0 -6 -4.5 -10.5t-11.5 -4.5t-11 4.5zM254.5 591.5q-4.5 4.5 -4.5 10.5q0 7 4.5 11.5t11.5 4.5t11 -4.5t4 -11.5q0 -6 -4 -10.5t-11 -4.5t-11.5 4.5z
" />
    <glyph glyph-name="uniFB71" unicode="&#x6a6;" horiz-adv-x="476" arabic-form="medial" 
d="M490 11l-14 -11h-23q-54 0 -107.5 12t-100.5 35q-97 -47 -226 -47h-19l-15 11l17 11h19q116 0 202 36q-65 36 -102.5 87.5t-37.5 112.5q0 48 20.5 89t56 65t78.5 24q50 0 87 -24.5t57 -65.5t20 -91q0 -55 -35 -107.5t-100 -89.5q88 -36 186 -36h25zM141.5 148.5
q38.5 -48.5 103.5 -80.5q66 33 101.5 82t35.5 105q0 68 -38.5 113.5t-104.5 45.5q-39 0 -70 -20.5t-48.5 -56.5t-17.5 -79q0 -61 38.5 -109.5zM166 611.5q-4 4.5 -4 10.5q0 7 4 11.5t11 4.5t11.5 -4.5t4.5 -11.5q0 -6 -4.5 -10.5t-11.5 -4.5t-11 4.5zM287.5 611.5
q-4.5 4.5 -4.5 10.5q0 7 4.5 11.5t11.5 4.5t11 -4.5t4 -11.5q0 -6 -4 -10.5t-11 -4.5t-11.5 4.5zM166 499.5q-4 4.5 -4 10.5q0 7 4 11.5t11 4.5t11.5 -4.5t4.5 -11.5q0 -6 -4.5 -10.5t-11.5 -4.5t-11 4.5zM287.5 499.5q-4.5 4.5 -4.5 10.5q0 7 4.5 11.5t11.5 4.5t11 -4.5
t4 -11.5q0 -6 -4 -10.5t-11 -4.5t-11.5 4.5z" />
    <glyph glyph-name="uniFB73" unicode="&#x684;" horiz-adv-x="701" arabic-form="final" 
d="M196 117.5q-95 -75.5 -95 -201.5q0 -66 32 -119.5t96 -85.5t157 -32q61 0 118 12.5t96 32.5l8 -20q-39 -20 -99.5 -33.5t-124.5 -13.5q-99 0 -167.5 35t-102 93.5t-33.5 130.5q0 147 118 229t332 90q-52 19 -88 42t-76 55q-42 34 -71.5 49t-72.5 15q-35 0 -62 -7.5
t-58 -26.5l-10 19q34 20 64 28.5t67 8.5q47 0 80 -17.5t78 -54.5q50 -40 93 -65.5t108 -42.5l-3 -19l-22 -1q-48 -2 -73 -4q15 -106 69 -149t149 -43l12 -11l-14 -11q-101 0 -160 49.5t-73 162.5q-177 -19 -272 -94.5zM346 -21.5q-5 4.5 -5 11.5t5 12t11 5q7 0 11.5 -5
t4.5 -12t-4.5 -11.5t-11.5 -4.5q-6 0 -11 4.5zM346 -145q-5 5 -5 12t5 11.5t11 4.5q7 0 11.5 -4.5t4.5 -11.5t-4.5 -12t-11.5 -5q-6 0 -11 5z" />
    <glyph glyph-name="uniFB74" unicode="&#x684;" horiz-adv-x="687" arabic-form="initial" 
d="M286.5 406.5q30.5 -11.5 53.5 -29t59 -49.5q56 -51 106.5 -84t130.5 -55l-3 -21l-27 -2q-93 -2 -167.5 -25t-170.5 -66q-85 -38 -143 -56.5t-125 -18.5l-15 12l17 11q64 0 121 18t138 55q95 42 167 64.5t164 25.5q-70 23 -116 53.5t-95 74.5q-47 42 -81 61.5t-84 19.5
q-31 0 -58 -8t-57 -26l-11 20q33 20 63.5 28.5t62.5 8.5q40 0 70.5 -11.5zM281 -132.5q-5 4.5 -5 11.5t5 12t11 5q7 0 11.5 -5t4.5 -12t-4.5 -11.5t-11.5 -4.5q-6 0 -11 4.5zM281 -255q-5 5 -5 12t5 11.5t11 4.5q7 0 11.5 -4.5t4.5 -11.5t-4.5 -12t-11.5 -5q-6 0 -11 5z" />
    <glyph glyph-name="uniFB75" unicode="&#x684;" horiz-adv-x="744" arabic-form="medial" 
d="M758 11l-14 -11q-200 0 -236 193q-49 -12 -97 -34t-111 -57q-93 -51 -159.5 -76.5t-140.5 -25.5l-15 11l17 11q70 0 131.5 24t152.5 72q92 49 153.5 73.5t133.5 28.5q-70 21 -115.5 47.5t-92.5 63.5q-44 34 -75 49.5t-76 15.5q-33 0 -60 -7.5t-60 -25.5l-10 19
q36 20 66 28t64 8q53 0 86.5 -16.5t80.5 -54.5q54 -43 104.5 -72t131.5 -51l-3 -19l-23 -1q-38 -2 -66 -7q19 -95 74.5 -135t146.5 -40zM361 -82.5q-5 4.5 -5 11.5t5 12t11 5q7 0 11.5 -5t4.5 -12t-4.5 -11.5t-11.5 -4.5q-6 0 -11 4.5zM361 -205q-5 5 -5 12t5 11.5t11 4.5
q7 0 11.5 -4.5t4.5 -11.5t-4.5 -12t-11.5 -5q-6 0 -11 5z" />
    <glyph glyph-name="uniFB77" unicode="&#x683;" horiz-adv-x="701" arabic-form="final" 
d="M196 117.5q-95 -75.5 -95 -201.5q0 -66 32 -119.5t96 -85.5t157 -32q61 0 118 12.5t96 32.5l8 -20q-39 -20 -99.5 -33.5t-124.5 -13.5q-99 0 -167.5 35t-102 93.5t-33.5 130.5q0 147 118 229t332 90q-52 19 -88 42t-76 55q-42 34 -71.5 49t-72.5 15q-35 0 -62 -7.5
t-58 -26.5l-10 19q34 20 64 28.5t67 8.5q47 0 80 -17.5t78 -54.5q50 -40 93 -65.5t108 -42.5l-3 -19l-22 -1q-48 -2 -73 -4q15 -106 69 -149t149 -43l12 -11l-14 -11q-101 0 -160 49.5t-73 162.5q-177 -19 -272 -94.5zM284 -86.5q-5 4.5 -5 11.5t5 12t12 5t11.5 -5t4.5 -12
t-4.5 -11.5t-11.5 -4.5t-12 4.5zM406.5 -86.5q-4.5 4.5 -4.5 11.5t4.5 12t11.5 5t12 -5t5 -12t-5 -11.5t-12 -4.5t-11.5 4.5z" />
    <glyph glyph-name="uniFB78" unicode="&#x683;" horiz-adv-x="687" arabic-form="initial" 
d="M286.5 406.5q30.5 -11.5 53.5 -29t59 -49.5q56 -51 106.5 -84t130.5 -55l-3 -21l-27 -2q-93 -2 -167.5 -25t-170.5 -66q-85 -38 -143 -56.5t-125 -18.5l-15 12l17 11q64 0 121 18t138 55q95 42 167 64.5t164 25.5q-70 23 -116 53.5t-95 74.5q-47 42 -81 61.5t-84 19.5
q-31 0 -58 -8t-57 -26l-11 20q33 20 63.5 28.5t62.5 8.5q40 0 70.5 -11.5zM220 -153.5q-5 4.5 -5 11.5t5 12t12 5t11.5 -5t4.5 -12t-4.5 -11.5t-11.5 -4.5t-12 4.5zM342.5 -153.5q-4.5 4.5 -4.5 11.5t4.5 12t11.5 5t12 -5t5 -12t-5 -11.5t-12 -4.5t-11.5 4.5z" />
    <glyph glyph-name="uniFB79" unicode="&#x683;" horiz-adv-x="744" arabic-form="medial" 
d="M758 11l-14 -11q-200 0 -236 193q-49 -12 -97 -34t-111 -57q-93 -51 -159.5 -76.5t-140.5 -25.5l-15 11l17 11q70 0 131.5 24t152.5 72q92 49 153.5 73.5t133.5 28.5q-70 21 -115.5 47.5t-92.5 63.5q-44 34 -75 49.5t-76 15.5q-33 0 -60 -7.5t-60 -25.5l-10 19
q36 20 66 28t64 8q53 0 86.5 -16.5t80.5 -54.5q54 -43 104.5 -72t131.5 -51l-3 -19l-23 -1q-38 -2 -66 -7q19 -95 74.5 -135t146.5 -40zM299 -103.5q-5 4.5 -5 11.5t5 12t12 5t11.5 -5t4.5 -12t-4.5 -11.5t-11.5 -4.5t-12 4.5zM421.5 -103.5q-4.5 4.5 -4.5 11.5t4.5 12
t11.5 5t12 -5t5 -12t-5 -11.5t-12 -4.5t-11.5 4.5z" />
    <glyph glyph-name="uniFB7B" unicode="&#x686;" horiz-adv-x="701" arabic-form="final" 
d="M196 117.5q-95 -75.5 -95 -201.5q0 -66 32 -119.5t96 -85.5t157 -32q61 0 118 12.5t96 32.5l8 -20q-39 -20 -99.5 -33.5t-124.5 -13.5q-99 0 -167.5 35t-102 93.5t-33.5 130.5q0 147 118 229t332 90q-52 19 -88 42t-76 55q-42 34 -71.5 49t-72.5 15q-35 0 -62 -7.5
t-58 -26.5l-10 19q34 20 64 28.5t67 8.5q47 0 80 -17.5t78 -54.5q50 -40 93 -65.5t108 -42.5l-3 -19l-22 -1q-48 -2 -73 -4q15 -106 69 -149t149 -43l12 -11l-14 -11q-101 0 -160 49.5t-73 162.5q-177 -19 -272 -94.5zM283.5 -41.5q-4.5 4.5 -4.5 10.5q0 7 4.5 11.5
t11.5 4.5t11.5 -4.5t4.5 -11.5q0 -6 -4.5 -10.5t-11.5 -4.5t-11.5 4.5zM407.5 -41.5q-4.5 4.5 -4.5 10.5q0 7 4.5 11.5t11.5 4.5t11.5 -4.5t4.5 -11.5q0 -6 -4.5 -10.5t-11.5 -4.5t-11.5 4.5zM345.5 -134.5q-4.5 4.5 -4.5 11.5t4.5 11.5t11.5 4.5t11.5 -4.5t4.5 -11.5
t-4.5 -11.5t-11.5 -4.5t-11.5 4.5z" />
    <glyph glyph-name="uniFB7C" unicode="&#x686;" horiz-adv-x="687" arabic-form="initial" 
d="M286.5 406.5q30.5 -11.5 53.5 -29t59 -49.5q56 -51 106.5 -84t130.5 -55l-3 -21l-27 -2q-93 -2 -167.5 -25t-170.5 -66q-85 -38 -143 -56.5t-125 -18.5l-15 12l17 11q64 0 121 18t138 55q95 42 167 64.5t164 25.5q-70 23 -116 53.5t-95 74.5q-47 42 -81 61.5t-84 19.5
q-31 0 -58 -8t-57 -26l-11 20q33 20 63.5 28.5t62.5 8.5q40 0 70.5 -11.5zM219.5 -150.5q-4.5 4.5 -4.5 10.5q0 7 4.5 11.5t11.5 4.5t11.5 -4.5t4.5 -11.5q0 -6 -4.5 -10.5t-11.5 -4.5t-11.5 4.5zM343.5 -150.5q-4.5 4.5 -4.5 10.5q0 7 4.5 11.5t11.5 4.5t11.5 -4.5
t4.5 -11.5q0 -6 -4.5 -10.5t-11.5 -4.5t-11.5 4.5zM281.5 -243.5q-4.5 4.5 -4.5 11.5t4.5 11.5t11.5 4.5t11.5 -4.5t4.5 -11.5t-4.5 -11.5t-11.5 -4.5t-11.5 4.5z" />
    <glyph glyph-name="uniFB7D" unicode="&#x686;" horiz-adv-x="744" arabic-form="medial" 
d="M758 11l-14 -11q-200 0 -236 193q-49 -12 -97 -34t-111 -57q-93 -51 -159.5 -76.5t-140.5 -25.5l-15 11l17 11q70 0 131.5 24t152.5 72q92 49 153.5 73.5t133.5 28.5q-70 21 -115.5 47.5t-92.5 63.5q-44 34 -75 49.5t-76 15.5q-33 0 -60 -7.5t-60 -25.5l-10 19
q36 20 66 28t64 8q53 0 86.5 -16.5t80.5 -54.5q54 -43 104.5 -72t131.5 -51l-3 -19l-23 -1q-38 -2 -66 -7q19 -95 74.5 -135t146.5 -40zM298.5 -100.5q-4.5 4.5 -4.5 10.5q0 7 4.5 11.5t11.5 4.5t11.5 -4.5t4.5 -11.5q0 -6 -4.5 -10.5t-11.5 -4.5t-11.5 4.5zM422.5 -100.5
q-4.5 4.5 -4.5 10.5q0 7 4.5 11.5t11.5 4.5t11.5 -4.5t4.5 -11.5q0 -6 -4.5 -10.5t-11.5 -4.5t-11.5 4.5zM360.5 -193.5q-4.5 4.5 -4.5 11.5t4.5 11.5t11.5 4.5t11.5 -4.5t4.5 -11.5t-4.5 -11.5t-11.5 -4.5t-11.5 4.5z" />
    <glyph glyph-name="uniFB7F" unicode="&#x687;" horiz-adv-x="701" arabic-form="final" 
d="M196 117.5q-95 -75.5 -95 -201.5q0 -66 32 -119.5t96 -85.5t157 -32q61 0 118 12.5t96 32.5l8 -20q-39 -20 -99.5 -33.5t-124.5 -13.5q-99 0 -167.5 35t-102 93.5t-33.5 130.5q0 147 118 229t332 90q-52 19 -88 42t-76 55q-42 34 -71.5 49t-72.5 15q-35 0 -62 -7.5
t-58 -26.5l-10 19q34 20 64 28.5t67 8.5q47 0 80 -17.5t78 -54.5q50 -40 93 -65.5t108 -42.5l-3 -19l-22 -1q-48 -2 -73 -4q15 -106 69 -149t149 -43l12 -11l-14 -11q-101 0 -160 49.5t-73 162.5q-177 -19 -272 -94.5zM285 -20.5q-4 4.5 -4 10.5t4 11t11 5t11.5 -5t4.5 -11
t-4.5 -10.5t-11.5 -4.5t-11 4.5zM406.5 -20.5q-4.5 4.5 -4.5 10.5t4.5 11t11.5 5t11 -5t4 -11t-4 -10.5t-11 -4.5t-11.5 4.5zM285 -132.5q-4 4.5 -4 10.5q0 7 4 11.5t11 4.5t11.5 -4.5t4.5 -11.5q0 -6 -4.5 -10.5t-11.5 -4.5t-11 4.5zM406.5 -132.5q-4.5 4.5 -4.5 10.5
q0 7 4.5 11.5t11.5 4.5t11 -4.5t4 -11.5q0 -6 -4 -10.5t-11 -4.5t-11.5 4.5z" />
    <glyph glyph-name="uniFB80" unicode="&#x687;" horiz-adv-x="687" arabic-form="initial" 
d="M286.5 406.5q30.5 -11.5 53.5 -29t59 -49.5q56 -51 106.5 -84t130.5 -55l-3 -21l-27 -2q-93 -2 -167.5 -25t-170.5 -66q-85 -38 -143 -56.5t-125 -18.5l-15 12l17 11q64 0 121 18t138 55q95 42 167 64.5t164 25.5q-70 23 -116 53.5t-95 74.5q-47 42 -81 61.5t-84 19.5
q-31 0 -58 -8t-57 -26l-11 20q33 20 63.5 28.5t62.5 8.5q40 0 70.5 -11.5zM221 -113.5q-4 4.5 -4 10.5q0 7 4 11.5t11 4.5t11.5 -4.5t4.5 -11.5q0 -6 -4.5 -10.5t-11.5 -4.5t-11 4.5zM342.5 -113.5q-4.5 4.5 -4.5 10.5q0 7 4.5 11.5t11.5 4.5t11 -4.5t4 -11.5q0 -6 -4 -10.5
t-11 -4.5t-11.5 4.5zM221 -225q-4 4 -4 10q0 7 4 11.5t11 4.5t11.5 -4.5t4.5 -11.5q0 -6 -4.5 -10t-11.5 -4t-11 4zM342.5 -225q-4.5 4 -4.5 10q0 7 4.5 11.5t11.5 4.5t11 -4.5t4 -11.5q0 -6 -4 -10t-11 -4t-11.5 4z" />
    <glyph glyph-name="uniFB81" unicode="&#x687;" horiz-adv-x="744" arabic-form="medial" 
d="M758 11l-14 -11q-200 0 -236 193q-49 -12 -97 -34t-111 -57q-93 -51 -159.5 -76.5t-140.5 -25.5l-15 11l17 11q70 0 131.5 24t152.5 72q92 49 153.5 73.5t133.5 28.5q-70 21 -115.5 47.5t-92.5 63.5q-44 34 -75 49.5t-76 15.5q-33 0 -60 -7.5t-60 -25.5l-10 19
q36 20 66 28t64 8q53 0 86.5 -16.5t80.5 -54.5q54 -43 104.5 -72t131.5 -51l-3 -19l-23 -1q-38 -2 -66 -7q19 -95 74.5 -135t146.5 -40zM300 -63.5q-4 4.5 -4 10.5q0 7 4 11.5t11 4.5t11.5 -4.5t4.5 -11.5q0 -6 -4.5 -10.5t-11.5 -4.5t-11 4.5zM421.5 -63.5
q-4.5 4.5 -4.5 10.5q0 7 4.5 11.5t11.5 4.5t11 -4.5t4 -11.5q0 -6 -4 -10.5t-11 -4.5t-11.5 4.5zM300 -175q-4 4 -4 10q0 7 4 11.5t11 4.5t11.5 -4.5t4.5 -11.5q0 -6 -4.5 -10t-11.5 -4t-11 4zM421.5 -175q-4.5 4 -4.5 10q0 7 4.5 11.5t11.5 4.5t11 -4.5t4 -11.5
q0 -6 -4 -10t-11 -4t-11.5 4z" />
    <glyph glyph-name="uniFB83" unicode="&#x68d;" horiz-adv-x="505" arabic-form="final" 
d="M520 11l-15 -11q-48 0 -78 19.5t-46 57.5q-32 -43 -85.5 -66t-116.5 -23q-42 0 -77 7.5t-73 22.5l6 21q72 -28 146 -28q58 0 110 22.5t82 61.5l-148 370l22 10l141 -364q18 -48 44.5 -68.5t74.5 -20.5zM127 -153.5q-5 4.5 -5 11.5t5 12t12 5t11.5 -5t4.5 -12t-4.5 -11.5
t-11.5 -4.5t-12 4.5zM249.5 -153.5q-4.5 4.5 -4.5 11.5t4.5 12t11.5 5t12 -5t5 -12t-5 -11.5t-12 -4.5t-11.5 4.5z" />
    <glyph glyph-name="uniFB85" unicode="&#x68c;" horiz-adv-x="505" arabic-form="final" 
d="M520 11l-15 -11q-48 0 -78 19.5t-46 57.5q-32 -43 -85.5 -66t-116.5 -23q-42 0 -77 7.5t-73 22.5l6 21q72 -28 146 -28q58 0 110 22.5t82 61.5l-148 370l22 10l141 -364q18 -48 44.5 -68.5t74.5 -20.5zM94 605.5q-5 4.5 -5 11.5t5 12t12 5t11.5 -5t4.5 -12t-4.5 -11.5
t-11.5 -4.5t-12 4.5zM216.5 605.5q-4.5 4.5 -4.5 11.5t4.5 12t11.5 5t12 -5t5 -12t-5 -11.5t-12 -4.5t-11.5 4.5z" />
    <glyph glyph-name="uniFB87" unicode="&#x68e;" horiz-adv-x="505" arabic-form="final" 
d="M520 11l-15 -11q-48 0 -78 19.5t-46 57.5q-32 -43 -85.5 -66t-116.5 -23q-42 0 -77 7.5t-73 22.5l6 21q72 -28 146 -28q58 0 110 22.5t82 61.5l-148 370l22 10l141 -364q18 -48 44.5 -68.5t74.5 -20.5zM155.5 660.5q-4.5 4.5 -4.5 11.5t4.5 11.5t11.5 4.5t11.5 -4.5
t4.5 -11.5t-4.5 -11.5t-11.5 -4.5t-11.5 4.5zM93.5 568.5q-4.5 4.5 -4.5 11.5q0 6 4.5 10.5t11.5 4.5t11.5 -4.5t4.5 -10.5q0 -7 -4.5 -11.5t-11.5 -4.5t-11.5 4.5zM217.5 568.5q-4.5 4.5 -4.5 11.5q0 6 4.5 10.5t11.5 4.5t11.5 -4.5t4.5 -10.5q0 -7 -4.5 -11.5t-11.5 -4.5
t-11.5 4.5z" />
    <glyph glyph-name="uniFB89" unicode="&#x688;" horiz-adv-x="505" arabic-form="final" 
d="M520 11l-15 -11q-48 0 -78 19.5t-46 57.5q-32 -43 -85.5 -66t-116.5 -23q-42 0 -77 7.5t-73 22.5l6 21q72 -28 146 -28q58 0 110 22.5t82 61.5l-148 370l22 10l141 -364q18 -48 44.5 -68.5t74.5 -20.5zM263 683.5q18 -19.5 18 -50.5q0 -30 -22 -51t-66 -21h-140l2 15h20
q4 8 19 33v149h15v-126q50 71 106 71q30 0 48 -19.5zM247 592q19 16 19 42q0 24 -14 38.5t-39 14.5q-62 0 -121 -111h98q38 0 57 16z" />
    <glyph glyph-name="uniFB8B" unicode="&#x698;" horiz-adv-x="356" arabic-form="final" 
d="M371 11l-15 -11q-77 0 -99 67q-2 -113 -65 -187t-205 -122l-9 21q140 46 200.5 117t60.5 177q0 101 -38 223l20 7q22 -80 33 -171q6 -56 31.5 -83t73.5 -27zM185.5 507.5q-4.5 4.5 -4.5 11.5t4.5 11.5t11.5 4.5t11.5 -4.5t4.5 -11.5t-4.5 -11.5t-11.5 -4.5t-11.5 4.5z
M123.5 415.5q-4.5 4.5 -4.5 11.5q0 6 4.5 10.5t11.5 4.5t11.5 -4.5t4.5 -10.5q0 -7 -4.5 -11.5t-11.5 -4.5t-11.5 4.5zM247.5 415.5q-4.5 4.5 -4.5 11.5q0 6 4.5 10.5t11.5 4.5t11.5 -4.5t4.5 -10.5q0 -7 -4.5 -11.5t-11.5 -4.5t-11.5 4.5z" />
    <glyph glyph-name="uniFB8D" unicode="&#x691;" horiz-adv-x="356" arabic-form="final" 
d="M371 11l-15 -11q-77 0 -99 67q-2 -113 -65 -187t-205 -122l-9 21q140 46 200.5 117t60.5 177q0 101 -38 223l20 7q22 -80 33 -171q6 -56 31.5 -83t73.5 -27zM293 530.5q18 -19.5 18 -50.5q0 -30 -22 -51t-66 -21h-140l2 15h20q4 8 19 33v149h15v-126q50 71 106 71
q30 0 48 -19.5zM277 439q19 16 19 42q0 24 -14 38.5t-39 14.5q-62 0 -121 -111h98q38 0 57 16z" />
    <glyph glyph-name="uniFB8F" unicode="&#x6a9;" horiz-adv-x="971" arabic-form="final" 
d="M986 12l-15 -12q-54 0 -95 20.5t-87.5 71t-127.5 155.5q9 -24 9 -56q0 -67 -31 -111t-106 -68t-204 -24q-135 0 -200.5 43t-65.5 129q0 74 35 147l16 -6q-31 -68 -31 -139q0 -76 60.5 -114t187.5 -38q123 0 193 21.5t98.5 62t28.5 101.5t-41 113l-116 144l4 21l382 269
l-2 -24l-365 -257l142 -176q101 -125 145 -173.5t82 -69t91 -20.5z" />
    <glyph glyph-name="uniFB90" unicode="&#x6a9;" horiz-adv-x="454" arabic-form="initial" 
d="M389 718l-361 -255q153 -61 223 -123.5t70 -133.5q0 -103 -88.5 -154.5t-232.5 -51.5l-15 11l17 11q137 0 217.5 45.5t80.5 139.5q0 65 -69.5 125t-224.5 120l4 21l381 269z" />
    <glyph glyph-name="uniFB91" unicode="&#x6a9;" horiz-adv-x="539" arabic-form="medial" 
d="M553 12l-14 -12q-54 0 -94.5 20.5t-87.5 70.5t-127 155q8 -24 8 -55q0 -91 -59.5 -141t-178.5 -50l-15 11l17 11q110 0 163.5 45t53.5 128q0 62 -41 113l-116 144l4 21l382 269l-2 -24l-365 -257l142 -176q102 -126 145 -174t81 -68.5t92 -20.5z" />
    <glyph glyph-name="uniFB93" unicode="&#x6af;" horiz-adv-x="971" arabic-form="final" 
d="M865 842l-377 -269l4 23l374 268zM986 12l-15 -12q-54 0 -95 20.5t-87.5 71t-127.5 155.5q9 -24 9 -56q0 -67 -31 -111t-106 -68t-204 -24q-135 0 -200.5 43t-65.5 129q0 74 35 147l16 -6q-31 -68 -31 -139q0 -76 60.5 -114t187.5 -38q123 0 193 21.5t98.5 62t28.5 101.5
t-41 113l-116 144l4 21l382 269l-2 -24l-365 -257l142 -176q101 -125 145 -173.5t82 -69t91 -20.5z" />
    <glyph glyph-name="uniFB94" unicode="&#x6af;" horiz-adv-x="454" arabic-form="initial" 
d="M377 842l-377 -269l4 23l374 268zM389 718l-361 -255q153 -61 223 -123.5t70 -133.5q0 -103 -88.5 -154.5t-232.5 -51.5l-15 11l17 11q137 0 217.5 45.5t80.5 139.5q0 65 -69.5 125t-224.5 120l4 21l381 269z" />
    <glyph glyph-name="uniFB95" unicode="&#x6af;" horiz-adv-x="539" arabic-form="medial" 
d="M443 842l-377 -269l4 23l374 268zM553 12l-14 -12q-54 0 -94.5 20.5t-87.5 70.5t-127 155q8 -24 8 -55q0 -91 -59.5 -141t-178.5 -50l-15 11l17 11q110 0 163.5 45t53.5 128q0 62 -41 113l-116 144l4 21l382 269l-2 -24l-365 -257l142 -176q102 -126 145 -174t81 -68.5
t92 -20.5z" />
    <glyph glyph-name="uniFB97" unicode="&#x6b3;" horiz-adv-x="969" arabic-form="final" 
d="M865 842l-377 -269l4 23l374 268zM986 12l-15 -12q-54 0 -95 20.5t-87.5 71t-127.5 155.5q9 -24 9 -56q0 -67 -31 -111t-106 -68t-204 -24q-135 0 -200.5 43t-65.5 129q0 74 35 147l16 -6q-31 -68 -31 -139q0 -76 60.5 -114t187.5 -38q123 0 193 21.5t98.5 62t28.5 101.5
t-41 113l-116 144l4 21l382 269l-2 -24l-365 -257l142 -176q101 -125 145 -173.5t82 -69t91 -20.5zM358 -132.5q-5 4.5 -5 11.5t5 12t11 5q7 0 11.5 -5t4.5 -12t-4.5 -11.5t-11.5 -4.5q-6 0 -11 4.5zM358 -255q-5 5 -5 12t5 11.5t11 4.5q7 0 11.5 -4.5t4.5 -11.5t-4.5 -12
t-11.5 -5q-6 0 -11 5z" />
    <glyph glyph-name="uniFB98" unicode="&#x6b3;" horiz-adv-x="454" arabic-form="initial" 
d="M377 842l-377 -269l4 23l374 268zM389 718l-361 -255q153 -61 223 -123.5t70 -133.5q0 -103 -88.5 -154.5t-232.5 -51.5l-15 11l17 11q137 0 217.5 45.5t80.5 139.5q0 65 -69.5 125t-224.5 120l4 21l381 269zM124 -132.5q-5 4.5 -5 11.5t5 12t11 5q7 0 11.5 -5t4.5 -12
t-4.5 -11.5t-11.5 -4.5q-6 0 -11 4.5zM124 -255q-5 5 -5 12t5 11.5t11 4.5q7 0 11.5 -4.5t4.5 -11.5t-4.5 -12t-11.5 -5q-6 0 -11 5z" />
    <glyph glyph-name="uniFB99" unicode="&#x6b3;" horiz-adv-x="539" arabic-form="medial" 
d="M443 842l-377 -269l4 23l374 268zM553 12l-14 -12q-54 0 -94.5 20.5t-87.5 70.5t-127 155q8 -24 8 -55q0 -91 -59.5 -141t-178.5 -50l-15 11l17 11q110 0 163.5 45t53.5 128q0 62 -41 113l-116 144l4 21l382 269l-2 -24l-365 -257l142 -176q102 -126 145 -174t81 -68.5
t92 -20.5zM258 -132.5q-5 4.5 -5 11.5t5 12t11 5q7 0 11.5 -5t4.5 -12t-4.5 -11.5t-11.5 -4.5q-6 0 -11 4.5zM258 -255q-5 5 -5 12t5 11.5t11 4.5q7 0 11.5 -4.5t4.5 -11.5t-4.5 -12t-11.5 -5q-6 0 -11 5z" />
    <glyph glyph-name="uniFB9B" unicode="&#x6b1;" horiz-adv-x="969" arabic-form="final" 
d="M865 842l-377 -269l4 23l374 268zM986 12l-15 -12q-54 0 -95 20.5t-87.5 71t-127.5 155.5q9 -24 9 -56q0 -67 -31 -111t-106 -68t-204 -24q-135 0 -200.5 43t-65.5 129q0 74 35 147l16 -6q-31 -68 -31 -139q0 -76 60.5 -114t187.5 -38q123 0 193 21.5t98.5 62t28.5 101.5
t-41 113l-116 144l4 21l382 269l-2 -24l-365 -257l142 -176q101 -125 145 -173.5t82 -69t91 -20.5zM447 775.5q-5 4.5 -5 11.5t5 12t12 5t11.5 -5t4.5 -12t-4.5 -11.5t-11.5 -4.5t-12 4.5zM569.5 775.5q-4.5 4.5 -4.5 11.5t4.5 12t11.5 5t12 -5t5 -12t-5 -11.5t-12 -4.5
t-11.5 4.5z" />
    <glyph glyph-name="uniFB9C" unicode="&#x6b1;" horiz-adv-x="454" arabic-form="initial" 
d="M377 842l-377 -269l4 23l374 268zM389 718l-361 -255q153 -61 223 -123.5t70 -133.5q0 -103 -88.5 -154.5t-232.5 -51.5l-15 11l17 11q137 0 217.5 45.5t80.5 139.5q0 65 -69.5 125t-224.5 120l4 21l381 269zM-43 775.5q-5 4.5 -5 11.5t5 12t12 5t11.5 -5t4.5 -12
t-4.5 -11.5t-11.5 -4.5t-12 4.5zM79.5 775.5q-4.5 4.5 -4.5 11.5t4.5 12t11.5 5t12 -5t5 -12t-5 -11.5t-12 -4.5t-11.5 4.5z" />
    <glyph glyph-name="uniFB9D" unicode="&#x6b1;" horiz-adv-x="539" arabic-form="medial" 
d="M443 842l-377 -269l4 23l374 268zM553 12l-14 -12q-54 0 -94.5 20.5t-87.5 70.5t-127 155q8 -24 8 -55q0 -91 -59.5 -141t-178.5 -50l-15 11l17 11q110 0 163.5 45t53.5 128q0 62 -41 113l-116 144l4 21l382 269l-2 -24l-365 -257l142 -176q102 -126 145 -174t81 -68.5
t92 -20.5zM15 775.5q-5 4.5 -5 11.5t5 12t12 5t11.5 -5t4.5 -12t-4.5 -11.5t-11.5 -4.5t-12 4.5zM137.5 775.5q-4.5 4.5 -4.5 11.5t4.5 12t11.5 5t12 -5t5 -12t-5 -11.5t-12 -4.5t-11.5 4.5z" />
    <glyph glyph-name="uniFB9F" unicode="&#x6ba;" horiz-adv-x="694" arabic-form="final" 
d="M709 11l-15 -11q-84 0 -114 58q0 -154 -66 -223.5t-217 -69.5q-121 0 -177.5 55.5t-56.5 150.5q0 87 36 173l16 -6q-32 -79 -32 -166q0 -86 51.5 -135.5t164.5 -49.5q96 0 153.5 28.5t83 87.5t25.5 153q0 42 -12.5 89.5t-39.5 126.5l21 9q32 -106 46 -169
q11 -44 38.5 -67t81.5 -23z" />
    <glyph glyph-name="uniFBA1" unicode="&#x6bb;" horiz-adv-x="694" arabic-form="final" 
d="M709 11l-15 -11q-84 0 -114 58q0 -154 -66 -223.5t-217 -69.5q-121 0 -177.5 55.5t-56.5 150.5q0 87 36 173l16 -6q-32 -79 -32 -166q0 -86 51.5 -135.5t164.5 -49.5q96 0 153.5 28.5t83 87.5t25.5 153q0 42 -12.5 89.5t-39.5 126.5l21 9q32 -106 46 -169
q11 -44 38.5 -67t81.5 -23zM411 423.5q18 -19.5 18 -50.5q0 -30 -22 -51t-66 -21h-140l2 15h20q4 8 19 33v149h15v-126q50 71 106 71q30 0 48 -19.5zM395 332q19 16 19 42q0 24 -14 38.5t-39 14.5q-62 0 -121 -111h98q38 0 57 16z" />
    <glyph glyph-name="uniFBA2" unicode="&#x6bb;" horiz-adv-x="252" arabic-form="initial" 
d="M100 36q34 14 46.5 42t12.5 76q0 54 -9.5 105.5t-30.5 109.5l21 7q39 -112 39 -222q0 -56 -15.5 -89t-54 -49t-109.5 -16l-15 11l17 11q64 0 98 14zM215 576.5q18 -19.5 18 -50.5q0 -30 -22 -51t-66 -21h-140l2 15h20q4 8 19 33v149h15v-126q50 71 106 71q30 0 48 -19.5z
M199 485q19 16 19 42q0 24 -14 38.5t-39 14.5q-62 0 -121 -111h98q38 0 57 16z" />
    <glyph glyph-name="uniFBA3" unicode="&#x6bb;" horiz-adv-x="305" arabic-form="medial" 
d="M320 11l-15 -11q-57 0 -98 26.5t-54 71.5q-12 -46 -51.5 -72t-101.5 -26l-15 11l17 11q70 0 105 32.5t35 91.5v160h20v-160q0 -58 39 -91t105 -33zM248 499.5q18 -19.5 18 -50.5q0 -30 -22 -51t-66 -21h-140l2 15h20q4 8 19 33v149h15v-126q50 71 106 71q30 0 48 -19.5z
M232 408q19 16 19 42q0 24 -14 38.5t-39 14.5q-62 0 -121 -111h98q38 0 57 16z" />
    <glyph glyph-name="uniFBA5" unicode="&#x6c0;" horiz-adv-x="483" arabic-form="final" 
d="M497 11l-14 -11h-10q-59 0 -92 31.5t-40 97.5q-24 -40 -68 -64.5t-98 -24.5q-69 0 -107.5 35.5t-38.5 90.5q0 84 79 136t230 59v120l20 3v-322q0 -73 29.5 -106.5t88.5 -33.5h9zM274.5 87q42.5 25 63.5 64v188q-144 -6 -216.5 -51.5t-72.5 -119.5q0 -46 33 -76t96 -30
q54 0 96.5 25zM438 587l-181 -29l-2 16l76 12q-58 35 -58 81q0 30 22.5 50t63.5 20q31 0 58 -15l-7 -13q-25 13 -51 13q-35 0 -52.5 -16t-17.5 -39q0 -22 16.5 -42t45.5 -36l85 14z" />
    <glyph glyph-name="uniFBA7" unicode="&#x6c1;" horiz-adv-x="555" arabic-form="final" 
d="M29 -24q41 123 96 185t116 62q43 0 68.5 -21t56.5 -66q26 -36 47.5 -59t57 -39t86.5 -16l12 -11l-14 -11q-57 0 -95.5 17.5t-62 42t-49.5 62.5q-28 41 -50 60t-57 19q-55 0 -104.5 -60.5t-85.5 -169.5z" />
    <glyph glyph-name="uniFBA8" unicode="&#x6c1;" horiz-adv-x="252" arabic-form="initial" 
d="M100 36q34 14 46.5 42t12.5 76q0 54 -9.5 105.5t-30.5 109.5l21 7q39 -112 39 -222q0 -56 -15.5 -89t-54 -49t-109.5 -16l-15 11l17 11q64 0 98 14zM79 -194.5q-5 4.5 -5 13.5q0 7 6 23l20 85h9l-13 -92q7 -1 10.5 -6t3.5 -11q0 -8 -4.5 -12.5t-12.5 -4.5q-9 0 -14 4.5z
" />
    <glyph glyph-name="uniFBA9" unicode="&#x6c1;" horiz-adv-x="531" arabic-form="medial" 
d="M545 11l-14 -11h-24q-71 0 -114 -48.5t-43 -155.5q0 -31 5 -79l-18 -7q-142 142 -142 334q0 33 5 68q-27 -62 -71.5 -87t-104.5 -25h-24l-15 11l17 11h24q70 0 118 42.5t75 149.5l15 59l20 -6q-21 -82 -30 -125.5t-9 -93.5q0 -170 118 -304q-3 30 -3 56q0 115 49 168.5
t131 53.5h23z" />
    <glyph glyph-name="uniFBAB" unicode="&#x6be;" horiz-adv-x="554" arabic-form="final" 
d="M554 0h-181q57 -18 88 -50.5t31 -85.5q0 -46 -31 -78t-87 -32q-57 0 -100.5 31.5t-68 87.5t-25.5 127q-42 1 -75 6.5t-62 19.5l10 19q27 -13 56.5 -17.5t70.5 -5.5q1 84 29.5 156.5t76.5 115t103 42.5q47 0 76.5 -30t29.5 -89q0 -37 -17 -76.5t-48.5 -71.5t-72.5 -47h199
l13 -11zM295.5 275q-42.5 -39 -68.5 -106t-28 -147h81q55 0 99.5 29t69.5 74t25 90q0 49 -24.5 74t-63.5 25q-48 0 -90.5 -39zM446 -61.5q-26 30.5 -68 46t-89 15.5h-90q2 -101 48.5 -162.5t124.5 -61.5q49 0 74.5 26t25.5 63q0 43 -26 73.5z" />
    <glyph glyph-name="uniFBAC" unicode="&#x6be;" horiz-adv-x="625" arabic-form="initial" 
d="M439.5 300.5q113.5 -89.5 113.5 -163.5q0 -43 -24 -77t-62 -53t-78 -19q-41 0 -86 13.5t-87 37.5q-86 -39 -200 -39h-16l-15 11l17 11h11q107 0 181 31q-56 38 -90 89.5t-34 108.5q0 45 19.5 82.5t54.5 59.5t78 22h7q-56 32 -117 63l11 20q203 -108 316.5 -197.5z
M125 147q35 -49 92 -84q64 30 97 79.5t33 104.5q0 63 -35 107t-90 44q-58 0 -95 -42.5t-37 -104.5q0 -55 35 -104zM455.5 25.5q33.5 15.5 55 44t21.5 65.5q0 43 -50.5 97t-142.5 115q28 -44 28 -99q0 -57 -32.5 -109.5t-95.5 -87.5q36 -20 75 -30.5t75 -10.5q33 0 66.5 15.5
z" />
    <glyph glyph-name="uniFBAD" unicode="&#x6be;" horiz-adv-x="481" arabic-form="medial" 
d="M481 0h-181q57 -18 88 -50.5t31 -85.5q0 -46 -31 -78t-87 -32q-57 0 -100.5 31.5t-68 87.5t-25.5 127h-107l-15 11l17 11h105q1 84 29.5 156.5t76.5 115t103 42.5q47 0 76.5 -30t29.5 -89q0 -37 -17 -76.5t-48.5 -71.5t-72.5 -47h199l13 -11zM222.5 275
q-42.5 -39 -68.5 -106t-28 -147h81q55 0 99.5 29t69.5 74t25 90q0 49 -24.5 74t-63.5 25q-48 0 -90.5 -39zM373 -61.5q-26 30.5 -68 46t-89 15.5h-90q2 -101 48.5 -162.5t124.5 -61.5q49 0 74.5 26t25.5 63q0 43 -26 73.5z" />
    <glyph glyph-name="uniFBAF" unicode="&#x6d2;" horiz-adv-x="719" arabic-form="final" 
d="M201 -234q-81 0 -118 21t-37 66q0 39 30 78t97 65t170 26h378l13 -11l-15 -11h-381q-95 0 -156.5 -22.5t-88.5 -56t-27 -68.5t30 -50t100 -15h501l-7 -22h-489z" />
    <glyph glyph-name="uniFBB1" unicode="&#x6d3;" horiz-adv-x="719" arabic-form="final" 
d="M201 -234q-81 0 -118 21t-37 66q0 39 30 78t97 65t170 26h378l13 -11l-15 -11h-381q-95 0 -156.5 -22.5t-88.5 -56t-27 -68.5t30 -50t100 -15h501l-7 -22h-489zM309 200l-181 -29l-2 16l76 12q-58 35 -58 81q0 30 22.5 50t63.5 20q31 0 58 -15l-7 -13q-25 13 -51 13
q-35 0 -52.5 -16t-17.5 -39q0 -22 16.5 -42t45.5 -36l85 14z" />
    <glyph glyph-name="uniFBD4" unicode="&#x6ad;" horiz-adv-x="838" arabic-form="final" 
d="M853 12l-15 -12q-58 0 -89.5 28.5t-43.5 59.5q-62 -48 -156.5 -74t-219.5 -26q-135 0 -200.5 43t-65.5 129q0 74 35 147l16 -6q-31 -68 -31 -139q0 -76 60.5 -114t187.5 -38q121 0 215 26.5t154 74.5v621l19 2v-608q0 -20 11.5 -44t39 -42t71.5 -18zM425 316q42 16 42 45
q0 23 -29.5 41t-100.5 33l5 18l151 87l-1 -19l-132 -75q68 -17 96 -36.5t28 -48.5q0 -39 -48.5 -58.5t-128.5 -19.5l-4 17q80 0 122 16zM698.5 901.5q-4.5 4.5 -4.5 11.5t4.5 11.5t11.5 4.5t11.5 -4.5t4.5 -11.5t-4.5 -11.5t-11.5 -4.5t-11.5 4.5zM636.5 809.5
q-4.5 4.5 -4.5 11.5q0 6 4.5 10.5t11.5 4.5t11.5 -4.5t4.5 -10.5q0 -7 -4.5 -11.5t-11.5 -4.5t-11.5 4.5zM760.5 809.5q-4.5 4.5 -4.5 11.5q0 6 4.5 10.5t11.5 4.5t11.5 -4.5t4.5 -10.5q0 -7 -4.5 -11.5t-11.5 -4.5t-11.5 4.5z" />
    <glyph glyph-name="uniFBD5" unicode="&#x6ad;" horiz-adv-x="454" arabic-form="initial" 
d="M389 718l-361 -255q153 -61 223 -123.5t70 -133.5q0 -103 -88.5 -154.5t-232.5 -51.5l-15 11l17 11q137 0 217.5 45.5t80.5 139.5q0 65 -69.5 125t-224.5 120l4 21l381 269zM24.5 765.5q-4.5 4.5 -4.5 11.5t4.5 11.5t11.5 4.5t11.5 -4.5t4.5 -11.5t-4.5 -11.5t-11.5 -4.5
t-11.5 4.5zM-37.5 673.5q-4.5 4.5 -4.5 11.5q0 6 4.5 10.5t11.5 4.5t11.5 -4.5t4.5 -10.5q0 -7 -4.5 -11.5t-11.5 -4.5t-11.5 4.5zM86.5 673.5q-4.5 4.5 -4.5 11.5q0 6 4.5 10.5t11.5 4.5t11.5 -4.5t4.5 -10.5q0 -7 -4.5 -11.5t-11.5 -4.5t-11.5 4.5z" />
    <glyph glyph-name="uniFBD6" unicode="&#x6ad;" horiz-adv-x="539" arabic-form="medial" 
d="M553 12l-14 -12q-54 0 -94.5 20.5t-87.5 70.5t-127 155q8 -24 8 -55q0 -91 -59.5 -141t-178.5 -50l-15 11l17 11q110 0 163.5 45t53.5 128q0 62 -41 113l-116 144l4 21l382 269l-2 -24l-365 -257l142 -176q102 -126 145 -174t81 -68.5t92 -20.5zM76.5 765.5
q-4.5 4.5 -4.5 11.5t4.5 11.5t11.5 4.5t11.5 -4.5t4.5 -11.5t-4.5 -11.5t-11.5 -4.5t-11.5 4.5zM14.5 673.5q-4.5 4.5 -4.5 11.5q0 6 4.5 10.5t11.5 4.5t11.5 -4.5t4.5 -10.5q0 -7 -4.5 -11.5t-11.5 -4.5t-11.5 4.5zM138.5 673.5q-4.5 4.5 -4.5 11.5q0 6 4.5 10.5t11.5 4.5
t11.5 -4.5t4.5 -10.5q0 -7 -4.5 -11.5t-11.5 -4.5t-11.5 4.5z" />
    <glyph glyph-name="uniFBD8" unicode="&#x6c7;" horiz-adv-x="518" arabic-form="final" 
d="M518 0h-115q-22 -96 -102 -156t-232 -85l-6 21q144 24 220.5 79t98.5 141h-91q-102 0 -154.5 44t-52.5 118q0 45 21 85t57.5 64t80.5 24q76 0 122.5 -66t46.5 -185q0 -35 -4 -62h112l12 -11zM152 59.5q47 -37.5 144 -37.5h88h2q5 32 5 61q0 112 -40 171t-109 59
q-39 0 -70.5 -20.5t-49 -55t-17.5 -73.5q0 -67 47 -104.5zM308.5 588q17.5 -21 17.5 -52q0 -40 -42.5 -79t-106.5 -64l-6 14q59 24 94 53q-40 11 -58.5 32t-18.5 48q0 31 20.5 50t48.5 19q34 0 51.5 -21zM311 535q0 25 -13.5 42t-40.5 17q-23 0 -38.5 -15t-15.5 -40
q0 -51 74 -69q34 32 34 65z" />
    <glyph glyph-name="uniFBDA" unicode="&#x6c6;" horiz-adv-x="518" arabic-form="final" 
d="M518 0h-115q-22 -96 -102 -156t-232 -85l-6 21q144 24 220.5 79t98.5 141h-91q-102 0 -154.5 44t-52.5 118q0 45 21 85t57.5 64t80.5 24q76 0 122.5 -66t46.5 -185q0 -35 -4 -62h112l12 -11zM152 59.5q47 -37.5 144 -37.5h88h2q5 32 5 61q0 112 -40 171t-109 59
q-39 0 -70.5 -20.5t-49 -55t-17.5 -73.5q0 -67 47 -104.5zM248 414l72 124l13 -6l-77 -137h-16l-77 137l13 6z" />
    <glyph glyph-name="uniFBDC" unicode="&#x6c8;" horiz-adv-x="518" arabic-form="final" 
d="M518 0h-115q-22 -96 -102 -156t-232 -85l-6 21q144 24 220.5 79t98.5 141h-91q-102 0 -154.5 44t-52.5 118q0 45 21 85t57.5 64t80.5 24q76 0 122.5 -66t46.5 -185q0 -35 -4 -62h112l12 -11zM152 59.5q47 -37.5 144 -37.5h88h2q5 32 5 61q0 112 -40 171t-109 59
q-39 0 -70.5 -20.5t-49 -55t-17.5 -73.5q0 -67 47 -104.5zM256 560v-152h-17v150z" />
    <glyph glyph-name="uniFBDF" unicode="&#x6cb;" horiz-adv-x="518" arabic-form="final" 
d="M518 0h-115q-22 -96 -102 -156t-232 -85l-6 21q144 24 220.5 79t98.5 141h-91q-102 0 -154.5 44t-52.5 118q0 45 21 85t57.5 64t80.5 24q76 0 122.5 -66t46.5 -185q0 -35 -4 -62h112l12 -11zM152 59.5q47 -37.5 144 -37.5h88h2q5 32 5 61q0 112 -40 171t-109 59
q-39 0 -70.5 -20.5t-49 -55t-17.5 -73.5q0 -67 47 -104.5zM236.5 501.5q-4.5 4.5 -4.5 11.5t4.5 11.5t11.5 4.5t11.5 -4.5t4.5 -11.5t-4.5 -11.5t-11.5 -4.5t-11.5 4.5zM174.5 409.5q-4.5 4.5 -4.5 11.5q0 6 4.5 10.5t11.5 4.5t11.5 -4.5t4.5 -10.5q0 -7 -4.5 -11.5
t-11.5 -4.5t-11.5 4.5zM298.5 409.5q-4.5 4.5 -4.5 11.5q0 6 4.5 10.5t11.5 4.5t11.5 -4.5t4.5 -10.5q0 -7 -4.5 -11.5t-11.5 -4.5t-11.5 4.5z" />
    <glyph glyph-name="uniFBE1" unicode="&#x6c5;" horiz-adv-x="518" arabic-form="final" 
d="M518 0h-115q-22 -96 -102 -156t-232 -85l-6 21q151 24 232 87l-195 5l-9 20l226 -6q48 47 65 114h-91q-102 0 -154.5 44t-52.5 118q0 45 21 85t57.5 64t80.5 24q76 0 122.5 -66t46.5 -185q0 -35 -4 -62h112l12 -11zM152 59.5q47 -37.5 144 -37.5h88h2q5 32 5 61
q0 112 -40 171t-109 59q-39 0 -70.5 -20.5t-49 -55t-17.5 -73.5q0 -67 47 -104.5z" />
    <glyph glyph-name="uniFBE3" unicode="&#x6c9;" horiz-adv-x="518" arabic-form="final" 
d="M518 0h-115q-22 -96 -102 -156t-232 -85l-6 21q144 24 220.5 79t98.5 141h-91q-102 0 -154.5 44t-52.5 118q0 45 21 85t57.5 64t80.5 24q76 0 122.5 -66t46.5 -185q0 -35 -4 -62h112l12 -11zM152 59.5q47 -37.5 144 -37.5h88h2q5 32 5 61q0 112 -40 171t-109 59
q-39 0 -70.5 -20.5t-49 -55t-17.5 -73.5q0 -67 47 -104.5zM163 411l77 137h16l77 -137l-13 -6l-72 124l-72 -124z" />
    <glyph glyph-name="uniFBE5" unicode="&#x6d0;" horiz-adv-x="709" arabic-form="final" 
d="M709 0q-32 0 -57.5 6.5t-56.5 19.5q19 -19 19 -46q0 -42 -35 -80.5t-107 -63t-175 -24.5q-121 0 -177.5 55.5t-56.5 150.5q0 87 36 173l16 -5q-32 -81 -32 -166q0 -87 51.5 -136.5t164.5 -49.5q97 0 163.5 22.5t99.5 56.5t33 69q0 19 -13.5 34t-52.5 33t-120 45l9 19
q54 -18 131 -50q55 -23 87.5 -32t74.5 -9l13 -11zM290 -313.5q-5 4.5 -5 11.5t5 12t11 5q7 0 11.5 -5t4.5 -12t-4.5 -11.5t-11.5 -4.5q-6 0 -11 4.5zM290 -436q-5 5 -5 12t5 11.5t11 4.5q7 0 11.5 -4.5t4.5 -11.5t-4.5 -12t-11.5 -5q-6 0 -11 5z" />
    <glyph glyph-name="uniFBE6" unicode="&#x6d0;" horiz-adv-x="252" arabic-form="initial" 
d="M100 36q34 14 46.5 42t12.5 76q0 54 -9.5 105.5t-30.5 109.5l21 7q39 -112 39 -222q0 -56 -15.5 -89t-54 -49t-109.5 -16l-15 11l17 11q64 0 98 14zM100 -132.5q-5 4.5 -5 11.5t5 12t11 5q7 0 11.5 -5t4.5 -12t-4.5 -11.5t-11.5 -4.5q-6 0 -11 4.5zM100 -255q-5 5 -5 12
t5 11.5t11 4.5q7 0 11.5 -4.5t4.5 -11.5t-4.5 -12t-11.5 -5q-6 0 -11 5z" />
    <glyph glyph-name="uniFBE7" unicode="&#x6d0;" horiz-adv-x="305" arabic-form="medial" 
d="M320 11l-15 -11q-57 0 -98 26.5t-54 71.5q-12 -46 -51.5 -72t-101.5 -26l-15 11l17 11q70 0 105 32.5t35 91.5v160h20v-160q0 -58 39 -91t105 -33zM140 -132.5q-5 4.5 -5 11.5t5 12t11 5q7 0 11.5 -5t4.5 -12t-4.5 -11.5t-11.5 -4.5q-6 0 -11 4.5zM140 -255q-5 5 -5 12
t5 11.5t11 4.5q7 0 11.5 -4.5t4.5 -11.5t-4.5 -12t-11.5 -5q-6 0 -11 5z" />
    <glyph glyph-name="uniFBE8" unicode="&#x649;" horiz-adv-x="252" arabic-form="initial" 
d="M100 36q34 14 46.5 42t12.5 76q0 54 -9.5 105.5t-30.5 109.5l21 7q39 -112 39 -222q0 -56 -15.5 -89t-54 -49t-109.5 -16l-15 11l17 11q64 0 98 14z" />
    <glyph glyph-name="uniFBE9" unicode="&#x649;" horiz-adv-x="305" arabic-form="medial" 
d="M320 11l-15 -11q-57 0 -98 26.5t-54 71.5q-12 -46 -51.5 -72t-101.5 -26l-15 11l17 11q70 0 105 32.5t35 91.5v160h20v-160q0 -58 39 -91t105 -33z" />
    <glyph glyph-name="uniFBFD" unicode="&#x6cc;" horiz-adv-x="709" arabic-form="final" 
d="M709 0q-32 0 -57.5 6.5t-56.5 19.5q19 -19 19 -46q0 -42 -35 -80.5t-107 -63t-175 -24.5q-121 0 -177.5 55.5t-56.5 150.5q0 87 36 173l16 -5q-32 -81 -32 -166q0 -87 51.5 -136.5t164.5 -49.5q97 0 163.5 22.5t99.5 56.5t33 69q0 19 -13.5 34t-52.5 33t-120 45l9 19
q54 -18 131 -50q55 -23 87.5 -32t74.5 -9l13 -11z" />
    <glyph glyph-name="uniFBFE" unicode="&#x6cc;" horiz-adv-x="252" arabic-form="initial" 
d="M100 36q34 14 46.5 42t12.5 76q0 54 -9.5 105.5t-30.5 109.5l21 7q39 -112 39 -222q0 -56 -15.5 -89t-54 -49t-109.5 -16l-15 11l17 11q64 0 98 14zM38 -153.5q-5 4.5 -5 11.5t5 12t12 5t11.5 -5t4.5 -12t-4.5 -11.5t-11.5 -4.5t-12 4.5zM160.5 -153.5
q-4.5 4.5 -4.5 11.5t4.5 12t11.5 5t12 -5t5 -12t-5 -11.5t-12 -4.5t-11.5 4.5z" />
    <glyph glyph-name="uniFBFF" unicode="&#x6cc;" horiz-adv-x="305" arabic-form="medial" 
d="M320 11l-15 -11q-57 0 -98 26.5t-54 71.5q-12 -46 -51.5 -72t-101.5 -26l-15 11l17 11q70 0 105 32.5t35 91.5v160h20v-160q0 -58 39 -91t105 -33zM79 -153.5q-5 4.5 -5 11.5t5 12t12 5t11.5 -5t4.5 -12t-4.5 -11.5t-11.5 -4.5t-12 4.5zM201.5 -153.5q-4.5 4.5 -4.5 11.5
t4.5 12t11.5 5t12 -5t5 -12t-5 -11.5t-12 -4.5t-11.5 4.5z" />
    <glyph glyph-name="uniFC5B" unicode="&#xfc5b;" horiz-adv-x="451" arabic-form="isolated" 
d="M29 8l6 22q75 -20 154 -20t128.5 30t49.5 83q0 82 -51 166.5t-131 170.5l16 15q83 -88 135 -175.5t52 -176.5q0 -65 -57 -100t-142 -35q-87 0 -160 20zM146 574q-5 5 -5 12t5 12t12 5t12 -5t5 -12t-5 -12t-12 -5t-12 5zM166 836v-152h-17v150z" />
    <glyph glyph-name="uniFC5C" unicode="&#xfc5c;" horiz-adv-x="332" arabic-form="isolated" 
d="M-22 -219q139 46 200.5 115.5t61.5 168.5q0 107 -42 231l21 7q18 -62 29 -118.5t11 -117.5q0 -111 -64.5 -186t-207.5 -123zM202 566v-152h-17v150z" />
    <glyph glyph-name="uniFC61" unicode="&#xfc61;" arabic-form="isolated" 
d="M245 666q0 -34 -16 -51.5t-43 -17.5q-21 0 -34 11t-19 29q-6 -18 -19.5 -29.5t-34.5 -11.5q-25 0 -40.5 17t-15.5 52q0 28 9 57l15 -4q-8 -20 -8 -51q0 -53 42 -53q21 0 33 16t12 40v45h15v-46q0 -23 11 -38.5t32 -15.5q44 0 44 55q0 32 -17 69l15 6q19 -41 19 -79z
M193.5 967q17.5 -21 17.5 -52q0 -40 -42.5 -79t-106.5 -64l-6 14q59 24 94 53q-40 11 -58.5 32t-18.5 48q0 31 20.5 50t48.5 19q34 0 51.5 -21zM196 914q0 25 -13.5 42t-40.5 17q-23 0 -38.5 -15t-15.5 -40q0 -51 74 -69q34 32 34 65z" />
    <glyph glyph-name="uniFC63" unicode="&#xfc63;" arabic-form="isolated" 
d="M245 666q0 -34 -16 -51.5t-43 -17.5q-21 0 -34 11t-19 29q-6 -18 -19.5 -29.5t-34.5 -11.5q-25 0 -40.5 17t-15.5 52q0 28 9 57l15 -4q-8 -20 -8 -51q0 -53 42 -53q21 0 33 16t12 40v45h15v-46q0 -23 11 -38.5t32 -15.5q44 0 44 55q0 32 -17 69l15 6q19 -41 19 -79z
M141 939v-152h-17v150z" />
    <glyph glyph-name="uniFD3C" unicode="&#xfd3c;" horiz-adv-x="221" arabic-form="final" 
d="M93 701l20 2v-570q0 -58 28 -84.5t82 -26.5l13 -11l-15 -11q-61 0 -94.5 32.5t-33.5 99.5v569zM0 844l205 39l-1 -15l-205 -40zM0 769l205 39l-1 -15l-205 -40z" />
    <glyph glyph-name="uniFD3D" unicode="&#xfd3d;" horiz-adv-x="212" arabic-form="isolated" 
d="M93 0v624l20 2v-626h-20zM0 769l205 39l-1 -15l-205 -40zM0 694l205 39l-1 -15l-205 -40z" />
    <glyph glyph-name="uniFE70" unicode="&#xfe70;" horiz-adv-x="600" arabic-form="isolated" 
d="M41 662l205 39l-1 -15l-205 -40zM41 587l205 39l-1 -15l-205 -40z" />
    <glyph glyph-name="uniFE72" unicode="&#xfe72;" horiz-adv-x="600" arabic-form="isolated" 
d="M291 766q18 -21 18 -48q0 -40 -40 -77.5t-102 -63.5l-15 7q-2 76 -36 76q-13 0 -24 -7.5t-25 -23.5l-9 11q16 18 29.5 27.5t27.5 9.5q23 0 37 -22t15 -62q53 25 83 51q-39 11 -57.5 31.5t-18.5 44.5q0 28 19.5 47.5t46.5 19.5q33 0 51 -21zM293 716q0 21 -14 37.5
t-39 16.5q-21 0 -35.5 -15t-14.5 -36t17.5 -38.5t54.5 -25.5q31 31 31 61z" />
    <glyph glyph-name="uniFE74" unicode="&#xfe74;" horiz-adv-x="600" arabic-form="isolated" 
d="M41 -87l205 39l-1 -15l-205 -40zM41 -162l205 39l-1 -15l-205 -40z" />
    <glyph glyph-name="uniFE76" unicode="&#xfe76;" horiz-adv-x="600" arabic-form="isolated" 
d="M41 615l205 39l-1 -15l-205 -40z" />
    <glyph glyph-name="uniFE78" unicode="&#xfe78;" horiz-adv-x="600" arabic-form="isolated" 
d="M162.5 776q17.5 -21 17.5 -52q0 -40 -42.5 -79t-106.5 -64l-6 14q59 24 94 53q-40 11 -58.5 32t-18.5 48q0 31 20.5 50t48.5 19q34 0 51.5 -21zM165 723q0 25 -13.5 42t-40.5 17q-23 0 -38.5 -15t-15.5 -40q0 -51 74 -69q34 32 34 65z" />
    <glyph glyph-name="uniFE7C" unicode="&#xfe7c;" horiz-adv-x="600" arabic-form="isolated" 
d="M245 666q0 -34 -16 -51.5t-43 -17.5q-21 0 -34 11t-19 29q-6 -18 -19.5 -29.5t-34.5 -11.5q-25 0 -40.5 17t-15.5 52q0 28 9 57l15 -4q-8 -20 -8 -51q0 -53 42 -53q21 0 33 16t12 40v45h15v-46q0 -23 11 -38.5t32 -15.5q44 0 44 55q0 32 -17 69l15 6q19 -41 19 -79z" />
    <glyph glyph-name="uniFE7E" unicode="&#xfe7e;" horiz-adv-x="600" arabic-form="isolated" 
d="M165 609q-26 -25 -65 -25t-65 25t-26 64t26 64t65 25t65 -25t26 -64t-26 -64zM154 725.5q-21 20.5 -54 20.5t-54 -20.5t-21 -52.5t21 -52.5t54 -20.5t54 20.5t21 52.5t-21 52.5z" />
    <glyph glyph-name="uniFE82" unicode="&#x622;" horiz-adv-x="221" arabic-form="final" 
d="M93 701l20 2v-570q0 -58 28 -84.5t82 -26.5l13 -11l-15 -11q-61 0 -94.5 32.5t-33.5 99.5v569zM-2 792q11 25 27.5 42t36.5 17q14 0 24 -4t24 -13q12 -8 21.5 -12t22.5 -4q10 0 21.5 5t28.5 18l7 -13q-33 -27 -60 -27q-14 0 -24 4t-23 12q-23 15 -42 15q-27 0 -49 -45z
" />
    <glyph glyph-name="uniFE84" unicode="&#x623;" horiz-adv-x="221" arabic-form="final" 
d="M93 701l20 2v-570q0 -58 28 -84.5t82 -26.5l13 -11l-15 -11q-61 0 -94.5 32.5t-33.5 99.5v569zM194 804l-181 -29l-2 16l76 12q-58 35 -58 81q0 30 22.5 50t63.5 20q31 0 58 -15l-7 -13q-25 13 -51 13q-35 0 -52.5 -16t-17.5 -39q0 -22 16.5 -42t45.5 -36l85 14z" />
    <glyph glyph-name="uniFE86" unicode="&#x624;" horiz-adv-x="518" arabic-form="final" 
d="M518 0h-115q-22 -96 -102 -156t-232 -85l-6 21q144 24 220.5 79t98.5 141h-91q-102 0 -154.5 44t-52.5 118q0 45 21 85t57.5 64t80.5 24q76 0 122.5 -66t46.5 -185q0 -35 -4 -62h112l12 -11zM152 59.5q47 -37.5 144 -37.5h88h2q5 32 5 61q0 112 -40 171t-109 59
q-39 0 -70.5 -20.5t-49 -55t-17.5 -73.5q0 -67 47 -104.5zM339 436l-181 -29l-2 16l76 12q-58 35 -58 81q0 30 22.5 50t63.5 20q31 0 58 -15l-7 -13q-25 13 -51 13q-35 0 -52.5 -16t-17.5 -39q0 -22 16.5 -42t45.5 -36l85 14z" />
    <glyph glyph-name="uniFE88" unicode="&#x625;" horiz-adv-x="212" arabic-form="final" 
d="M93 732l20 2v-601q0 -59 24.5 -85t77.5 -26l12 -11l-15 -11q-60 0 -89.5 32t-29.5 100v600zM215 -211l-181 -29l-2 16l76 12q-58 35 -58 81q0 30 22.5 50t63.5 20q31 0 58 -15l-7 -13q-25 13 -51 13q-35 0 -52.5 -16t-17.5 -39q0 -22 16.5 -42t45.5 -36l85 14z" />
    <glyph glyph-name="uniFE8A" unicode="&#x626;" horiz-adv-x="709" arabic-form="final" 
d="M709 0q-32 0 -57.5 6.5t-56.5 19.5q19 -19 19 -46q0 -42 -35 -80.5t-107 -63t-175 -24.5q-121 0 -177.5 55.5t-56.5 150.5q0 87 36 173l16 -5q-32 -81 -32 -166q0 -87 51.5 -136.5t164.5 -49.5q97 0 163.5 22.5t99.5 56.5t33 69q0 19 -13.5 34t-52.5 33t-120 45l9 19
q54 -18 131 -50q55 -23 87.5 -32t74.5 -9l13 -11zM228 333l-181 -29l-2 16l76 12q-58 35 -58 81q0 30 22.5 50t63.5 20q31 0 58 -15l-7 -13q-25 13 -51 13q-35 0 -52.5 -16t-17.5 -39q0 -22 16.5 -42t45.5 -36l85 14z" />
    <glyph glyph-name="uniFE8B" unicode="&#x626;" horiz-adv-x="252" arabic-form="initial" 
d="M100 36q34 14 46.5 42t12.5 76q0 54 -9.5 105.5t-30.5 109.5l21 7q39 -112 39 -222q0 -56 -15.5 -89t-54 -49t-109.5 -16l-15 11l17 11q64 0 98 14zM210 488l-181 -29l-2 16l76 12q-58 35 -58 81q0 30 22.5 50t63.5 20q31 0 58 -15l-7 -13q-25 13 -51 13q-35 0 -52.5 -16
t-17.5 -39q0 -22 16.5 -42t45.5 -36l85 14z" />
    <glyph glyph-name="uniFE8C" unicode="&#x626;" horiz-adv-x="305" arabic-form="medial" 
d="M320 11l-15 -11q-57 0 -98 26.5t-54 71.5q-12 -46 -51.5 -72t-101.5 -26l-15 11l17 11q70 0 105 32.5t35 91.5v160h20v-160q0 -58 39 -91t105 -33zM243 411l-181 -29l-2 16l76 12q-58 35 -58 81q0 30 22.5 50t63.5 20q31 0 58 -15l-7 -13q-25 13 -51 13q-35 0 -52.5 -16
t-17.5 -39q0 -22 16.5 -42t45.5 -36l85 14z" />
    <glyph glyph-name="uniFE8E" unicode="&#x627;" horiz-adv-x="212" arabic-form="final" 
d="M93 732l20 2v-601q0 -59 24.5 -85t77.5 -26l12 -11l-15 -11q-60 0 -89.5 32t-29.5 100v600z" />
    <glyph glyph-name="uniFE90" unicode="&#x628;" horiz-adv-x="865" arabic-form="final" 
d="M879 12l-14 -12q-63 0 -96.5 28t-47.5 61q-136 -101 -392 -101q-135 0 -200.5 43t-65.5 129q0 74 35 147l16 -6q-31 -68 -31 -139q0 -76 60.5 -114t187.5 -38q126 0 223.5 26t157.5 73v197h20v-180q0 -20 12.5 -44t43 -42t79.5 -18zM341 -149q-5 5 -5 12t5 12t12 5t12 -5
t5 -12t-5 -12t-12 -5t-12 5z" />
    <glyph glyph-name="uniFE91" unicode="&#x628;" horiz-adv-x="252" arabic-form="initial" 
d="M100 36q34 14 46.5 42t12.5 76q0 54 -9.5 105.5t-30.5 109.5l21 7q39 -112 39 -222q0 -56 -15.5 -89t-54 -49t-109.5 -16l-15 11l17 11q64 0 98 14zM99 -149q-5 5 -5 12t5 12t12 5t12 -5t5 -12t-5 -12t-12 -5t-12 5z" />
    <glyph glyph-name="uniFE92" unicode="&#x628;" horiz-adv-x="305" arabic-form="medial" 
d="M320 11l-15 -11q-57 0 -98 26.5t-54 71.5q-12 -46 -51.5 -72t-101.5 -26l-15 11l17 11q70 0 105 32.5t35 91.5v160h20v-160q0 -58 39 -91t105 -33zM140 -149q-5 5 -5 12t5 12t12 5t12 -5t5 -12t-5 -12t-12 -5t-12 5z" />
    <glyph glyph-name="uniFE94" unicode="&#x629;" horiz-adv-x="483" arabic-form="final" 
d="M497 11l-14 -11h-10q-59 0 -92 31.5t-40 97.5q-24 -40 -68 -64.5t-98 -24.5q-69 0 -107.5 35.5t-38.5 90.5q0 84 79 136t230 59v120l20 3v-322q0 -73 29.5 -106.5t88.5 -33.5h9zM274.5 87q42.5 25 63.5 64v188q-144 -6 -216.5 -51.5t-72.5 -119.5q0 -46 33 -76t96 -30
q54 0 96.5 25zM274 597.5q-5 4.5 -5 11.5t5 12t12 5t11.5 -5t4.5 -12t-4.5 -11.5t-11.5 -4.5t-12 4.5zM396.5 597.5q-4.5 4.5 -4.5 11.5t4.5 12t11.5 5t12 -5t5 -12t-5 -11.5t-12 -4.5t-11.5 4.5z" />
    <glyph glyph-name="uniFE96" unicode="&#x62a;" horiz-adv-x="865" arabic-form="final" 
d="M879 12l-14 -12q-63 0 -96.5 28t-47.5 61q-136 -101 -392 -101q-135 0 -200.5 43t-65.5 129q0 74 35 147l16 -6q-31 -68 -31 -139q0 -76 60.5 -114t187.5 -38q126 0 223.5 26t157.5 73v197h20v-180q0 -20 12.5 -44t43 -42t79.5 -18zM328 407.5q-5 4.5 -5 11.5t5 12t12 5
t11.5 -5t4.5 -12t-4.5 -11.5t-11.5 -4.5t-12 4.5zM450.5 407.5q-4.5 4.5 -4.5 11.5t4.5 12t11.5 5t12 -5t5 -12t-5 -11.5t-12 -4.5t-11.5 4.5z" />
    <glyph glyph-name="uniFE97" unicode="&#x62a;" horiz-adv-x="252" arabic-form="initial" 
d="M100 36q34 14 46.5 42t12.5 76q0 54 -9.5 105.5t-30.5 109.5l21 7q39 -112 39 -222q0 -56 -15.5 -89t-54 -49t-109.5 -16l-15 11l17 11q64 0 98 14zM46 498.5q-5 4.5 -5 11.5t5 12t12 5t11.5 -5t4.5 -12t-4.5 -11.5t-11.5 -4.5t-12 4.5zM168.5 498.5q-4.5 4.5 -4.5 11.5
t4.5 12t11.5 5t12 -5t5 -12t-5 -11.5t-12 -4.5t-11.5 4.5z" />
    <glyph glyph-name="uniFE98" unicode="&#x62a;" horiz-adv-x="305" arabic-form="medial" 
d="M320 11l-15 -11q-57 0 -98 26.5t-54 71.5q-12 -46 -51.5 -72t-101.5 -26l-15 11l17 11q70 0 105 32.5t35 91.5v160h20v-160q0 -58 39 -91t105 -33zM79 421.5q-5 4.5 -5 11.5t5 12t12 5t11.5 -5t4.5 -12t-4.5 -11.5t-11.5 -4.5t-12 4.5zM201.5 421.5q-4.5 4.5 -4.5 11.5
t4.5 12t11.5 5t12 -5t5 -12t-5 -11.5t-12 -4.5t-11.5 4.5z" />
    <glyph glyph-name="uniFE9A" unicode="&#x62b;" horiz-adv-x="865" arabic-form="final" 
d="M879 12l-14 -12q-63 0 -96.5 28t-47.5 61q-136 -101 -392 -101q-135 0 -200.5 43t-65.5 129q0 74 35 147l16 -6q-31 -68 -31 -139q0 -76 60.5 -114t187.5 -38q126 0 223.5 26t157.5 73v197h20v-180q0 -20 12.5 -44t43 -42t79.5 -18zM389.5 462.5q-4.5 4.5 -4.5 11.5
t4.5 11.5t11.5 4.5t11.5 -4.5t4.5 -11.5t-4.5 -11.5t-11.5 -4.5t-11.5 4.5zM327.5 370.5q-4.5 4.5 -4.5 11.5q0 6 4.5 10.5t11.5 4.5t11.5 -4.5t4.5 -10.5q0 -7 -4.5 -11.5t-11.5 -4.5t-11.5 4.5zM451.5 370.5q-4.5 4.5 -4.5 11.5q0 6 4.5 10.5t11.5 4.5t11.5 -4.5
t4.5 -10.5q0 -7 -4.5 -11.5t-11.5 -4.5t-11.5 4.5z" />
    <glyph glyph-name="uniFE9B" unicode="&#x62b;" horiz-adv-x="252" arabic-form="initial" 
d="M100 36q34 14 46.5 42t12.5 76q0 54 -9.5 105.5t-30.5 109.5l21 7q39 -112 39 -222q0 -56 -15.5 -89t-54 -49t-109.5 -16l-15 11l17 11q64 0 98 14zM107.5 553.5q-4.5 4.5 -4.5 11.5t4.5 11.5t11.5 4.5t11.5 -4.5t4.5 -11.5t-4.5 -11.5t-11.5 -4.5t-11.5 4.5zM45.5 461.5
q-4.5 4.5 -4.5 11.5q0 6 4.5 10.5t11.5 4.5t11.5 -4.5t4.5 -10.5q0 -7 -4.5 -11.5t-11.5 -4.5t-11.5 4.5zM169.5 461.5q-4.5 4.5 -4.5 11.5q0 6 4.5 10.5t11.5 4.5t11.5 -4.5t4.5 -10.5q0 -7 -4.5 -11.5t-11.5 -4.5t-11.5 4.5z" />
    <glyph glyph-name="uniFE9C" unicode="&#x62b;" horiz-adv-x="305" arabic-form="medial" 
d="M320 11l-15 -11q-57 0 -98 26.5t-54 71.5q-12 -46 -51.5 -72t-101.5 -26l-15 11l17 11q70 0 105 32.5t35 91.5v160h20v-160q0 -58 39 -91t105 -33zM140.5 476.5q-4.5 4.5 -4.5 11.5t4.5 11.5t11.5 4.5t11.5 -4.5t4.5 -11.5t-4.5 -11.5t-11.5 -4.5t-11.5 4.5zM78.5 384.5
q-4.5 4.5 -4.5 11.5q0 6 4.5 10.5t11.5 4.5t11.5 -4.5t4.5 -10.5q0 -7 -4.5 -11.5t-11.5 -4.5t-11.5 4.5zM202.5 384.5q-4.5 4.5 -4.5 11.5q0 6 4.5 10.5t11.5 4.5t11.5 -4.5t4.5 -10.5q0 -7 -4.5 -11.5t-11.5 -4.5t-11.5 4.5z" />
    <glyph glyph-name="uniFE9E" unicode="&#x62c;" horiz-adv-x="701" arabic-form="final" 
d="M196 117.5q-95 -75.5 -95 -201.5q0 -66 32 -119.5t96 -85.5t157 -32q61 0 118 12.5t96 32.5l8 -20q-39 -20 -99.5 -33.5t-124.5 -13.5q-99 0 -167.5 35t-102 93.5t-33.5 130.5q0 147 118 229t332 90q-52 19 -88 42t-76 55q-42 34 -71.5 49t-72.5 15q-35 0 -62 -7.5
t-58 -26.5l-10 19q34 20 64 28.5t67 8.5q47 0 80 -17.5t78 -54.5q50 -40 93 -65.5t108 -42.5l-3 -19l-22 -1q-48 -2 -73 -4q15 -106 69 -149t149 -43l12 -11l-14 -11q-101 0 -160 49.5t-73 162.5q-177 -19 -272 -94.5zM345 -86q-5 5 -5 12t5 12t12 5t12 -5t5 -12t-5 -12
t-12 -5t-12 5z" />
    <glyph glyph-name="uniFE9F" unicode="&#x62c;" horiz-adv-x="687" arabic-form="initial" 
d="M286.5 406.5q30.5 -11.5 53.5 -29t59 -49.5q56 -51 106.5 -84t130.5 -55l-3 -21l-27 -2q-93 -2 -167.5 -25t-170.5 -66q-85 -38 -143 -56.5t-125 -18.5l-15 12l17 11q64 0 121 18t138 55q95 42 167 64.5t164 25.5q-70 23 -116 53.5t-95 74.5q-47 42 -81 61.5t-84 19.5
q-31 0 -58 -8t-57 -26l-11 20q33 20 63.5 28.5t62.5 8.5q40 0 70.5 -11.5zM281 -149q-5 5 -5 12t5 12t12 5t12 -5t5 -12t-5 -12t-12 -5t-12 5z" />
    <glyph glyph-name="uniFEA0" unicode="&#x62c;" horiz-adv-x="744" arabic-form="medial" 
d="M758 11l-14 -11q-200 0 -236 193q-49 -12 -97 -34t-111 -57q-93 -51 -159.5 -76.5t-140.5 -25.5l-15 11l17 11q70 0 131.5 24t152.5 72q92 49 153.5 73.5t133.5 28.5q-70 21 -115.5 47.5t-92.5 63.5q-44 34 -75 49.5t-76 15.5q-33 0 -60 -7.5t-60 -25.5l-10 19
q36 20 66 28t64 8q53 0 86.5 -16.5t80.5 -54.5q54 -43 104.5 -72t131.5 -51l-3 -19l-23 -1q-38 -2 -66 -7q19 -95 74.5 -135t146.5 -40zM360 -99q-5 5 -5 12t5 12t12 5t12 -5t5 -12t-5 -12t-12 -5t-12 5z" />
    <glyph glyph-name="uniFEA2" unicode="&#x62d;" horiz-adv-x="701" arabic-form="final" 
d="M196 117.5q-95 -75.5 -95 -201.5q0 -66 32 -119.5t96 -85.5t157 -32q61 0 118 12.5t96 32.5l8 -20q-39 -20 -99.5 -33.5t-124.5 -13.5q-99 0 -167.5 35t-102 93.5t-33.5 130.5q0 147 118 229t332 90q-52 19 -88 42t-76 55q-42 34 -71.5 49t-72.5 15q-35 0 -62 -7.5
t-58 -26.5l-10 19q34 20 64 28.5t67 8.5q47 0 80 -17.5t78 -54.5q50 -40 93 -65.5t108 -42.5l-3 -19l-22 -1q-48 -2 -73 -4q15 -106 69 -149t149 -43l12 -11l-14 -11q-101 0 -160 49.5t-73 162.5q-177 -19 -272 -94.5z" />
    <glyph glyph-name="uniFEA3" unicode="&#x62d;" horiz-adv-x="687" arabic-form="initial" 
d="M286.5 406.5q30.5 -11.5 53.5 -29t59 -49.5q56 -51 106.5 -84t130.5 -55l-3 -21l-27 -2q-93 -2 -167.5 -25t-170.5 -66q-85 -38 -143 -56.5t-125 -18.5l-15 12l17 11q64 0 121 18t138 55q95 42 167 64.5t164 25.5q-70 23 -116 53.5t-95 74.5q-47 42 -81 61.5t-84 19.5
q-31 0 -58 -8t-57 -26l-11 20q33 20 63.5 28.5t62.5 8.5q40 0 70.5 -11.5z" />
    <glyph glyph-name="uniFEA4" unicode="&#x62d;" horiz-adv-x="744" arabic-form="medial" 
d="M758 11l-14 -11q-200 0 -236 193q-49 -12 -97 -34t-111 -57q-93 -51 -159.5 -76.5t-140.5 -25.5l-15 11l17 11q70 0 131.5 24t152.5 72q92 49 153.5 73.5t133.5 28.5q-70 21 -115.5 47.5t-92.5 63.5q-44 34 -75 49.5t-76 15.5q-33 0 -60 -7.5t-60 -25.5l-10 19
q36 20 66 28t64 8q53 0 86.5 -16.5t80.5 -54.5q54 -43 104.5 -72t131.5 -51l-3 -19l-23 -1q-38 -2 -66 -7q19 -95 74.5 -135t146.5 -40z" />
    <glyph glyph-name="uniFEA6" unicode="&#x62e;" horiz-adv-x="701" arabic-form="final" 
d="M196 117.5q-95 -75.5 -95 -201.5q0 -66 32 -119.5t96 -85.5t157 -32q61 0 118 12.5t96 32.5l8 -20q-39 -20 -99.5 -33.5t-124.5 -13.5q-99 0 -167.5 35t-102 93.5t-33.5 130.5q0 147 118 229t332 90q-52 19 -88 42t-76 55q-42 34 -71.5 49t-72.5 15q-35 0 -62 -7.5
t-58 -26.5l-10 19q34 20 64 28.5t67 8.5q47 0 80 -17.5t78 -54.5q50 -40 93 -65.5t108 -42.5l-3 -19l-22 -1q-48 -2 -73 -4q15 -106 69 -149t149 -43l12 -11l-14 -11q-101 0 -160 49.5t-73 162.5q-177 -19 -272 -94.5zM211 489q-5 5 -5 12t5 12t12 5t12 -5t5 -12t-5 -12
t-12 -5t-12 5z" />
    <glyph glyph-name="uniFEA7" unicode="&#x62e;" horiz-adv-x="687" arabic-form="initial" 
d="M286.5 406.5q30.5 -11.5 53.5 -29t59 -49.5q56 -51 106.5 -84t130.5 -55l-3 -21l-27 -2q-93 -2 -167.5 -25t-170.5 -66q-85 -38 -143 -56.5t-125 -18.5l-15 12l17 11q64 0 121 18t138 55q95 42 167 64.5t164 25.5q-70 23 -116 53.5t-95 74.5q-47 42 -81 61.5t-84 19.5
q-31 0 -58 -8t-57 -26l-11 20q33 20 63.5 28.5t62.5 8.5q40 0 70.5 -11.5zM204 489q-5 5 -5 12t5 12t12 5t12 -5t5 -12t-5 -12t-12 -5t-12 5z" />
    <glyph glyph-name="uniFEA8" unicode="&#x62e;" horiz-adv-x="744" arabic-form="medial" 
d="M758 11l-14 -11q-200 0 -236 193q-49 -12 -97 -34t-111 -57q-93 -51 -159.5 -76.5t-140.5 -25.5l-15 11l17 11q70 0 131.5 24t152.5 72q92 49 153.5 73.5t133.5 28.5q-70 21 -115.5 47.5t-92.5 63.5q-44 34 -75 49.5t-76 15.5q-33 0 -60 -7.5t-60 -25.5l-10 19
q36 20 66 28t64 8q53 0 86.5 -16.5t80.5 -54.5q54 -43 104.5 -72t131.5 -51l-3 -19l-23 -1q-38 -2 -66 -7q19 -95 74.5 -135t146.5 -40zM203 490q-5 5 -5 12t5 12t12 5t12 -5t5 -12t-5 -12t-12 -5t-12 5z" />
    <glyph glyph-name="uniFEAA" unicode="&#x62f;" horiz-adv-x="505" arabic-form="final" 
d="M520 11l-15 -11q-48 0 -78 19.5t-46 57.5q-32 -43 -85.5 -66t-116.5 -23q-42 0 -77 7.5t-73 22.5l6 21q72 -28 146 -28q58 0 110 22.5t82 61.5l-148 370l22 10l141 -364q18 -48 44.5 -68.5t74.5 -20.5z" />
    <glyph glyph-name="uniFEAC" unicode="&#x630;" horiz-adv-x="505" arabic-form="final" 
d="M520 11l-15 -11q-48 0 -78 19.5t-46 57.5q-32 -43 -85.5 -66t-116.5 -23q-42 0 -77 7.5t-73 22.5l6 21q72 -28 146 -28q58 0 110 22.5t82 61.5l-148 370l22 10l141 -364q18 -48 44.5 -68.5t74.5 -20.5zM155 574q-5 5 -5 12t5 12t12 5t12 -5t5 -12t-5 -12t-12 -5t-12 5z
" />
    <glyph glyph-name="uniFEAE" unicode="&#x631;" horiz-adv-x="356" arabic-form="final" 
d="M371 11l-15 -11q-77 0 -99 67q-2 -113 -65 -187t-205 -122l-9 21q140 46 200.5 117t60.5 177q0 101 -38 223l20 7q22 -80 33 -171q6 -56 31.5 -83t73.5 -27z" />
    <glyph glyph-name="uniFEB0" unicode="&#x632;" horiz-adv-x="356" arabic-form="final" 
d="M371 11l-15 -11q-77 0 -99 67q-2 -113 -65 -187t-205 -122l-9 21q140 46 200.5 117t60.5 177q0 101 -38 223l20 7q22 -80 33 -171q6 -56 31.5 -83t73.5 -27zM185 421q-5 5 -5 12t5 12t12 5t12 -5t5 -12t-5 -12t-12 -5t-12 5z" />
    <glyph glyph-name="uniFEB2" unicode="&#x633;" horiz-adv-x="1277" arabic-form="final" 
d="M1292 11l-15 -11q-79 0 -123 22.5t-57 72.5q-13 -47 -49 -71t-89 -24t-89 25t-47 68q-10 -43 -42.5 -68t-86.5 -25q-84 0 -114 58q0 -154 -66 -223.5t-217 -69.5q-121 0 -177.5 55.5t-56.5 150.5q0 87 36 173l16 -6q-32 -79 -32 -166q0 -86 51.5 -135.5t164.5 -49.5
q96 0 153.5 28.5t83 87.5t25.5 153q0 42 -12.5 89.5t-39.5 126.5l21 9q32 -106 46 -169q11 -44 38.5 -67t81.5 -23q57 0 86 32.5t29 92.5v159h21v-159q0 -61 34 -93t93 -32q60 0 92 32t32 92l-1 204h21v-183q1 -80 41.5 -112.5t134.5 -32.5z" />
    <glyph glyph-name="uniFEB3" unicode="&#x633;" horiz-adv-x="794" arabic-form="initial" 
d="M721 156q0 -78 -36 -117t-103 -39q-55 0 -91 25.5t-46 69.5q-10 -44 -42.5 -69.5t-87.5 -25.5q-57 0 -91 25t-43 69q-25 -94 -181 -94l-15 11l17 11q88 0 128.5 30.5t40.5 89.5v164h21v-159q0 -125 124 -125q58 0 87.5 33t29.5 92v159h21v-159q0 -60 34.5 -92.5
t95.5 -32.5q116 0 116 132q0 103 -39 214l20 7q40 -111 40 -219z" />
    <glyph glyph-name="uniFEB4" unicode="&#x633;" horiz-adv-x="912" arabic-form="medial" 
d="M926 11l-14 -11q-78 0 -123 22.5t-58 71.5q-13 -46 -48 -70t-88 -24q-56 0 -92.5 25.5t-47.5 69.5q-10 -44 -43 -69.5t-88 -25.5q-56 0 -92.5 25.5t-45.5 69.5q-28 -95 -186 -95l-15 11l17 11q86 0 129.5 31.5t43.5 88.5v164h21v-159q0 -60 33.5 -92.5t94.5 -32.5
q60 0 90 32.5t30 92.5v159h21v-159q0 -60 34.5 -92.5t95.5 -32.5q59 0 90.5 31.5t31.5 92.5v220h21v-199q0 -80 41 -112.5t135 -32.5z" />
    <glyph glyph-name="uniFEB6" unicode="&#x634;" horiz-adv-x="1277" arabic-form="final" 
d="M1292 11l-15 -11q-79 0 -123 22.5t-57 72.5q-13 -47 -49 -71t-89 -24t-89 25t-47 68q-10 -43 -42.5 -68t-86.5 -25q-84 0 -114 58q0 -154 -66 -223.5t-217 -69.5q-121 0 -177.5 55.5t-56.5 150.5q0 87 36 173l16 -6q-32 -79 -32 -166q0 -86 51.5 -135.5t164.5 -49.5
q96 0 153.5 28.5t83 87.5t25.5 153q0 42 -12.5 89.5t-39.5 126.5l21 9q32 -106 46 -169q11 -44 38.5 -67t81.5 -23q57 0 86 32.5t29 92.5v159h21v-159q0 -61 34 -93t93 -32q60 0 92 32t32 92l-1 204h21v-183q1 -80 41.5 -112.5t134.5 -32.5zM810.5 476.5q-4.5 4.5 -4.5 11.5
t4.5 11.5t11.5 4.5t11.5 -4.5t4.5 -11.5t-4.5 -11.5t-11.5 -4.5t-11.5 4.5zM748.5 384.5q-4.5 4.5 -4.5 11.5q0 6 4.5 10.5t11.5 4.5t11.5 -4.5t4.5 -10.5q0 -7 -4.5 -11.5t-11.5 -4.5t-11.5 4.5zM872.5 384.5q-4.5 4.5 -4.5 11.5q0 6 4.5 10.5t11.5 4.5t11.5 -4.5
t4.5 -10.5q0 -7 -4.5 -11.5t-11.5 -4.5t-11.5 4.5z" />
    <glyph glyph-name="uniFEB7" unicode="&#x634;" horiz-adv-x="794" arabic-form="initial" 
d="M721 156q0 -78 -36 -117t-103 -39q-55 0 -91 25.5t-46 69.5q-10 -44 -42.5 -69.5t-87.5 -25.5q-57 0 -91 25t-43 69q-25 -94 -181 -94l-15 11l17 11q88 0 128.5 30.5t40.5 89.5v164h21v-159q0 -125 124 -125q58 0 87.5 33t29.5 92v159h21v-159q0 -60 34.5 -92.5
t95.5 -32.5q116 0 116 132q0 103 -39 214l20 7q40 -111 40 -219zM432.5 470.5q-4.5 4.5 -4.5 11.5t4.5 11.5t11.5 4.5t11.5 -4.5t4.5 -11.5t-4.5 -11.5t-11.5 -4.5t-11.5 4.5zM370.5 378.5q-4.5 4.5 -4.5 11.5q0 6 4.5 10.5t11.5 4.5t11.5 -4.5t4.5 -10.5q0 -7 -4.5 -11.5
t-11.5 -4.5t-11.5 4.5zM494.5 378.5q-4.5 4.5 -4.5 11.5q0 6 4.5 10.5t11.5 4.5t11.5 -4.5t4.5 -10.5q0 -7 -4.5 -11.5t-11.5 -4.5t-11.5 4.5z" />
    <glyph glyph-name="uniFEB8" unicode="&#x634;" horiz-adv-x="912" arabic-form="medial" 
d="M926 11l-14 -11q-78 0 -123 22.5t-58 71.5q-13 -46 -48 -70t-88 -24q-56 0 -92.5 25.5t-47.5 69.5q-10 -44 -43 -69.5t-88 -25.5q-56 0 -92.5 25.5t-45.5 69.5q-28 -95 -186 -95l-15 11l17 11q86 0 129.5 31.5t43.5 88.5v164h21v-159q0 -60 33.5 -92.5t94.5 -32.5
q60 0 90 32.5t30 92.5v159h21v-159q0 -60 34.5 -92.5t95.5 -32.5q59 0 90.5 31.5t31.5 92.5v220h21v-199q0 -80 41 -112.5t135 -32.5zM442.5 476.5q-4.5 4.5 -4.5 11.5t4.5 11.5t11.5 4.5t11.5 -4.5t4.5 -11.5t-4.5 -11.5t-11.5 -4.5t-11.5 4.5zM380.5 384.5
q-4.5 4.5 -4.5 11.5q0 6 4.5 10.5t11.5 4.5t11.5 -4.5t4.5 -10.5q0 -7 -4.5 -11.5t-11.5 -4.5t-11.5 4.5zM504.5 384.5q-4.5 4.5 -4.5 11.5q0 6 4.5 10.5t11.5 4.5t11.5 -4.5t4.5 -10.5q0 -7 -4.5 -11.5t-11.5 -4.5t-11.5 4.5z" />
    <glyph glyph-name="uniFEBA" unicode="&#x635;" horiz-adv-x="1349" arabic-form="final" 
d="M1363 11l-14 -11q-93 0 -152 75q-37 -42 -117 -58.5t-223 -16.5h-163v3q-84 0 -114 58q0 -154 -66 -223.5t-217 -69.5q-121 0 -177.5 55.5t-56.5 150.5q0 87 36 172l16 -5q-32 -79 -32 -166t51.5 -136t164.5 -49q96 0 153.5 28.5t83 87.5t25.5 153q0 42 -12.5 89.5
t-39.5 126.5l21 9q32 -106 46 -169q10 -42 35.5 -65t75.5 -25q56 179 147 285t206 106q99 0 148 -56t49 -156q0 -71 -28 -114q26 -34 60 -51t82 -17zM1072.5 38q76.5 16 110 55t33.5 111q0 189 -174 189q-110 0 -194.5 -97.5t-142.5 -273.5h152q139 0 215.5 16z" />
    <glyph glyph-name="uniFEBB" unicode="&#x635;" horiz-adv-x="911" arabic-form="initial" 
d="M789.5 360q48.5 -56 48.5 -156q0 -81 -35.5 -125t-116.5 -61.5t-227 -17.5h-163q-56 0 -96 26t-52 71q-11 -46 -49 -71.5t-99 -25.5l-15 11l17 11q67 0 101 31.5t34 90.5v221h21v-221q0 -55 34.5 -87t94.5 -35q55 181 147 287.5t208 106.5q99 0 147.5 -56zM674.5 38
q76.5 16 110 55t33.5 111q0 189 -175 189q-109 0 -193.5 -97.5t-142.5 -273.5h152q139 0 215.5 16z" />
    <glyph glyph-name="uniFEBC" unicode="&#x635;" horiz-adv-x="950" arabic-form="medial" 
d="M965 11l-15 -11q-94 0 -151 75q-37 -42 -117 -58.5t-223 -16.5h-163q-56 0 -96 26t-52 71q-11 -46 -49 -71.5t-99 -25.5l-15 11l17 11q67 0 101 31.5t34 90.5v221h21v-221q0 -55 34.5 -87t94.5 -35q55 181 147 287.5t208 106.5q99 0 147.5 -56t48.5 -156q0 -73 -27 -114
q25 -34 59 -51t82 -17zM674.5 38q76.5 16 110 55t33.5 111q0 189 -175 189q-109 0 -193.5 -97.5t-142.5 -273.5h152q139 0 215.5 16z" />
    <glyph glyph-name="uniFEBE" unicode="&#x636;" horiz-adv-x="1349" arabic-form="final" 
d="M992 473q-5 5 -5 12q0 8 5 13t12 5q8 0 13 -5t5 -13q0 -7 -5 -12t-13 -5q-7 0 -12 5zM1363 11l-14 -11q-93 0 -152 75q-37 -42 -117 -58.5t-223 -16.5h-163v3q-84 0 -114 58q0 -154 -66 -223.5t-217 -69.5q-121 0 -177.5 55.5t-56.5 150.5q0 87 36 172l16 -5
q-32 -79 -32 -166t51.5 -136t164.5 -49q96 0 153.5 28.5t83 87.5t25.5 153q0 42 -12.5 89.5t-39.5 126.5l21 9q32 -106 46 -169q10 -42 35.5 -65t75.5 -25q56 179 147 285t206 106q99 0 148 -56t49 -156q0 -71 -28 -114q26 -34 60 -51t82 -17zM1072.5 38q76.5 16 110 55
t33.5 111q0 189 -174 189q-110 0 -194.5 -97.5t-142.5 -273.5h152q139 0 215.5 16z" />
    <glyph glyph-name="uniFEBF" unicode="&#x636;" horiz-adv-x="911" arabic-form="initial" 
d="M593 473q-5 5 -5 12q0 8 5 13t13 5q7 0 12 -5t5 -13q0 -7 -5 -12t-12 -5q-8 0 -13 5zM789.5 360q48.5 -56 48.5 -156q0 -81 -35.5 -125t-116.5 -61.5t-227 -17.5h-163q-56 0 -96 26t-52 71q-11 -46 -49 -71.5t-99 -25.5l-15 11l17 11q67 0 101 31.5t34 90.5v221h21v-221
q0 -55 34.5 -87t94.5 -35q55 181 147 287.5t208 106.5q99 0 147.5 -56zM674.5 38q76.5 16 110 55t33.5 111q0 189 -175 189q-109 0 -193.5 -97.5t-142.5 -273.5h152q139 0 215.5 16z" />
    <glyph glyph-name="uniFEC0" unicode="&#x636;" horiz-adv-x="950" arabic-form="medial" 
d="M593 473q-5 5 -5 12q0 8 5 13t13 5q7 0 12 -5t5 -13q0 -7 -5 -12t-12 -5q-8 0 -13 5zM965 11l-15 -11q-94 0 -151 75q-37 -42 -117 -58.5t-223 -16.5h-163q-56 0 -96 26t-52 71q-11 -46 -49 -71.5t-99 -25.5l-15 11l17 11q67 0 101 31.5t34 90.5v221h21v-221
q0 -55 34.5 -87t94.5 -35q55 181 147 287.5t208 106.5q99 0 147.5 -56t48.5 -156q0 -73 -27 -114q25 -34 59 -51t82 -17zM674.5 38q76.5 16 110 55t33.5 111q0 189 -175 189q-109 0 -193.5 -97.5t-142.5 -273.5h152q139 0 215.5 16z" />
    <glyph glyph-name="uniFEC2" unicode="&#x637;" horiz-adv-x="834" arabic-form="final" 
d="M848 11l-14 -11q-93 0 -152 75q-37 -42 -117 -58.5t-223 -16.5h-300l4 22h125q16 55 38 106v604l21 3v-561q57 114 131.5 178t163.5 64q99 0 148 -56t49 -156q0 -71 -28 -114q26 -34 60 -51t82 -17zM557.5 38q76.5 16 110 55t33.5 111q0 189 -174 189
q-110 0 -194.5 -97.5t-142.5 -273.5h152q139 0 215.5 16z" />
    <glyph glyph-name="uniFEC3" unicode="&#x637;" horiz-adv-x="821" arabic-form="initial" 
d="M699 360q49 -56 49 -156q0 -81 -36 -125t-117 -61.5t-227 -17.5h-368l-15 11l17 11h195q14 50 38 107v603l21 3v-560q56 114 131.5 177.5t163.5 63.5q99 0 148 -56zM583.5 38q76.5 16 110 55t33.5 111q0 189 -175 189q-109 0 -193.5 -97.5t-142.5 -273.5h152
q139 0 215.5 16z" />
    <glyph glyph-name="uniFEC4" unicode="&#x637;" horiz-adv-x="859" arabic-form="medial" 
d="M874 11l-15 -11q-92 0 -151 75q-37 -42 -117 -58.5t-223 -16.5h-368l-15 11l17 11h195q14 50 38 107v603l21 3v-560q56 114 131.5 177.5t163.5 63.5q99 0 148 -56t49 -156q0 -71 -28 -114q26 -34 60 -51t82 -17zM583.5 38q76.5 16 110 55t33.5 111q0 189 -175 189
q-109 0 -193.5 -97.5t-142.5 -273.5h152q139 0 215.5 16z" />
    <glyph glyph-name="uniFEC6" unicode="&#x638;" horiz-adv-x="834" arabic-form="final" 
d="M848 11l-14 -11q-93 0 -152 75q-37 -42 -117 -58.5t-223 -16.5h-300l4 22h125q16 55 38 106v604l21 3v-561q57 114 131.5 178t163.5 64q99 0 148 -56t49 -156q0 -71 -28 -114q26 -34 60 -51t82 -17zM557.5 38q76.5 16 110 55t33.5 111q0 189 -174 189
q-110 0 -194.5 -97.5t-142.5 -273.5h152q139 0 215.5 16zM465 473q-5 5 -5 12t5 12t12 5t12 -5t5 -12t-5 -12t-12 -5t-12 5z" />
    <glyph glyph-name="uniFEC7" unicode="&#x638;" horiz-adv-x="819" arabic-form="initial" 
d="M699 360q49 -56 49 -156q0 -81 -36 -125t-117 -61.5t-227 -17.5h-368l-15 11l17 11h195q14 50 38 107v603l21 3v-560q56 114 131.5 177.5t163.5 63.5q99 0 148 -56zM583.5 38q76.5 16 110 55t33.5 111q0 189 -175 189q-109 0 -193.5 -97.5t-142.5 -273.5h152
q139 0 215.5 16zM490 473q-5 5 -5 12t5 12t12 5t12 -5t5 -12t-5 -12t-12 -5t-12 5z" />
    <glyph glyph-name="uniFEC8" unicode="&#x638;" horiz-adv-x="859" arabic-form="medial" 
d="M874 11l-15 -11q-92 0 -151 75q-37 -42 -117 -58.5t-223 -16.5h-368l-15 11l17 11h195q14 50 38 107v603l21 3v-560q56 114 131.5 177.5t163.5 63.5q99 0 148 -56t49 -156q0 -71 -28 -114q26 -34 60 -51t82 -17zM583.5 38q76.5 16 110 55t33.5 111q0 189 -175 189
q-109 0 -193.5 -97.5t-142.5 -273.5h152q139 0 215.5 16zM490 473q-5 5 -5 12t5 12t12 5t12 -5t5 -12t-5 -12t-12 -5t-12 5z" />
    <glyph glyph-name="uniFECA" unicode="&#x639;" horiz-adv-x="550" arabic-form="final" 
d="M131.5 14q-47.5 -56 -47.5 -135q0 -56 30.5 -101.5t89.5 -72t140 -26.5q58 0 108 11t88 31l8 -20q-38 -20 -91 -32t-115 -12q-87 0 -150 30t-96 80t-33 111q0 85 50 146.5t142 99.5l-40 39q-44 44 -78 75.5t-84 70.5l2 22q116 48 226 48q176 0 176 -107q0 -47 -39 -82.5
t-123 -71.5q63 -54 112 -75t121 -21h23l13 -11l-14 -11h-25q-71 0 -128.5 25.5t-123.5 82.5l-0.5 0.5l-0.5 0.5q-93 -39 -140.5 -95zM150.5 253.5q33.5 -30.5 75.5 -71.5q19 -19 51 -49q84 33 122 65t38 72q0 43 -38 65t-118 22q-104 0 -206 -41q42 -32 75.5 -62.5z" />
    <glyph glyph-name="uniFECB" unicode="&#x639;" horiz-adv-x="523" arabic-form="initial" 
d="M497 51q-129 -31 -212 -41t-213 -10h-72l-15 11l17 11h65q104 0 162 5q-78 42 -117.5 92.5t-39.5 112.5q0 44 20.5 81.5t62 60.5t101.5 23q32 0 68 -9.5t67 -27.5l-10 -20q-29 17 -62.5 26t-62.5 9q-80 0 -121.5 -41.5t-41.5 -101.5t40.5 -109t127.5 -94q50 5 100.5 15
t132.5 29z" />
    <glyph glyph-name="uniFECC" unicode="&#x639;" horiz-adv-x="534" arabic-form="medial" 
d="M549 10l-15 -10h-16q-120 0 -221 83q-69 -38 -147.5 -60.5t-131.5 -22.5h-18l-15 10l17 12h12q52 0 126.5 20t140.5 54q-30 28 -66 65q-44 45 -79.5 78t-86.5 70l2 22q55 22 106.5 35t110.5 13q88 0 136 -30t48 -81q0 -48 -36.5 -92.5t-98.5 -80.5q47 -38 94 -55.5
t111 -17.5h14zM145.5 255.5q32.5 -29.5 76.5 -72.5q45 -45 80 -75q60 34 95 74.5t35 84.5q0 43 -42 66.5t-122 23.5q-100 0 -197 -41q42 -31 74.5 -60.5z" />
    <glyph glyph-name="uniFECE" unicode="&#x63a;" horiz-adv-x="550" arabic-form="final" 
d="M131.5 14q-47.5 -56 -47.5 -135q0 -56 30.5 -101.5t89.5 -72t140 -26.5q58 0 108 11t88 31l8 -20q-38 -20 -91 -32t-115 -12q-87 0 -150 30t-96 80t-33 111q0 85 50 146.5t142 99.5l-40 39q-44 44 -78 75.5t-84 70.5l2 22q116 48 226 48q176 0 176 -107q0 -47 -39 -82.5
t-123 -71.5q63 -54 112 -75t121 -21h23l13 -11l-14 -11h-25q-71 0 -128.5 25.5t-123.5 82.5l-0.5 0.5l-0.5 0.5q-93 -39 -140.5 -95zM150.5 253.5q33.5 -30.5 75.5 -71.5q19 -19 51 -49q84 33 122 65t38 72q0 43 -38 65t-118 22q-104 0 -206 -41q42 -32 75.5 -62.5zM261 458
q-5 5 -5 12t5 12t12 5t12 -5t5 -12t-5 -12t-12 -5t-12 5z" />
    <glyph glyph-name="uniFECF" unicode="&#x63a;" horiz-adv-x="523" arabic-form="initial" 
d="M497 51q-129 -31 -212 -41t-213 -10h-72l-15 11l17 11h65q104 0 162 5q-78 42 -117.5 92.5t-39.5 112.5q0 44 20.5 81.5t62 60.5t101.5 23q32 0 68 -9.5t67 -27.5l-10 -20q-29 17 -62.5 26t-62.5 9q-80 0 -121.5 -41.5t-41.5 -101.5t40.5 -109t127.5 -94q50 5 100.5 15
t132.5 29zM244 469q-5 5 -5 12t5 12t12 5t12 -5t5 -12t-5 -12t-12 -5t-12 5z" />
    <glyph glyph-name="uniFED0" unicode="&#x63a;" horiz-adv-x="534" arabic-form="medial" 
d="M549 10l-15 -10h-16q-120 0 -221 83q-69 -38 -147.5 -60.5t-131.5 -22.5h-18l-15 10l17 12h12q52 0 126.5 20t140.5 54q-30 28 -66 65q-44 45 -79.5 78t-86.5 70l2 22q55 22 106.5 35t110.5 13q88 0 136 -30t48 -81q0 -48 -36.5 -92.5t-98.5 -80.5q47 -38 94 -55.5
t111 -17.5h14zM145.5 255.5q32.5 -29.5 76.5 -72.5q45 -45 80 -75q60 34 95 74.5t35 84.5q0 43 -42 66.5t-122 23.5q-100 0 -197 -41q42 -31 74.5 -60.5zM256 456q-5 5 -5 12t5 12t12 5t12 -5t5 -12t-5 -12t-12 -5t-12 5z" />
    <glyph glyph-name="uniFED2" unicode="&#x641;" horiz-adv-x="955" arabic-form="final" 
d="M970 11l-15 -11h-23q-56 0 -112.5 13.5t-104.5 38.5q-143 -64 -386 -64q-135 0 -200.5 43t-65.5 129q0 74 35 147l16 -6q-31 -68 -31 -139q0 -76 60.5 -114t187.5 -38q226 0 363 53q-61 36 -96.5 86.5t-35.5 110.5q0 49 20.5 90.5t56 65.5t79.5 24q50 0 87 -24.5t57 -66
t20 -91.5q0 -54 -35.5 -106t-109.5 -90q91 -40 195 -40h25zM618 153q36 -48 98 -81q75 34 110 82.5t35 103.5q0 69 -38.5 114.5t-104.5 45.5q-39 0 -70 -21t-48.5 -57t-17.5 -80q0 -59 36 -107zM706 513q-5 5 -5 12t5 12t12 5t12 -5t5 -12t-5 -12t-12 -5t-12 5z" />
    <glyph glyph-name="uniFED3" unicode="&#x641;" horiz-adv-x="448" arabic-form="initial" 
d="M329.5 457.5q45.5 -67.5 45.5 -193.5q0 -94 -30.5 -150t-112 -85t-232.5 -29l-15 12l17 10q137 0 212.5 23t105.5 68t33 121q-24 -20 -61.5 -31.5t-73.5 -11.5q-77 0 -124 44.5t-47 116.5q0 45 20.5 84.5t57 64t81.5 24.5q78 0 123.5 -67.5zM292 223.5q37 10.5 62 27.5
v11q0 119 -39 180t-110 61q-40 0 -71.5 -21t-48.5 -55.5t-17 -72.5q0 -65 41 -103t114 -38q32 0 69 10.5zM193 603q-5 5 -5 12t5 12t12 5t12 -5t5 -12t-5 -12t-12 -5t-12 5z" />
    <glyph glyph-name="uniFED4" unicode="&#x641;" horiz-adv-x="476" arabic-form="medial" 
d="M490 11l-14 -11h-23q-54 0 -107.5 12t-100.5 35q-97 -47 -226 -47h-19l-15 11l17 11h19q116 0 202 36q-65 36 -102.5 87.5t-37.5 112.5q0 48 20.5 89t56 65t78.5 24q50 0 87 -24.5t57 -65.5t20 -91q0 -55 -35 -107.5t-100 -89.5q88 -36 186 -36h25zM141.5 148.5
q38.5 -48.5 103.5 -80.5q66 33 101.5 82t35.5 105q0 68 -38.5 113.5t-104.5 45.5q-39 0 -70 -20.5t-48.5 -56.5t-17.5 -79q0 -61 38.5 -109.5zM226 511q-5 5 -5 12t5 12t12 5t12 -5t5 -12t-5 -12t-12 -5t-12 5z" />
    <glyph glyph-name="uniFED6" unicode="&#x642;" horiz-adv-x="752" arabic-form="final" 
d="M752 0h-115q-12 -111 -77 -173t-213 -62q-155 0 -219.5 54t-64.5 155q0 85 37 171l16 -5q-17 -42 -25 -81t-8 -84q0 -91 60 -139.5t207 -48.5q139 0 198 56t70 157h-105q-61 0 -106 21.5t-69 59t-24 85.5q0 46 20 85.5t56 63t82 23.5q78 0 123.5 -68.5t45.5 -194.5
q0 -36 -2 -53h115l12 -11zM620 22q1 17 1 51q0 119 -39.5 181t-109.5 62q-41 0 -72.5 -20.5t-48.5 -54.5t-17 -74q0 -66 48.5 -105.5t135.5 -39.5h100h2zM400 444.5q-5 4.5 -5 11.5t5 12t12 5t11.5 -5t4.5 -12t-4.5 -11.5t-11.5 -4.5t-12 4.5zM522.5 444.5
q-4.5 4.5 -4.5 11.5t4.5 12t11.5 5t12 -5t5 -12t-5 -11.5t-12 -4.5t-11.5 4.5z" />
    <glyph glyph-name="uniFED7" unicode="&#x642;" horiz-adv-x="448" arabic-form="initial" 
d="M329.5 457.5q45.5 -67.5 45.5 -193.5q0 -94 -30.5 -150t-112 -85t-232.5 -29l-15 12l17 10q137 0 212.5 23t105.5 68t33 121q-24 -20 -61.5 -31.5t-73.5 -11.5q-77 0 -124 44.5t-47 116.5q0 45 20.5 84.5t57 64t81.5 24.5q78 0 123.5 -67.5zM292 223.5q37 10.5 62 27.5
v11q0 119 -39 180t-110 61q-40 0 -71.5 -21t-48.5 -55.5t-17 -72.5q0 -65 41 -103t114 -38q32 0 69 10.5zM132 634.5q-5 4.5 -5 11.5t5 12t12 5t11.5 -5t4.5 -12t-4.5 -11.5t-11.5 -4.5t-12 4.5zM254.5 634.5q-4.5 4.5 -4.5 11.5t4.5 12t11.5 5t12 -5t5 -12t-5 -11.5
t-12 -4.5t-11.5 4.5z" />
    <glyph glyph-name="uniFED8" unicode="&#x642;" horiz-adv-x="476" arabic-form="medial" 
d="M490 11l-14 -11h-23q-54 0 -107.5 12t-100.5 35q-97 -47 -226 -47h-19l-15 11l17 11h19q116 0 202 36q-65 36 -102.5 87.5t-37.5 112.5q0 48 20.5 89t56 65t78.5 24q50 0 87 -24.5t57 -65.5t20 -91q0 -55 -35 -107.5t-100 -89.5q88 -36 186 -36h25zM141.5 148.5
q38.5 -48.5 103.5 -80.5q66 33 101.5 82t35.5 105q0 68 -38.5 113.5t-104.5 45.5q-39 0 -70 -20.5t-48.5 -56.5t-17.5 -79q0 -61 38.5 -109.5zM165 542.5q-5 4.5 -5 11.5t5 12t12 5t11.5 -5t4.5 -12t-4.5 -11.5t-11.5 -4.5t-12 4.5zM287.5 542.5q-4.5 4.5 -4.5 11.5t4.5 12
t11.5 5t12 -5t5 -12t-5 -11.5t-12 -4.5t-11.5 4.5z" />
    <glyph glyph-name="uniFEDA" unicode="&#x643;" horiz-adv-x="838" arabic-form="final" 
d="M853 12l-15 -12q-58 0 -89.5 28.5t-43.5 59.5q-62 -48 -156.5 -74t-219.5 -26q-135 0 -200.5 43t-65.5 129q0 74 35 147l16 -6q-31 -68 -31 -139q0 -76 60.5 -114t187.5 -38q121 0 215 26.5t154 74.5v621l19 2v-608q0 -20 11.5 -44t39 -42t71.5 -18zM425 316q42 16 42 45
q0 23 -29.5 41t-100.5 33l5 18l151 87l-1 -19l-132 -75q68 -17 96 -36.5t28 -48.5q0 -39 -48.5 -58.5t-128.5 -19.5l-4 17q80 0 122 16z" />
    <glyph glyph-name="uniFEDB" unicode="&#x643;" horiz-adv-x="454" arabic-form="initial" 
d="M389 718l-361 -255q153 -61 223 -123.5t70 -133.5q0 -103 -88.5 -154.5t-232.5 -51.5l-15 11l17 11q137 0 217.5 45.5t80.5 139.5q0 65 -69.5 125t-224.5 120l4 21l381 269z" />
    <glyph glyph-name="uniFEDC" unicode="&#x643;" horiz-adv-x="539" arabic-form="medial" 
d="M553 12l-14 -12q-54 0 -94.5 20.5t-87.5 70.5t-127 155q8 -24 8 -55q0 -91 -59.5 -141t-178.5 -50l-15 11l17 11q110 0 163.5 45t53.5 128q0 62 -41 113l-116 144l4 21l382 269l-2 -24l-365 -257l142 -176q102 -126 145 -174t81 -68.5t92 -20.5z" />
    <glyph glyph-name="uniFEDE" unicode="&#x644;" horiz-adv-x="700" arabic-form="final" 
d="M715 11l-15 -11q-57 0 -90 19.5t-47 58.5q-1 -134 -67 -196.5t-199 -62.5q-121 0 -177.5 55.5t-56.5 150.5q0 87 36 173l16 -5q-32 -81 -32 -166q0 -87 51.5 -136.5t164.5 -49.5q127 0 185.5 59t58.5 181v651l20 2v-562q1 -81 31.5 -115.5t107.5 -34.5z" />
    <glyph glyph-name="uniFEDF" unicode="&#x644;" horiz-adv-x="221" arabic-form="initial" 
d="M-15 11l17 11q106 0 106 110v600l20 2v-603q0 -131 -128 -131z" />
    <glyph glyph-name="uniFEE0" unicode="&#x644;" horiz-adv-x="236" arabic-form="medial" 
d="M250 11l-15 -11q-44 0 -75.5 20t-41.5 59q-10 -39 -41 -59t-77 -20l-15 11l17 11q106 0 106 110v601l20 2v-603q0 -110 109 -110z" />
    <glyph glyph-name="uniFEE2" unicode="&#x645;" horiz-adv-x="690" arabic-form="final" 
d="M704 11l-14 -11q-71 0 -108.5 25t-48.5 76q-13 -53 -45 -83t-79 -30q-44 0 -83.5 18t-92.5 52q-35 23 -57 34t-40 11q-53 0 -53 -110q0 -119 45 -321l-22 -3q-43 183 -43 324q0 133 72 133q15 0 34 -8q40 93 73 145t67.5 75t78.5 23q68 0 110 -51.5t42 -138.5
q0 -81 34.5 -115t117.5 -34zM490 53q29 43 29 117q0 79 -36.5 124t-97.5 45q-39 0 -69 -21.5t-59.5 -70t-68.5 -138.5q12 -6 49 -30q53 -34 90.5 -51.5t79.5 -17.5q54 0 83 43z" />
    <glyph glyph-name="uniFEE3" unicode="&#x645;" horiz-adv-x="599" arabic-form="initial" 
d="M486 310.5q41 -50.5 41 -138.5q0 -84 -34.5 -134t-97.5 -50q-50 0 -102 25t-131 79q-33 -52 -68.5 -72t-89.5 -20h-4l-15 11l17 11h6q42 0 69.5 12.5t50.5 44t54 93.5q36 73 64.5 113t60 58t74.5 18q64 0 105 -50.5zM477.5 54q28.5 44 28.5 118q0 79 -35.5 123t-91.5 44
q-40 0 -68.5 -17t-54.5 -56t-61 -113q-18 -35 -23 -44q78 -52 127 -75.5t95 -23.5q55 0 83.5 44z" />
    <glyph glyph-name="uniFEE4" unicode="&#x645;" horiz-adv-x="676" arabic-form="medial" 
d="M691 11l-15 -11q-70 0 -108 25t-49 76q-12 -53 -44 -83t-80 -30q-50 0 -102 25t-131 79q-33 -52 -68.5 -72t-89.5 -20h-4l-15 11l17 11h6q42 0 69.5 12.5t50.5 44t54 93.5q36 73 64.5 113t60 58t74.5 18q64 0 105 -50.5t41 -138.5v-1v0q0 -81 34 -115t117 -34zM477.5 54
q28.5 44 28.5 118q0 79 -35.5 123t-91.5 44q-40 0 -68.5 -17t-54.5 -56t-61 -113q-18 -35 -23 -44q78 -52 127 -75.5t95 -23.5q55 0 83.5 44z" />
    <glyph glyph-name="uniFEE6" unicode="&#x646;" horiz-adv-x="694" arabic-form="final" 
d="M709 11l-15 -11q-84 0 -114 58q0 -154 -66 -223.5t-217 -69.5q-121 0 -177.5 55.5t-56.5 150.5q0 87 36 173l16 -6q-32 -79 -32 -166q0 -86 51.5 -135.5t164.5 -49.5q96 0 153.5 28.5t83 87.5t25.5 153q0 42 -12.5 89.5t-39.5 126.5l21 9q32 -106 46 -169
q11 -44 38.5 -67t81.5 -23zM303 314q-5 5 -5 12t5 12t12 5t12 -5t5 -12t-5 -12t-12 -5t-12 5z" />
    <glyph glyph-name="uniFEE7" unicode="&#x646;" horiz-adv-x="252" arabic-form="initial" 
d="M100 36q34 14 46.5 42t12.5 76q0 54 -9.5 105.5t-30.5 109.5l21 7q39 -112 39 -222q0 -56 -15.5 -89t-54 -49t-109.5 -16l-15 11l17 11q64 0 98 14zM107 467q-5 5 -5 12t5 12t12 5t12 -5t5 -12t-5 -12t-12 -5t-12 5z" />
    <glyph glyph-name="uniFEE8" unicode="&#x646;" horiz-adv-x="305" arabic-form="medial" 
d="M320 11l-15 -11q-57 0 -98 26.5t-54 71.5q-12 -46 -51.5 -72t-101.5 -26l-15 11l17 11q70 0 105 32.5t35 91.5v160h20v-160q0 -58 39 -91t105 -33zM140 390q-5 5 -5 12t5 12t12 5t12 -5t5 -12t-5 -12t-12 -5t-12 5z" />
    <glyph glyph-name="uniFEEA" unicode="&#x647;" horiz-adv-x="483" arabic-form="final" 
d="M497 11l-14 -11h-10q-59 0 -92 31.5t-40 97.5q-24 -40 -68 -64.5t-98 -24.5q-69 0 -107.5 35.5t-38.5 90.5q0 84 79 136t230 59v120l20 3v-322q0 -73 29.5 -106.5t88.5 -33.5h9zM274.5 87q42.5 25 63.5 64v188q-144 -6 -216.5 -51.5t-72.5 -119.5q0 -46 33 -76t96 -30
q54 0 96.5 25z" />
    <glyph glyph-name="uniFEEB" unicode="&#x647;" horiz-adv-x="625" arabic-form="initial" 
d="M439.5 300.5q113.5 -89.5 113.5 -163.5q0 -43 -24 -77t-62 -53t-78 -19q-41 0 -86 13.5t-87 37.5q-86 -39 -200 -39h-16l-15 11l17 11h11q107 0 181 31q-56 38 -90 89.5t-34 108.5q0 45 19.5 82.5t54.5 59.5t78 22h7q-56 32 -117 63l11 20q203 -108 316.5 -197.5z
M125 147q35 -49 92 -84q64 30 97 79.5t33 104.5q0 63 -35 107t-90 44q-58 0 -95 -42.5t-37 -104.5q0 -55 35 -104zM455.5 25.5q33.5 15.5 55 44t21.5 65.5q0 43 -50.5 97t-142.5 115q28 -44 28 -99q0 -57 -32.5 -109.5t-95.5 -87.5q36 -20 75 -30.5t75 -10.5q33 0 66.5 15.5
z" />
    <glyph glyph-name="uniFEEC" unicode="&#x647;" horiz-adv-x="481" arabic-form="medial" 
d="M481 0h-181q57 -18 88 -50.5t31 -85.5q0 -46 -31 -78t-87 -32q-57 0 -100.5 31.5t-68 87.5t-25.5 127h-107l-15 11l17 11h105q1 84 29.5 156.5t76.5 115t103 42.5q47 0 76.5 -30t29.5 -89q0 -37 -17 -76.5t-48.5 -71.5t-72.5 -47h199l13 -11zM222.5 275
q-42.5 -39 -68.5 -106t-28 -147h81q55 0 99.5 29t69.5 74t25 90q0 49 -24.5 74t-63.5 25q-48 0 -90.5 -39zM373 -61.5q-26 30.5 -68 46t-89 15.5h-90q2 -101 48.5 -162.5t124.5 -61.5q49 0 74.5 26t25.5 63q0 43 -26 73.5z" />
    <glyph glyph-name="uniFEEE" unicode="&#x648;" horiz-adv-x="518" arabic-form="final" 
d="M518 0h-115q-22 -96 -102 -156t-232 -85l-6 21q144 24 220.5 79t98.5 141h-91q-102 0 -154.5 44t-52.5 118q0 45 21 85t57.5 64t80.5 24q76 0 122.5 -66t46.5 -185q0 -35 -4 -62h112l12 -11zM152 59.5q47 -37.5 144 -37.5h88h2q5 32 5 61q0 112 -40 171t-109 59
q-39 0 -70.5 -20.5t-49 -55t-17.5 -73.5q0 -67 47 -104.5z" />
    <glyph glyph-name="uniFEF0" unicode="&#x649;" horiz-adv-x="709" arabic-form="final" 
d="M709 0q-32 0 -57.5 6.5t-56.5 19.5q19 -19 19 -46q0 -42 -35 -80.5t-107 -63t-175 -24.5q-121 0 -177.5 55.5t-56.5 150.5q0 87 36 173l16 -5q-32 -81 -32 -166q0 -87 51.5 -136.5t164.5 -49.5q97 0 163.5 22.5t99.5 56.5t33 69q0 19 -13.5 34t-52.5 33t-120 45l9 19
q54 -18 131 -50q55 -23 87.5 -32t74.5 -9l13 -11z" />
    <glyph glyph-name="uniFEF2" unicode="&#x64a;" horiz-adv-x="709" arabic-form="final" 
d="M709 0q-32 0 -57.5 6.5t-56.5 19.5q19 -19 19 -46q0 -42 -35 -80.5t-107 -63t-175 -24.5q-121 0 -177.5 55.5t-56.5 150.5q0 87 36 173l16 -5q-32 -81 -32 -166q0 -87 51.5 -136.5t164.5 -49.5q97 0 163.5 22.5t99.5 56.5t33 69q0 19 -13.5 34t-52.5 33t-120 45l9 19
q54 -18 131 -50q55 -23 87.5 -32t74.5 -9l13 -11zM228 -334.5q-5 4.5 -5 11.5t5 12t12 5t11.5 -5t4.5 -12t-4.5 -11.5t-11.5 -4.5t-12 4.5zM350.5 -334.5q-4.5 4.5 -4.5 11.5t4.5 12t11.5 5t12 -5t5 -12t-5 -11.5t-12 -4.5t-11.5 4.5z" />
    <glyph glyph-name="uniFEF3" unicode="&#x64a;" horiz-adv-x="252" arabic-form="initial" 
d="M100 36q34 14 46.5 42t12.5 76q0 54 -9.5 105.5t-30.5 109.5l21 7q39 -112 39 -222q0 -56 -15.5 -89t-54 -49t-109.5 -16l-15 11l17 11q64 0 98 14zM38 -153.5q-5 4.5 -5 11.5t5 12t12 5t11.5 -5t4.5 -12t-4.5 -11.5t-11.5 -4.5t-12 4.5zM160.5 -153.5
q-4.5 4.5 -4.5 11.5t4.5 12t11.5 5t12 -5t5 -12t-5 -11.5t-12 -4.5t-11.5 4.5z" />
    <glyph glyph-name="uniFEF4" unicode="&#x64a;" horiz-adv-x="305" arabic-form="medial" 
d="M320 11l-15 -11q-57 0 -98 26.5t-54 71.5q-12 -46 -51.5 -72t-101.5 -26l-15 11l17 11q70 0 105 32.5t35 91.5v160h20v-160q0 -58 39 -91t105 -33zM79 -153.5q-5 4.5 -5 11.5t5 12t12 5t11.5 -5t4.5 -12t-4.5 -11.5t-11.5 -4.5t-12 4.5zM201.5 -153.5q-4.5 4.5 -4.5 11.5
t4.5 12t11.5 5t12 -5t5 -12t-5 -11.5t-12 -4.5t-11.5 4.5z" />
    <glyph glyph-name=".notdef" horiz-adv-x="666" 
d="M543 -350h-420v1400h420v-1400zM163 1012v-1324h341v1324h-341zM409.5 419q25.5 -32 25.5 -83q0 -53 -22.5 -82t-72.5 -36v-45q0 -11 -7.5 -17.5t-17.5 -6.5t-17.5 6.5t-7.5 17.5v84q53 3 72 19.5t19 57.5q0 33 -13 51t-48 18q-29 0 -52 -11q-8 -3 -13 -3
q-11 0 -17.5 6.5t-6.5 16.5q0 19 29.5 29t63.5 10q60 0 85.5 -32zM340 110q10 -10 10 -25q0 -16 -10 -26.5t-25 -10.5t-25 10.5t-10 26.5q0 15 10 25t25 10t25 -10z" />
    <glyph glyph-name=".null" 
 />
    <glyph glyph-name="nonmarkingreturn" unicode="&#xd;" horiz-adv-x="296" 
 />
    <glyph glyph-name="space" unicode=" " horiz-adv-x="296" 
 />
    <glyph glyph-name="exclam" unicode="!" horiz-adv-x="238" 
d="M129 202h-21v479h21v-479zM136.5 31.5q6.5 -6.5 6.5 -17.5q0 -9 -6.5 -15.5t-17.5 -6.5q-10 0 -16.5 6.5t-6.5 15.5q0 11 6.5 17.5t16.5 6.5q11 0 17.5 -6.5z" />
    <glyph glyph-name="quotedbl" unicode="&#x22;" horiz-adv-x="327" 
d="M83 681h23l-3 -240h-17zM221 681h23l-3 -240h-17z" />
    <glyph glyph-name="numbersign" unicode="#" horiz-adv-x="488" 
d="M390 460l-31 -240h77v-20h-80l-26 -200h-22l26 200h-214l-27 -200h-22l27 200h-83v20h85l32 240h-80v19h83l24 183h22l-24 -183h214l24 183h22l-24 -183h80v-19h-83zM337 220l31 240h-214l-32 -240h215z" />
    <glyph glyph-name="dollar" unicode="$" horiz-adv-x="523" 
d="M402.5 46.5q-51.5 -51.5 -135.5 -56.5v-136h-19v136q-60 1 -106.5 21t-87.5 57l14 15q39 -35 81.5 -53.5t100.5 -18.5q82 0 132 45t50 120q0 48 -17.5 78t-54 51t-101.5 42q-69 22 -107.5 44.5t-55.5 52t-17 73.5q0 65 47 108t123 45v141h20v-141q52 -2 90 -18.5
t74 -48.5l-15 -16q-35 33 -73 48t-89 15q-70 0 -112.5 -37.5t-42.5 -95.5q0 -40 16 -66t51 -45t99 -39q68 -22 108 -45t59.5 -57.5t19.5 -87.5q0 -79 -51.5 -130.5z" />
    <glyph glyph-name="percent" unicode="%" horiz-adv-x="760" 
d="M624 684l-461 -699l-19 11l462 699zM295.5 631.5q36.5 -41.5 36.5 -112.5q0 -72 -36 -115t-98 -43q-61 0 -98 42t-37 113q0 73 36 115t99 42q61 0 97.5 -41.5zM114.5 616q-28.5 -38 -28.5 -100q0 -60 28.5 -98t83.5 -38t83.5 38.5t28.5 100.5q0 60 -29 97.5t-83 37.5
q-55 0 -83.5 -38zM660.5 260.5q36.5 -41.5 36.5 -112.5q0 -72 -36 -115t-99 -43q-61 0 -97.5 42.5t-36.5 112.5q0 72 35.5 114.5t98.5 42.5q62 0 98.5 -41.5zM478.5 245q-28.5 -38 -28.5 -100q0 -60 28.5 -98t83.5 -38t83.5 38.5t28.5 100.5q0 61 -28.5 98t-83.5 37
t-83.5 -38z" />
    <glyph glyph-name="ampersand" unicode="&#x26;" horiz-adv-x="715" 
d="M409 651.5q41 -40.5 41 -103.5q0 -58 -38.5 -98t-126.5 -88l237 -222q25 50 42 100.5t29 113.5l22 -6q-27 -129 -79 -222l130 -121l-18 -12l-123 114q-41 -56 -94.5 -86.5t-130.5 -30.5q-55 0 -99.5 22.5t-70.5 62.5t-26 90q0 66 36.5 112t111.5 88q-59 57 -81.5 92.5
t-22.5 86.5q0 42 20 75.5t55 53t79 19.5q66 0 107 -40.5zM207.5 635.5q-36.5 -36.5 -36.5 -90.5q0 -31 7 -53t28 -48.5t65 -67.5q83 44 120 82t37 90q0 57 -35.5 90.5t-90.5 33.5q-58 0 -94.5 -36.5zM161.5 269q-34.5 -44 -34.5 -104q0 -44 22 -79t61.5 -55t89.5 -20
q71 0 121 28t89 82l-243 231q-71 -39 -105.5 -83z" />
    <glyph glyph-name="quotesingle" unicode="'" horiz-adv-x="189" 
d="M83 681h23l-3 -240h-17z" />
    <glyph glyph-name="parenleft" unicode="(" horiz-adv-x="325" 
d="M256 820q-56 -83 -89 -143.5t-54.5 -141.5t-21.5 -185t21.5 -185t54.5 -141.5t89 -143.5l-15 -9q-59 84 -93.5 146t-56.5 144t-22 189t22 189t56.5 144t93.5 146z" />
    <glyph glyph-name="parenright" unicode=")" horiz-adv-x="325" 
d="M177.5 683q34.5 -62 56.5 -144t22 -189t-22 -189t-56.5 -144t-93.5 -146l-15 9q56 83 89 143.5t54.5 141.5t21.5 185t-21.5 185t-54.5 141.5t-89 143.5l15 9q59 -84 93.5 -146z" />
    <glyph glyph-name="asterisk" unicode="*" horiz-adv-x="432" 
d="M230 557l95 -128l-18 -13l-91 130l-92 -130l-18 13l96 127l-153 47l7 20l151 -51l-2 160h22l-1 -160l150 51l6 -20z" />
    <glyph glyph-name="plus" unicode="+" horiz-adv-x="485" 
d="M254 341h153v-21h-153v-155h-22v155h-154v21h154v155h22v-155z" />
    <glyph glyph-name="comma" unicode="," horiz-adv-x="163" 
d="M98.5 31.5q6.5 -6.5 6.5 -17.5q0 -8 -9 -31l-44 -113h-17l38 124q-15 4 -15 20q0 11 6.5 17.5t16.5 6.5q11 0 17.5 -6.5z" />
    <glyph glyph-name="hyphen" unicode="-" horiz-adv-x="399" 
d="M78 323h243v-21h-243v21z" />
    </font>
</defs>
</svg>
